{
.appVersion = "3227";
.formatVersion = 3;
DisplayStrings = (
"oe/e.top/v.top/e.top/w.top/e.top n

oe",
"ij
b/i.top ib/j.top b/t.top tb/u.top ub/p.top 

",
"aeebcedefegeheiejekelemeneoepeqereseteuevewexeyeze
a/j.low e/p.low e/t.low e/u.low e
rz sx
n m v w"
);
axes = (
{
name = Weight;
tag = wght;
}
);
classes = (
{
code = "b.top
f.top
h.top
k.top
l.top";
name = letter.from.b.top;
},
{
code = "a.low
c.low
d.low
e.low
g.low
i.low
j.low
m.low
n.low
o.mitte
p.low
q.low
r.low
s.low
t.low
u.low
v.top
w.top
x.low
y.low
z.low";
name = conectLow;
},
{
code = "a
c
d
e
g
i
j
m
n
o
p
q
r
s
t
u
v
w
x
y
z";
name = letter.to.e;
},
{
code = "b o v w";
name = conect.mitte;
},
{
code = "b
f
h
k
l
";
name = letter.from.b;
}
);
date = "2023-10-17 10:50:39 +0000";
familyName = "betania-3";
featurePrefixes = (
{
automatic = 1;
code = "languagesystem DFLT dflt;

languagesystem latn dflt;
";
name = Languagesystems;
}
);
features = (
{
automatic = 1;
code = "feature calt;
feature c2sc;
feature smcp;
feature case;
feature init;
feature ss01;
feature ss02;
feature ss03;
";
tag = aalt;
},
{
automatic = 1;
code = "lookup ccmp_Other_1 {
	@CombiningTopAccents = [acutecomb dieresiscomb dotaccentcomb gravecomb tildecomb];
	lookupflag UseMarkFilteringSet @CombiningTopAccents;
	sub i' @CombiningTopAccents by idotless;
	sub j' @CombiningTopAccents by jdotless;
} ccmp_Other_1;

lookup ccmp_latn_1 {
	lookupflag 0;
	sub ldot by l periodcentered.loclCAT;
} ccmp_latn_1;

script latn;
lookup ccmp_latn_1;
";
tag = ccmp;
},
{
code = "sub @letter.to.e' e by @conectLow;
sub o.mitte e' by e.mitte;
sub b.top e' by	e.top;
sub v.top e' by	e.top;
sub w.top e' by	e.top;
sub b @letter.from.b' by @letter.from.b.top;
sub v @letter.from.b' by @letter.from.b.top;
sub w @letter.from.b' by @letter.from.b.top;";
tag = calt;
},
{
automatic = 1;
code = "sub periodcentered.loclCAT.case by periodcentered.loclCAT.sc;
";
tag = c2sc;
},
{
automatic = 1;
code = "sub periodcentered.loclCAT by periodcentered.loclCAT.sc;
";

glyphs = (
{
color = 3;
glyphname = A;
lastChange = "2023-10-31 14:44:00 +0000";
layers = (
{
background = {
shapes = (
{
closed = 0;
nodes = (
(443,0,l),
(478,700,l)
);
}
);
};
layerId = "6F9C6BB4-2DCF-443B-A55D-9CE049090094";
shapes = (
{
attr = {
lineCapEnd = 1;
lineCapStart = 1;
strokeHeight = 45;
strokeWidth = 40;
};
closed = 0;
nodes = (
(562,0,l),
(332,700,l),
(82,0,ls)
);
},
{
attr = {
lineCapEnd = 1;
lineCapStart = 1;
strokeHeight = 45;
strokeWidth = 40;
};
closed = 0;
nodes = (
(173,228,l),
(476,228,l)
);
}
);
width = 645;
}
);
unicode = 65;
},
{
color = 3;
glyphname = B;
lastChange = "2023-10-31 14:44:00 +0000";
layers = (
{
background = {
shapes = (
{
closed = 0;
nodes = (
(164,0,l),
(111,0,o),
(124,64,o),
(132,152,cs),
(182,700,l)
);
},
{
closed = 0;
nodes = (
(65,700,l),
(125,700,o),
(255,700,o),
(304,700,cs),
(353,700,o),
(445,696,o),
(445,567,cs),
(445,406,o),
(296,358,o),
(231,358,c),
(318,360,ls),
(369,360,o),
(465,355,o),
(465,220,cs),
(465,51,o),
(309,1,o),
(241,1,cs)
);
}
);
};
layerId = "6F9C6BB4-2DCF-443B-A55D-9CE049090094";
shapes = (
{
attr = {
lineCapEnd = 1;
lineCapStart = 1;
strokeHeight = 45;
strokeWidth = 40;
};
closed = 0;
nodes = (
(147,361,l),
(370,361,o),
(465,351,o),
(465,220,cs),
(465,51,o),
(325,0,o),
(171,0,cs),
(133,0,l),
(147,700,l),
(304,700,l),
(353,700,o),
(445,696,o),
(445,571,cs),
(445,416,o),
(318,360,o),
(147,360,c)
);
}
);
width = 567;
}
);
unicode = 66;
},
{
color = 3;
glyphname = C;
lastChange = "2023-10-31 14:44:00 +0000";
layers = (
{
background = {
shapes = (
{
closed = 0;
nodes = (
(498,681,l),
(451,694,o),
(389,700,o),
(331,700,cs),
(193,700,o),
(118,415,o),
(129,213,cs),
(136,84,o),
(193,0,o),
(275,0,cs),
(363,0,o),
(505,152,o),
(559,230,c)
);
}
);
};
layerId = "6F9C6BB4-2DCF-443B-A55D-9CE049090094";
shapes = (
{
attr = {
lineCapEnd = 1;
lineCapStart = 1;
strokeHeight = 45;
strokeWidth = 40;
};
closed = 0;
nodes = (
(522,679,l),
(463,693,o),
(412,700,o),
(367,700,cs),
(184,700,o),
(108,583,o),
(108,326,cs),
(108,138,o),
(182,0,o),
(320,0,cs),
(380,0,o),
(450,25,o),
(533,82,cs)
);
}
);
width = 615;
}
);
unicode = 67;
},
{
color = 3;
glyphname = D;
lastChange = "2023-10-31 14:44:00 +0000";
layers = (
{
background = {
shapes = (
{
closed = 0;
nodes = (
(65,700,l),
(125,700,o),
(255,700,o),
(304,700,cs),
(353,700,o),
(445,696,o),
(445,571,c)
);
},
{
closed = 0;
nodes = (
(465,220,l),
(465,51,o),
(303,0,o),
(149,0,cs),
(122,0,o),
(119,12,o),
(121,39,cs),
(182,700,l)
);
},
{
closed = 0;
nodes = (
(209,20,l),
(263,7,o),
(310,1,o),
(348,1,cs),
(442,1,o),
(517,141,o),
(551,267,cs),
(600,453,o),
(591,701,o),
(449,701,cs),
(391,701,o),
(327,658,o),
(262,596,c)
);
}
);
};
layerId = "6F9C6BB4-2DCF-443B-A55D-9CE049090094";
shapes = (
{
attr = {
lineCapEnd = 1;
lineCapStart = 1;
strokeHeight = 45;
strokeWidth = 40;
};
closed = 1;
nodes = (
(304,700,l),
(503,700,o),
(591,578,o),
(591,435,cs),
(591,178,o),
(422,0,o),
(149,0,c),
(134,0,l),
(147,700,l)
);
}
);
width = 690;
}
);
unicode = 68;
},
{
color = 3;
glyphname = E;
lastChange = "2023-10-31 14:44:00 +0000";
layers = (
{
layerId = "6F9C6BB4-2DCF-443B-A55D-9CE049090094";
shapes = (
{
attr = {
lineCapEnd = 1;
lineCapStart = 1;
strokeWidth = 40;
};
closed = 0;
nodes = (
(427,0,l),
(133,0,l),
(147,700,l),
(430,700,l)
);
},
{
attr = {
lineCapEnd = 1;
lineCapStart = 1;
strokeWidth = 40;
};
closed = 0;
nodes = (
(140,344,l),
(394,344,l)
);
}
);
width = 563;
}
);
unicode = 69;
},
{
color = 3;
glyphname = F;
lastChange = "2023-10-31 14:44:00 +0000";
layers = (
{
layerId = "6F9C6BB4-2DCF-443B-A55D-9CE049090094";
shapes = (
{
attr = {
lineCapEnd = 1;
lineCapStart = 1;
strokeWidth = 40;
};
closed = 0;
nodes = (
(133,0,l),
(147,700,l),
(430,700,l)
);
},
{
attr = {
lineCapEnd = 1;
lineCapStart = 1;
strokeWidth = 40;
};
closed = 0;
nodes = (
(140,344,l),
(394,344,l)
);
}
);
width = 563;
}
);
unicode = 70;
},
{
color = 3;
glyphname = G;
lastChange = "2023-10-31 14:44:00 +0000";
layers = (
{
background = {
shapes = (
{
closed = 0;
nodes = (
(495,361,l),
(344,361,l)
);
},
{
closed = 0;
nodes = (
(479,679,l),
(433,691,o),
(352,700,o),
(317,700,cs),
(149,700,o),
(103,562,o),
(103,326,cs),
(103,80,o),
(195,0,o),
(298,0,cs),
(397,0,o),
(495,154,o),
(495,270,cs)
);
}
);
};
layerId = "6F9C6BB4-2DCF-443B-A55D-9CE049090094";
shapes = (
{
attr = {
lineCapEnd = 1;
lineCapStart = 1;
strokeHeight = 45;
strokeWidth = 40;
};
closed = 0;
nodes = (
(522,679,l),
(463,693,o),
(412,700,o),
(367,700,cs),
(184,700,o),
(108,583,o),
(108,326,cs),
(108,138,o),
(182,0,o),
(320,0,cs),
(449,0,o),
(547,152,o),
(539,341,c),
(302,341,l)
);
}
);
width = 633;
}
);
unicode = 71;
},
{
color = 3;
glyphname = H;
lastChange = "2023-10-31 14:44:00 +0000";
layers = (
{
background = {
shapes = (
{
closed = 0;
nodes = (
(37,320,l),
(567,320,l)
);
},
{
closed = 0;
nodes = (
(122,699,l),
(175,699,o),
(165,635,o),
(162,547,cs),
(141,-1,l)
);
},
{
closed = 0;
nodes = (
(781,230,l),
(719,83,o),
(625,0,o),
(590,0,cs),
(557,0,o),
(556,38,o),
(559,119,cs),
(581,700,l)
);
}
);
};
layerId = "6F9C6BB4-2DCF-443B-A55D-9CE049090094";
shapes = (
{
attr = {
lineCapEnd = 1;
lineCapStart = 1;
strokeHeight = 45;
strokeWidth = 40;
};
closed = 0;
nodes = (
(150,320,l),
(529,320,l)
);
},
{
attr = {
lineCapEnd = 1;
lineCapStart = 1;
strokeHeight = 45;
strokeWidth = 40;
};
closed = 0;
nodes = (
(147,700,l),
(134,0,l)
);
},
{
attr = {
lineCapEnd = 1;
lineCapStart = 1;
strokeHeight = 45;
strokeWidth = 40;
};
closed = 0;
nodes = (
(547,700,l),
(534,0,l)
);
}
);
width = 681;
}
);
unicode = 72;
},
{
color = 3;
glyphname = I;
lastChange = "2023-10-31 14:44:00 +0000";
layers = (
{
background = {
shapes = (
{
closed = 0;
nodes = (
(142,170,l),
(117,69,o),
(156,0,o),
(238,0,cs),
(343,0,o),
(434,114,o),
(439,251,cs),
(455,700,l),
(187,700,l)
);
}
);
};
layerId = "6F9C6BB4-2DCF-443B-A55D-9CE049090094";
shapes = (
{
attr = {
lineCapEnd = 1;
lineCapStart = 1;
strokeHeight = 45;
strokeWidth = 40;
};
closed = 0;
nodes = (
(254,700,l),
(241,0,l)
);
},
{
attr = {
lineCapEnd = 1;
lineCapStart = 1;
strokeHeight = 45;
strokeWidth = 40;
};
closed = 0;
nodes = (
(153,700,l),
(353,700,l)
);
},
{
attr = {
lineCapEnd = 1;
lineCapStart = 1;
strokeHeight = 45;
strokeWidth = 40;
};
closed = 0;
nodes = (
(136,0,l),
(346,0,l)
);
}
);
width = 490;
}
);
unicode = 73;
},
{
color = 3;
glyphname = J;
lastChange = "2023-10-31 14:44:00 +0000";
layers = (
{
background = {
shapes = (
{
closed = 0;
nodes = (
(392,151,l),
(379,88,o),
(130,-25,o),
(130,-244,cs),
(130,-305,o),
(152,-347,o),
(191,-347,cs),
(243,-347,o),
(246,-285,o),
(244,-104,cs),
(242,51,o),
(237,206,o),
(244,361,cs),
(260,700,l),
(260,700,o),
(224,228,o),
(83,128,c)
);
}
);
};
layerId = "6F9C6BB4-2DCF-443B-A55D-9CE049090094";
shapes = (
{
attr = {
lineCapEnd = 1;
lineCapStart = 1;
strokeHeight = 45;
strokeWidth = 40;
};
closed = 0;
nodes = (
(91,239,l),
(82,82,o),
(132,0,o),
(236,0,cs),
(325,0,o),
(384,80,o),
(386,212,cs),
(394,700,l)
);
}
);
width = 520;
}
);
unicode = 74;
},
{
color = 3;
glyphname = K;
lastChange = "2023-10-31 14:44:00 +0000";
layers = (
{
background = {
shapes = (
{
closed = 0;
nodes = (
(426,0,l),
(132,0,l),
(146,700,l),
(429,700,l)
);
},
{
closed = 0;
nodes = (
(139,344,l),
(393,344,l)
);
}
);
};
layerId = "6F9C6BB4-2DCF-443B-A55D-9CE049090094";
shapes = (
{
attr = {
lineCapEnd = 1;
lineCapStart = 1;
strokeHeight = 45;
strokeWidth = 40;
};
closed = 0;
nodes = (
(470,700,l),
(153,348,l),
(509,0,l)
);
},
{
attr = {
lineCapEnd = 1;
lineCapStart = 1;
strokeHeight = 45;
strokeWidth = 40;
};
closed = 0;
nodes = (
(146,700,l),
(134,0,l)
);
}
);
width = 588;
}
);
unicode = 75;
},
{
color = 3;
glyphname = L;
lastChange = "2023-10-31 14:44:00 +0000";
layers = (
{
background = {
shapes = (
{
closed = 0;
nodes = (
(48,700,l),
(429,700,l)
);
},
{
closed = 0;
nodes = (
(417,0,l),
(150,0,l),
(123,0,o),
(121,12,o),
(122,39,cs),
(148,700,l)
);
},
{
closed = 0;
nodes = (
(132,344,l),
(389,344,l)
);
}
);
};
layerId = "6F9C6BB4-2DCF-443B-A55D-9CE049090094";
shapes = (
{
attr = {
lineCapEnd = 1;
lineCapStart = 1;
strokeHeight = 45;
strokeWidth = 40;
};
closed = 0;
nodes = (
(427,0,l),
(133,0,l),
(147,700,l)
);
}
);
width = 563;
}
);
unicode = 76;
},
{
color = 3;
glyphname = M;
lastChange = "2023-10-31 14:44:00 +0000";
layers = (
{
background = {
shapes = (
{
closed = 0;
nodes = (
(333,700,l),
(127,113,ls),
(98,30,o),
(65,1,o),
(-4,1,c)
);
},
{
closed = 0;
nodes = (
(818,686,l),
(683,268,o),
(533,103,o),
(467,54,c),
(412,142,o),
(349,329,o),
(333,686,c)
);
},
{
closed = 0;
nodes = (
(1016,230,l),
(954,83,o),
(860,0,o),
(825,0,cs),
(768,0,o),
(792,189,o),
(818,700,c)
);
}
);
};
layerId = "6F9C6BB4-2DCF-443B-A55D-9CE049090094";
shapes = (
{
attr = {
lineCapEnd = 1;
lineCapStart = 1;
strokeHeight = 45;
strokeWidth = 40;
};
closed = 0;
nodes = (
(116,0,l),
(166,700,l)
);
},
{
attr = {
lineCapEnd = 1;
lineCapStart = 1;
strokeHeight = 45;
strokeWidth = 40;
};
closed = 0;
nodes = (
(788,700,l),
(818,1,l)
);
},
{
attr = {
lineCapEnd = 1;
lineCapStart = 1;
strokeHeight = 45;
strokeWidth = 40;
};
closed = 0;
nodes = (
(467,84,l),
(787,700,l)
);
},
{
attr = {
lineCapEnd = 1;
lineCapStart = 1;
strokeHeight = 45;
strokeWidth = 40;
};
closed = 0;
nodes = (
(167,700,l),
(467,83,l)
);
}
);
width = 943;
}
);
unicode = 77;
},
{
color = 3;
glyphname = N;
lastChange = "2023-10-31 14:44:00 +0000";
layers = (
{
background = {
shapes = (
{
closed = 0;
nodes = (
(563,700,l),
(539,0,l),
(148,699,l),
(127,112,ls),
(124,29,o),
(100,0,o),
(31,0,c)
);
}
);
};
layerId = "6F9C6BB4-2DCF-443B-A55D-9CE049090094";
shapes = (
{
attr = {
lineCapEnd = 1;
lineCapStart = 1;
strokeHeight = 45;
strokeWidth = 40;
};
closed = 0;
nodes = (
(557,700,l),
(545,0,l)
);
},
{
attr = {
lineCapEnd = 1;
lineCapStart = 1;
strokeHeight = 45;
strokeWidth = 40;
};
closed = 0;
nodes = (
(147,699,l),
(133,2,l)
);
},
{
attr = {
lineCapEnd = 1;
lineCapStart = 1;
strokeHeight = 45;
strokeWidth = 40;
};
closed = 0;
nodes = (
(544,0,l),
(148,699,l)
);
}
);
width = 691;
}
);
unicode = 78;
},
{
color = 3;
glyphname = O;
lastChange = "2023-10-31 14:43:20 +0000";
layers = (
{
background = {
shapes = (
{
closed = 0;
nodes = (
(204,170,l),
(163,170,o),
(120,203,o),
(114,265,cs),
(97,463,o),
(199,700,o),
(397,700,cs),
(546,700,o),
(624,578,o),
(636,435,cs),
(653,237,o),
(546,0,o),
(342,0,cs),
(264,0,o),
(202,30,o),
(163,77,c)
);
}
);
};
layerId = "6F9C6BB4-2DCF-443B-A55D-9CE049090094";
shapes = (
{
attr = {
lineCapEnd = 1;
lineCapStart = 1;
strokeHeight = 45;
strokeWidth = 40;
};
closed = 1;
nodes = (
(98,495,o),
(201,700,o),
(391,700,cs),
(547,700,o),
(634,565,o),
(637,394,cs),
(641,205,o),
(538,0,o),
(348,0,cs),
(192,0,o),
(105,135,o),
(102,306,cs)
);
}
);
width = 739;
}
);
unicode = 79;
},
{
color = 3;
glyphname = P;
lastChange = "2023-10-31 14:44:00 +0000";
layers = (
{
background = {
shapes = (
{
pos = (66,0);
ref = B;
}
);
};
layerId = "6F9C6BB4-2DCF-443B-A55D-9CE049090094";
shapes = (
{
attr = {
lineCapEnd = 1;
lineCapStart = 1;
strokeHeight = 45;
strokeWidth = 40;
};
closed = 0;
nodes = (
(133,-1,l),
(148,700,l),
(315,700,l),
(428,700,o),
(487,646,o),
(487,543,cs),
(487,402,o),
(358,304,o),
(144,304,c)
);
}
);
width = 577;
}
);
unicode = 80;
},
{
color = 3;
glyphname = Q;
lastChange = "2023-10-31 14:44:00 +0000";
layers = (
{
background = {
shapes = (
{
closed = 0;
nodes = (
(529,500,l),
(595,500,o),
(625,449,o),
(625,383,cs),
(625,226,o),
(521,0,o),
(346,0,cs),
(190,0,o),
(105,135,o),
(105,306,cs),
(105,495,o),
(211,700,o),
(401,700,cs),
(479,700,o),
(541,670,o),
(580,623,cs)
);
}
);
};
layerId = "6F9C6BB4-2DCF-443B-A55D-9CE049090094";
shapes = (
{
attr = {
lineCapEnd = 1;
lineCapStart = 1;
strokeHeight = 45;
strokeWidth = 40;
};
closed = 0;
nodes = (
(390,183,l),
(642,-58,l)
);
},
{
ref = O;
}
);
width = 746;
}
);
unicode = 81;
},
{
color = 3;
glyphname = R;
lastChange = "2023-10-31 14:44:00 +0000";
layers = (
{
background = {
shapes = (
{
pos = (66,0);
ref = B;
}
);
};
layerId = "6F9C6BB4-2DCF-443B-A55D-9CE049090094";
shapes = (
{
attr = {
lineCapEnd = 1;
lineCapStart = 1;
strokeHeight = 45;
strokeWidth = 40;
};
closed = 0;
nodes = (
(133,0,l),
(148,700,l),
(320,700,l),
(420,700,o),
(488,661,o),
(488,569,cs),
(488,428,o),
(374,338,o),
(145,338,c)
);
},
{
attr = {
lineCapEnd = 1;
lineCapStart = 1;
strokeHeight = 45;
strokeWidth = 40;
};
closed = 0;
nodes = (
(152,340,l),
(507,0,l)
);
}
);
width = 598;
}
);
unicode = 82;
},
{
color = 3;
glyphname = S;
lastChange = "2023-10-31 14:44:00 +0000";
layers = (
{
background = {
shapes = (
{
closed = 0;
nodes = (
(578,230,l),
(490,58,o),
(434,0,o),
(251,-11,cs),
(180,-15,o),
(100,18,o),
(108,72,cs)
);
},
{
closed = 0;
nodes = (
(436,623,ls),
(437,676,o),
(397,700,o),
(347,700,cs),
(272,700,o),
(174,648,o),
(151,565,cs),
(94,355,o),
(494,361,o),
(438,150,cs),
(411,50,o),
(289,0,o),
(201,0,cs),
(162,0,o),
(132,16,o),
(121,31,c)
);
}
);
};
hints = (
{
horizontal = 1;
origin = (0,0);
settings = {
deltaV = {
"{100, 100, 0, 0, 0, 0}" = {
"62" = 0;
};
};
};
type = TTDelta;
},
{
horizontal = 1;
origin = (0,0);
settings = {
deltaV = {
"{100, 100, 0, 0, 0, 0}" = {
"62" = 0;
};
};
};
type = TTDelta;
},
{
horizontal = 1;
origin = (0,0);
settings = {
deltaV = {
"{100, 100, 0, 0, 0, 0}" = {
"62" = 0;
};
};
};
type = TTDelta;
},
{
horizontal = 1;
origin = (0,6);
settings = {
deltaV = {
"{100, 100, 0, 0, 0, 0}" = {
"62" = 0;
};
};
};
type = TTDelta;
},
{
horizontal = 1;
origin = (0,12);
settings = {
deltaV = {
"{100, 100, 0, 0, 0, 0}" = {
"62" = 0;
};
};
};
type = TTDelta;
},
{
horizontal = 1;
origin = (0,12);
settings = {
deltaV = {
"{100, 100, 0, 0, 0, 0}" = {
"62" = 0;
};
};
};
type = TTDelta;
},
{
horizontal = 1;
origin = (0,12);
settings = {
deltaV = {
"{100, 100, 0, 0, 0, 0}" = {
"62" = 0;
};
};
};
type = TTDelta;
},
{
horizontal = 1;
origin = (0,18);
settings = {
deltaV = {
"{100, 100, 0, 0, 0, 0}" = {
"62" = 0;
};
};
};
type = TTDelta;
},
{
horizontal = 1;
origin = (0,18);
settings = {
deltaV = {
"{100, 100, 0, 0, 0, 0}" = {
"62" = 0;
};
};
};
type = TTDelta;
},
{
horizontal = 1;
origin = (0,18);
settings = {
deltaV = {
"{100, 100, 0, 0, 0, 0}" = {
"62" = 0;
};
};
};
type = TTDelta;
},
{
horizontal = 1;
origin = (0,18);
settings = {
deltaV = {
"{100, 100, 0, 0, 0, 0}" = {
"62" = 0;
};
};
};
type = TTDelta;
},
{
horizontal = 1;
origin = (0,18);
settings = {
deltaV = {
"{100, 100, 0, 0, 0, 0}" = {
"62" = 0;
};
};
};
type = TTDelta;
},
{
horizontal = 1;
origin = (0,18);
settings = {
deltaV = {
"{100, 100, 0, 0, 0, 0}" = {
"62" = 0;
};
};
};
type = TTDelta;
}
);
layerId = "6F9C6BB4-2DCF-443B-A55D-9CE049090094";
shapes = (
{
attr = {
lineCapEnd = 1;
lineCapStart = 1;
strokeHeight = 45;
strokeWidth = 40;
};
closed = 0;
nodes = (
(91,31,l),
(118,12,o),
(166,0,o),
(217,0,cs),
(320,0,o),
(437,49,o),
(434,188,cs),
(432,274,o),
(351,321,o),
(269,367,cs),
(191,411,o),
(108,464,o),
(108,556,cs),
(108,648,o),
(195,699,o),
(287,699,cs),
(330,699,o),
(374,688,o),
(411,664,cs)
);
}
);
width = 524;
}
);
unicode = 83;
},
{
color = 3;
glyphname = T;
lastChange = "2023-10-31 14:44:00 +0000";
layers = (
{
background = {
shapes = (
{
closed = 0;
nodes = (
(202,634,l),
(182,692,o),
(230,709,o),
(271,709,cs),
(383,709,o),
(517,690,o),
(611,690,cs),
(652,690,o),
(700,707,o),
(680,765,c)
);
},
{
closed = 0;
nodes = (
(476,700,l),
(451,0,l)
);
}
);
};
layerId = "6F9C6BB4-2DCF-443B-A55D-9CE049090094";
shapes = (
{
attr = {
lineCapEnd = 1;
lineCapStart = 1;
strokeHeight = 45;
strokeWidth = 40;
};
closed = 0;
nodes = (
(416,700,l),
(403,0,l)
);
},
{
attr = {
lineCapEnd = 1;
lineCapStart = 1;
strokeHeight = 45;
strokeWidth = 40;
};
closed = 0;
nodes = (
(136,701,l),
(676,700,l)
);
}
);
width = 754;
}
);
unicode = 84;
},
{
color = 3;
glyphname = U;
lastChange = "2023-10-31 14:44:00 +0000";
layers = (
{
layerId = "6F9C6BB4-2DCF-443B-A55D-9CE049090094";
shapes = (
{
attr = {
lineCapEnd = 1;
lineCapStart = 1;
strokeHeight = 45;
strokeWidth = 40;
};
closed = 0;
nodes = (
(136,700,l),
(126,220,ls),
(122,89,o),
(197,0,o),
(324,0,cs),
(448,0,o),
(541,87,o),
(544,220,cs),
(555,700,l)
);
}
);
width = 677;
}
);
unicode = 85;
},
{
color = 3;
glyphname = V;
lastChange = "2023-10-31 14:44:00 +0000";
layers = (
{
background = {
shapes = (
{
pos = (-3,0);
ref = U;
}
);
};
layerId = "6F9C6BB4-2DCF-443B-A55D-9CE049090094";
shapes = (
{
attr = {
lineCapEnd = 1;
lineCapStart = 1;
strokeHeight = 45;
strokeWidth = 40;
};
closed = 0;
nodes = (
(83,700,l),
(313,0,l)
);
},
{
attr = {
lineCapEnd = 1;
lineCapStart = 1;
strokeHeight = 45;
strokeWidth = 40;
};
closed = 0;
nodes = (
(313,1,l),
(563,700,ls)
);
}
);
width = 645;
}
);
unicode = 86;
},
{
color = 3;
glyphname = W;
lastChange = "2023-10-31 14:44:00 +0000";
layers = (
{
background = {
shapes = (
{
closed = 0;
nodes = (
(84,700,l),
(304,0,l),
(544,700,l),
(764,0,l),
(1004,700,ls)
);
}
);
};
layerId = "6F9C6BB4-2DCF-443B-A55D-9CE049090094";
shapes = (
{
attr = {
lineCapEnd = "1";
lineCapStart = "1";
strokeHeight = 45;
strokeWidth = 40;
};
closed = 0;
nodes = (
(83,700,l),
(313,0,l)
);
},
{
attr = {
lineCapEnd = "1";
lineCapStart = "1";
strokeHeight = 45;
strokeWidth = 40;
};
closed = 0;
nodes = (
(83,700,l),
(313,0,l)
);
},
{
attr = {
lineCapEnd = "1";
lineCapStart = "1";
strokeHeight = 45;
strokeWidth = 40;
};
closed = 0;
nodes = (
(313,1,l),
(548,697,ls)
);
},
{
attr = {
lineCapEnd = "1";
lineCapStart = "1";
strokeHeight = 45;
strokeWidth = 40;
};
closed = 0;
nodes = (
(763,1,l),
(1013,700,ls)
);
},
{
attr = {
lineCapEnd = "1";
lineCapStart = "1";
strokeHeight = 45;
strokeWidth = 40;
};
closed = 0;
nodes = (
(548,700,l),
(763,0,l)
);
},
{
attr = {
lineCapEnd = "1";
lineCapStart = "1";
strokeHeight = 45;
strokeWidth = 40;
};
closed = 0;
nodes = (
(763,1,l),
(1013,700,ls)
);
}
);
width = 1095;
}
);
unicode = 87;
},
{
color = 3;
glyphname = X;
lastChange = "2023-10-31 14:44:00 +0000";
layers = (
{
background = {
shapes = (
{
closed = 0;
nodes = (
(13,320,l),
(530,320,l)
);
},
{
closed = 0;
nodes = (
(744,230,l),
(682,83,o),
(588,0,o),
(553,0,cs),
(520,0,o),
(519,38,o),
(522,119,cs),
(544,700,l)
);
},
{
pos = (-21,0);
ref = baston.caps;
}
);
};
layerId = "6F9C6BB4-2DCF-443B-A55D-9CE049090094";
shapes = (
{
attr = {
lineCapEnd = 1;
lineCapStart = 1;
strokeWidth = 40;
};
closed = 0;
nodes = (
(83,0,l),
(564,700,l)
);
},
{
attr = {
lineCapEnd = 1;
lineCapStart = 1;
strokeWidth = 40;
};
closed = 0;
nodes = (
(549,0,l),
(103,700,l)
);
}
);
width = 646;
}
);
unicode = 88;
},
{
color = 3;
glyphname = Y;
lastChange = "2023-10-31 14:44:01 +0000";
layers = (
{
layerId = "6F9C6BB4-2DCF-443B-A55D-9CE049090094";
shapes = (
{
attr = {
lineCapEnd = 1;
lineCapStart = 1;
strokeHeight = 45;
strokeWidth = 40;
};
closed = 0;
nodes = (
(546,700,l),
(296,300,l)
);
},
{
attr = {
lineCapEnd = 1;
lineCapStart = 1;
strokeHeight = 45;
strokeWidth = 40;
};
closed = 0;
nodes = (
(80,700,l),
(296,300,l),
(291,0,l)
);
}
);
width = 625;
}
);
unicode = 89;
},
{
color = 3;
glyphname = Z;
lastChange = "2023-10-31 14:44:00 +0000";
layers = (
{
background = {
shapes = (
{
closed = 0;
nodes = (
(690,230,l),
(628,83,o),
(535,-4,o),
(499,-4,cs),
(453,-4,o),
(388,6,o),
(314,6,cs),
(241,6,o),
(171,6,o),
(92,0,c)
);
},
{
closed = 0;
nodes = (
(660,740,l),
(62,-40,l)
);
},
{
closed = 0;
nodes = (
(159,700,l),
(262,686,o),
(464,688,o),
(630,700,c)
);
}
);
};
layerId = "6F9C6BB4-2DCF-443B-A55D-9CE049090094";
shapes = (
{
attr = {
lineCapEnd = 1;
lineCapStart = 1;
strokeHeight = 45;
strokeWidth = 40;
};
closed = 0;
nodes = (
(540,695,l),
(80,4,l)
);
},
{
attr = {
lineCapEnd = 1;
lineCapStart = 1;
strokeHeight = 45;
strokeWidth = 40;
};
closed = 0;
nodes = (
(90,700,l),
(540,700,l)
);
},
{
attr = {
lineCapEnd = 1;
lineCapStart = 1;
strokeHeight = 45;
strokeWidth = 40;
};
closed = 0;
nodes = (
(80,0,l),
(530,0,l)
);
}
);
width = 621;
}
);
unicode = 90;
},
{
color = 10;
glyphname = Q.alt;
lastChange = "2023-10-31 13:25:37 +0000";
layers = (
{
background = {
shapes = (
{
closed = 0;
nodes = (
(469,500,l),
(535,500,o),
(565,449,o),
(565,383,cs),
(565,226,o),
(461,0,o),
(286,0,cs),
(130,0,o),
(45,135,o),
(45,306,cs),
(45,495,o),
(151,700,o),
(341,700,cs),
(419,700,o),
(481,670,o),
(520,623,cs)
);
}
);
};
layerId = "6F9C6BB4-2DCF-443B-A55D-9CE049090094";
shapes = (
{
attr = {
lineCapEnd = 1;
lineCapStart = 1;
strokeHeight = 45;
strokeWidth = 40;
};
closed = 0;
nodes = (
(181,140,l),
(289,140,o),
(461,79,o),
(577,-146,c)
);
},
{
attr = {
lineCapEnd = 1;
lineCapStart = 1;
strokeHeight = 45;
strokeWidth = 40;
};
closed = 1;
nodes = (
(46,495,o),
(152,700,o),
(342,700,cs),
(498,700,o),
(583,565,o),
(583,394,cs),
(583,205,o),
(477,0,o),
(287,0,cs),
(131,0,o),
(46,135,o),
(46,306,cs)
);
}
);
width = 629;
}
);
},
{
color = 4;
glyphname = H.sinconexion;
lastChange = "2023-10-31 13:25:37 +0000";
layers = (
{
background = {
shapes = (
{
closed = 0;
nodes = (
(57,320,l),
(587,320,l)
);
},
{
closed = 0;
nodes = (
(142,699,l),
(195,699,o),
(185,635,o),
(182,547,cs),
(161,-1,l)
);
},
{
closed = 0;
nodes = (
(801,230,l),
(739,83,o),
(645,0,o),
(610,0,cs),
(577,0,o),
(576,38,o),
(579,119,cs),
(601,700,l)
);
}
);
};
layerId = "6F9C6BB4-2DCF-443B-A55D-9CE049090094";
shapes = (
{
closed = 0;
nodes = (
(70,320,l),
(587,320,l)
);
},
{
closed = 0;
nodes = (
(610,0,l),
(577,0,o),
(576,38,o),
(579,119,cs),
(601,700,l)
);
},
{
pos = (36,0);
ref = baston.caps;
}
);
width = 702;
}
);
},
{
color = 4;
glyphname = A.ss01;
lastChange = "2023-10-31 13:25:37 +0000";
layers = (
{
layerId = "6F9C6BB4-2DCF-443B-A55D-9CE049090094";
shapes = (
{
closed = 0;
nodes = (
(639,700,l),
(613,189,o),
(592,0,o),
(649,0,cs),
(684,0,o),
(778,83,o),
(840,230,c)
);
},
{
closed = 0;
nodes = (
(213,228,l),
(619,228,l)
);
},
{
closed = 0;
nodes = (
(639,700,l),
(238,113,ls),
(182,30,o),
(139,1,o),
(70,1,c)
);
}
);
width = 835;
}
);
},
{
color = 4;
glyphname = B.ss01;
lastChange = "2023-10-31 13:25:37 +0000";
layers = (
{
layerId = "6F9C6BB4-2DCF-443B-A55D-9CE049090094";
shapes = (
{
closed = 0;
nodes = (
(91,700,l),
(348,700,l),
(397,700,o),
(489,696,o),
(489,571,cs),
(489,416,o),
(316,360,o),
(251,360,c)
);
},
{
closed = 0;
nodes = (
(265,360,l),
(428,385,o),
(509,351,o),
(509,220,cs),
(509,51,o),
(347,0,o),
(193,0,cs),
(166,0,o),
(164,12,o),
(165,39,cs),
(191,700,l)
);
}
);
width = 588;
}
);
},
{
color = 4;
glyphname = C.ss01;
lastChange = "2023-10-31 13:25:37 +0000";
layers = (
{
layerId = "6F9C6BB4-2DCF-443B-A55D-9CE049090094";
shapes = (
{
closed = 0;
nodes = (
(453,681,l),
(406,694,o),
(344,700,o),
(286,700,cs),
(148,700,o),
(73,415,o),
(84,213,cs),
(91,84,o),
(148,0,o),
(230,0,cs),
(318,0,o),
(438,105,o),
(514,230,c)
);
}
);
width = 509;
}
);
},
{
color = 4;
glyphname = D.ss01;
lastChange = "2023-10-31 13:25:37 +0000";
layers = (
{
layerId = "6F9C6BB4-2DCF-443B-A55D-9CE049090094";
shapes = (
{
closed = 0;
nodes = (
(91,700,l),
(348,700,l),
(547,700,o),
(635,578,o),
(635,435,cs),
(635,237,o),
(465,0,o),
(193,0,cs),
(166,0,o),
(164,12,o),
(165,39,cs),
(191,700,l)
);
}
);
width = 714;
}
);
},
{
color = 4;
glyphname = E.ss01;
lastChange = "2023-10-31 13:25:37 +0000";
layers = (
{
layerId = "6F9C6BB4-2DCF-443B-A55D-9CE049090094";
shapes = (
{
closed = 0;
nodes = (
(91,700,l),
(472,700,l)
);
},
{
closed = 0;
nodes = (
(460,0,l),
(193,0,l),
(166,0,o),
(164,12,o),
(165,39,cs),
(191,700,l)
);
},
{
closed = 0;
nodes = (
(175,344,l),
(432,344,l)
);
}
);
width = 562;
}
);
},
{
color = 4;
glyphname = F.ss01;
lastChange = "2023-10-31 13:25:37 +0000";
layers = (
{
layerId = "6F9C6BB4-2DCF-443B-A55D-9CE049090094";
shapes = (
{
closed = 0;
nodes = (
(91,700,l),
(472,700,l)
);
},
{
closed = 0;
nodes = (
(175,334,l),
(432,334,l)
);
},
{
closed = 0;
nodes = (
(191,701,l),
(165,0,l)
);
}
);
width = 563;
}
);
},
{
color = 4;
glyphname = G.ss01;
lastChange = "2023-10-31 13:25:37 +0000";
layers = (
{
layerId = "6F9C6BB4-2DCF-443B-A55D-9CE049090094";
shapes = (
{
closed = 0;
nodes = (
(454,681,l),
(407,694,o),
(345,700,o),
(287,700,cs),
(149,700,o),
(74,415,o),
(85,213,cs),
(91,84,o),
(138,0,o),
(205,0,cs),
(278,0,o),
(387,116,o),
(450,270,c)
);
},
{
closed = 0;
nodes = (
(598,151,l),
(585,88,o),
(336,-25,o),
(336,-244,cs),
(336,-305,o),
(358,-347,o),
(397,-347,cs),
(449,-347,o),
(450,-285,o),
(450,-104,cs),
(450,361,l),
(299,361,l)
);
}
);
width = 636;
}
);
},
{
color = 4;
glyphname = H.ss01;
lastChange = "2023-10-31 13:25:37 +0000";
layers = (
{
layerId = "6F9C6BB4-2DCF-443B-A55D-9CE049090094";
shapes = (
{
closed = 0;
nodes = (
(83,320,l),
(600,320,l)
);
},
{
closed = 0;
nodes = (
(814,230,l),
(752,83,o),
(658,0,o),
(623,0,cs),
(590,0,o),
(589,38,o),
(592,119,cs),
(614,700,l)
);
},
{
closed = 0;
nodes = (
(99,700,l),
(193,700,o),
(199,699,o),
(195,588,cs),
(174,0,l)
);
}
);
width = 809;
}
);
},
{
color = 4;
glyphname = I.ss01;
lastChange = "2023-10-31 13:25:37 +0000";
layers = (
{
layerId = "6F9C6BB4-2DCF-443B-A55D-9CE049090094";
shapes = (
{
closed = 0;
nodes = (
(82,170,l),
(57,69,o),
(96,0,o),
(178,0,cs),
(283,0,o),
(374,114,o),
(379,251,cs),
(395,700,l),
(301,688,o),
(187,686,o),
(129,700,c)
);
}
);
width = 483;
}
);
},
{
color = 4;
glyphname = J.ss01;
lastChange = "2023-10-31 13:25:37 +0000";
layers = (
{
layerId = "6F9C6BB4-2DCF-443B-A55D-9CE049090094";
shapes = (
{
closed = 0;
nodes = (
(180,251,l),
(196,700,l),
(119,688,o),
(26,686,o),
(-22,700,c)
);
},
{
closed = 0;
nodes = (
(184,360,l),
(163,-240,ls),
(161,-299,o),
(147,-324,o),
(117,-324,cs),
(84,-324,o),
(57,-294,o),
(57,-244,cs),
(57,-166,o),
(121,-99,o),
(221,20,cs),
(280,90,o),
(344,167,o),
(372,230,c)
);
}
);
width = 367;
}
);
},
{
color = 4;
glyphname = K.ss01;
lastChange = "2023-10-31 13:25:37 +0000";
layers = (
{
layerId = "6F9C6BB4-2DCF-443B-A55D-9CE049090094";
shapes = (
{
closed = 0;
nodes = (
(534,700,l),
(217,358,l),
(430,95,ls),
(464,53,o),
(521,0,o),
(573,0,cs)
);
},
{
closed = 0;
nodes = (
(101,700,l),
(195,700,o),
(201,699,o),
(197,588,cs),
(176,0,l)
);
}
);
width = 600;
}
);
},
{
color = 4;
glyphname = L.ss01;
lastChange = "2023-10-31 13:25:37 +0000";
layers = (
{
layerId = "6F9C6BB4-2DCF-443B-A55D-9CE049090094";
shapes = (
{
closed = 0;
nodes = (
(60,-39,l),
(236,534,ls),
(266,631,o),
(323,700,o),
(392,700,cs),
(456,700,o),
(490,660,o),
(490,610,cs),
(490,501,o),
(344,411,o),
(224,411,cs),
(144,411,o),
(57,449,o),
(-14,562,c)
);
},
{
closed = 0;
nodes = (
(573,230,l),
(511,83,o),
(418,0,o),
(382,0,cs),
(297,0,o),
(212,14,o),
(127,14,cs),
(106,14,o),
(90,11,o),
(72,1,c)
);
}
);
width = 568;
}
);
},
{
color = 4;
glyphname = M.ss01;
lastChange = "2023-10-31 13:25:37 +0000";
layers = (
{
layerId = "6F9C6BB4-2DCF-443B-A55D-9CE049090094";
shapes = (
{
closed = 0;
nodes = (
(406,700,l),
(201,113,ls),
(172,30,o),
(139,1,o),
(70,1,c)
);
},
{
closed = 0;
nodes = (
(892,700,l),
(757,282,o),
(580,132,o),
(514,83,c),
(459,171,o),
(423,343,o),
(407,700,c)
);
},
{
closed = 0;
nodes = (
(1090,230,l),
(1028,83,o),
(934,0,o),
(899,0,cs),
(842,0,o),
(867,189,o),
(893,700,c)
);
}
);
width = 1085;
}
);
},
{
color = 4;
glyphname = N.ss01;
lastChange = "2023-10-31 13:25:37 +0000";
layers = (
{
layerId = "6F9C6BB4-2DCF-443B-A55D-9CE049090094";
shapes = (
{
closed = 0;
nodes = (
(614,700,l),
(565,0,l)
);
},
{
closed = 0;
nodes = (
(199,700,l),
(157,112,ls),
(151,29,o),
(126,0,o),
(57,0,c)
);
},
{
closed = 0;
nodes = (
(566,6,l),
(531,90,o),
(229,601,o),
(200,700,c)
);
}
);
width = 694;
}
);
},
{
color = 4;
glyphname = O.ss01;
lastChange = "2023-10-31 13:25:37 +0000";
layers = (
{
layerId = "6F9C6BB4-2DCF-443B-A55D-9CE049090094";
shapes = (
{
closed = 0;
nodes = (
(175,170,l),
(109,170,o),
(79,234,o),
(79,317,cs),
(79,474,o),
(183,700,o),
(358,700,cs),
(514,700,o),
(599,565,o),
(599,394,cs),
(599,205,o),
(493,0,o),
(303,0,cs),
(225,0,o),
(163,30,o),
(124,77,c)
);
}
);
width = 680;
}
);
},
{
color = 4;
glyphname = P.ss01;
lastChange = "2023-10-31 13:25:37 +0000";
layers = (
{
layerId = "6F9C6BB4-2DCF-443B-A55D-9CE049090094";
shapes = (
{
closed = 0;
nodes = (
(91,700,l),
(373,700,l),
(433,700,o),
(545,695,o),
(545,543,cs),
(545,354,o),
(335,286,o),
(255,286,c)
);
},
{
closed = 0;
nodes = (
(272,286,l)
);
},
{
closed = 0;
nodes = (
(191,-1,l),
(217,700,l)
);
}
);
width = 622;
}
);
},
{
color = 4;
glyphname = Q.ss01;
lastChange = "2023-10-31 13:25:37 +0000";
layers = (
{
layerId = "6F9C6BB4-2DCF-443B-A55D-9CE049090094";
shapes = (
{
closed = 0;
nodes = (
(102,200,l),
(84,216,o),
(79,251,o),
(79,317,cs),
(79,474,o),
(183,700,o),
(358,700,cs),
(514,700,o),
(599,565,o),
(599,394,cs),
(599,205,o),
(493,0,o),
(303,0,cs),
(225,0,o),
(143,64,o),
(143,100,cs),
(143,121,o),
(184,140,o),
(245,140,cs),
(353,140,o),
(525,79,o),
(641,-146,c)
);
}
);
width = 682;
}
);
},
{
color = 4;
glyphname = R.ss01;
lastChange = "2023-10-31 13:25:37 +0000";
layers = (
{
layerId = "6F9C6BB4-2DCF-443B-A55D-9CE049090094";
shapes = (
{
closed = 0;
nodes = (
(91,700,l),
(368,700,l),
(421,700,o),
(520,696,o),
(520,561,cs),
(520,394,o),
(363,292,o),
(265,338,c)
);
},
{
closed = 0;
nodes = (
(165,0,l),
(191,700,l)
);
},
{
closed = 0;
nodes = (
(232,378,l),
(444,95,ls),
(475,53,o),
(527,0,o),
(579,0,cs)
);
}
);
width = 650;
}
);
},
{
color = 4;
glyphname = S.ss01;
lastChange = "2023-10-31 13:25:37 +0000";
layers = (
{
hints = (
{
horizontal = 1;
origin = (0,12);
settings = {
deltaV = {
"{100, 100, 0, 0, 0, 0}" = {
"62" = 0;
};
};
};
type = TTDelta;
},
{
horizontal = 1;
origin = (0,11);
settings = {
deltaV = {
"{100, 100, 0, 0, 0, 0}" = {
"62" = 0;
};
};
};
type = TTDelta;
},
{
horizontal = 1;
origin = (0,10);
settings = {
deltaV = {
"{100, 100, 0, 0, 0, 0}" = {
"62" = 0;
};
};
};
type = TTDelta;
},
{
horizontal = 1;
origin = (0,9);
settings = {
deltaV = {
"{100, 100, 0, 0, 0, 0}" = {
"62" = 0;
};
};
};
type = TTDelta;
},
{
horizontal = 1;
origin = (0,8);
settings = {
deltaV = {
"{100, 100, 0, 0, 0, 0}" = {
"62" = 0;
};
};
};
type = TTDelta;
},
{
horizontal = 1;
origin = (0,7);
settings = {
deltaV = {
"{100, 100, 0, 0, 0, 0}" = {
"62" = 0;
};
};
};
type = TTDelta;
},
{
horizontal = 1;
origin = (0,6);
settings = {
deltaV = {
"{100, 100, 0, 0, 0, 0}" = {
"62" = 0;
};
};
};
type = TTDelta;
},
{
horizontal = 1;
origin = (0,5);
settings = {
deltaV = {
"{100, 100, 0, 0, 0, 0}" = {
"62" = 0;
};
};
};
type = TTDelta;
},
{
horizontal = 1;
origin = (0,4);
settings = {
deltaV = {
"{100, 100, 0, 0, 0, 0}" = {
"62" = 0;
};
};
};
type = TTDelta;
},
{
horizontal = 1;
origin = (0,3);
settings = {
deltaV = {
"{100, 100, 0, 0, 0, 0}" = {
"62" = 0;
};
};
};
type = TTDelta;
},
{
horizontal = 1;
origin = (0,2);
settings = {
deltaV = {
"{100, 100, 0, 0, 0, 0}" = {
"62" = 0;
};
};
};
type = TTDelta;
},
{
horizontal = 1;
origin = (0,1);
settings = {
deltaV = {
"{100, 100, 0, 0, 0, 0}" = {
"62" = 0;
};
};
};
type = TTDelta;
},
{
horizontal = 1;
origin = (0,0);
settings = {
deltaV = {
"{100, 100, 0, 0, 0, 0}" = {
"62" = 0;
};
};
};
type = TTDelta;
}
);
layerId = "6F9C6BB4-2DCF-443B-A55D-9CE049090094";
shapes = (
{
closed = 0;
nodes = (
(400,623,l),
(401,676,o),
(361,700,o),
(311,700,cs),
(236,700,o),
(138,648,o),
(115,565,cs),
(58,355,o),
(458,361,o),
(402,150,cs),
(375,50,o),
(253,0,o),
(165,0,cs),
(126,0,o),
(96,16,o),
(85,31,c)
);
},
{
closed = 0;
nodes = (
(542,230,l),
(490,94,o),
(372,2,o),
(291,0,cs),
(263,-1,o),
(215,-1,o),
(187,0,c)
);
}
);
width = 537;
}
);
},
{
color = 4;
glyphname = T.ss01;
lastChange = "2023-10-31 13:25:37 +0000";
layers = (
{
layerId = "6F9C6BB4-2DCF-443B-A55D-9CE049090094";
shapes = (
{
closed = 0;
nodes = (
(353,699,l),
(328,0,l)
);
},
{
closed = 0;
nodes = (
(70,701,l),
(188,695,o),
(420,697,o),
(610,711,c)
);
}
);
width = 680;
}
);
},
{
color = 4;
glyphname = U.ss01;
lastChange = "2023-10-31 13:25:37 +0000";
layers = (
{
layerId = "6F9C6BB4-2DCF-443B-A55D-9CE049090094";
shapes = (
{
closed = 0;
nodes = (
(757,230,l),
(695,83,o),
(601,0,o),
(566,0,cs),
(533,0,o),
(532,38,o),
(535,119,cs),
(557,700,l)
);
},
{
closed = 0;
nodes = (
(82,700,l),
(176,700,o),
(182,699,o),
(178,588,cs),
(166,173,ls),
(163,68,o),
(221,0,o),
(293,0,cs),
(369,0,o),
(474,105,o),
(540,230,c)
);
}
);
width = 752;
}
);
},
{
color = 4;
glyphname = V.ss01;
lastChange = "2023-10-31 13:25:37 +0000";
layers = (
{
layerId = "6F9C6BB4-2DCF-443B-A55D-9CE049090094";
shapes = (
{
closed = 0;
nodes = (
(71,689,l),
(90,695,o),
(190,716,o),
(192,674,cs),
(207,372,o),
(180,0,o),
(241,0,cs),
(310,0,o),
(616,360,o),
(587,605,cs),
(577,692,o),
(353,742,o),
(370,654,cs),
(378,612,o),
(547,555,o),
(699,696,cs)
);
}
);
width = 699;
}
);
},
{
color = 4;
glyphname = W.ss01;
lastChange = "2023-10-31 13:25:37 +0000";
layers = (
{
layerId = "6F9C6BB4-2DCF-443B-A55D-9CE049090094";
shapes = (
{
closed = 0;
nodes = (
(71,689,l),
(90,695,o),
(190,716,o),
(192,674,cs),
(207,372,o),
(180,0,o),
(241,0,cs),
(317,0,o),
(536,370,o),
(536,674,c),
(551,372,o),
(524,0,o),
(585,0,cs),
(644,0,o),
(910,360,o),
(881,605,cs),
(871,692,o),
(647,742,o),
(664,654,cs),
(672,612,o),
(841,555,o),
(993,696,c)
);
}
);
width = 993;
}
);
},
{
color = 4;
glyphname = X.ss01;
lastChange = "2023-10-31 13:25:37 +0000";
layers = (
{
layerId = "6F9C6BB4-2DCF-443B-A55D-9CE049090094";
shapes = (
{
closed = 0;
nodes = (
(136,0,l),
(587,700,l)
);
},
{
closed = 0;
nodes = (
(793,230,l),
(731,83,o),
(637,0,o),
(602,0,cs),
(562,0,o),
(310,440,o),
(177,670,cs),
(159,700,o),
(141,700,o),
(71,701,c)
);
}
);
width = 788;
}
);
},
{
color = 4;
glyphname = Y.ss01;
lastChange = "2023-10-31 13:25:37 +0000";
layers = (
{
layerId = "6F9C6BB4-2DCF-443B-A55D-9CE049090094";
shapes = (
{
closed = 0;
nodes = (
(543,360,l),
(556,700,l)
);
},
{
closed = 0;
nodes = (
(81,700,l),
(175,700,o),
(180,699,o),
(177,588,cs),
(165,173,ls),
(162,68,o),
(169,0,o),
(241,0,cs),
(317,0,o),
(475,192,o),
(541,317,c)
);
},
{
closed = 0;
nodes = (
(543,360,l),
(522,-240,ls),
(520,-299,o),
(506,-324,o),
(476,-324,cs),
(443,-324,o),
(416,-294,o),
(416,-244,cs),
(416,-166,o),
(480,-99,o),
(580,20,cs),
(639,90,o),
(703,167,o),
(731,230,c)
);
}
);
width = 726;
}
);
},
{
color = 4;
glyphname = Z.ss01;
lastChange = "2023-10-31 13:25:37 +0000";
layers = (
{
layerId = "6F9C6BB4-2DCF-443B-A55D-9CE049090094";
shapes = (
{
closed = 0;
nodes = (
(679,230,l),
(617,83,o),
(524,-4,o),
(488,-4,cs),
(442,-4,o),
(377,6,o),
(303,6,cs),
(230,6,o),
(160,6,o),
(81,0,c)
);
},
{
closed = 0;
nodes = (
(649,740,l),
(51,-40,l)
);
},
{
closed = 0;
nodes = (
(148,700,l),
(251,686,o),
(453,688,o),
(619,700,c)
);
}
);
width = 674;
}
);
},
{
color = 5;
glyphname = A.ss02;
lastChange = "2023-10-31 13:25:37 +0000";
layers = (
{
layerId = "6F9C6BB4-2DCF-443B-A55D-9CE049090094";
shapes = (
{
closed = 0;
nodes = (
(385,700,l),
(457,189,o),
(462,0,o),
(519,0,cs)
);
},
{
closed = 0;
nodes = (
(153,228,l),
(451,228,l)
);
},
{
closed = 0;
nodes = (
(385,700,l),
(36,0,ls)
);
},
{
closed = 0;
nodes = (
(625,150,ls),
(596,50,o),
(553,0,o),
(519,0,c)
);
}
);
width = 625;
}
);
},
{
color = 5;
glyphname = B.ss02;
lastChange = "2023-10-31 13:25:37 +0000";
layers = (
{
layerId = "6F9C6BB4-2DCF-443B-A55D-9CE049090094";
shapes = (
{
closed = 0;
nodes = (
(57,700,l),
(314,700,l),
(363,700,o),
(455,696,o),
(455,571,cs),
(455,416,o),
(282,360,o),
(217,360,c)
);
},
{
closed = 0;
nodes = (
(231,360,l),
(394,385,o),
(475,351,o),
(475,220,cs),
(475,51,o),
(313,0,o),
(159,0,cs),
(132,0,o),
(130,12,o),
(131,39,cs),
(157,700,l)
);
}
);
width = 519;
}
);
},
{
color = 5;
glyphname = C.ss02;
lastChange = "2023-10-31 13:25:37 +0000";
layers = (
{
layerId = "6F9C6BB4-2DCF-443B-A55D-9CE049090094";
shapes = (
{
closed = 0;
nodes = (
(427,679,l),
(381,691,o),
(300,700,o),
(265,700,cs),
(97,700,o),
(51,562,o),
(51,326,cs),
(51,80,o),
(143,0,o),
(246,0,cs),
(345,0,o),
(455,74,o),
(502,150,cs)
);
}
);
width = 502;
}
);
},
{
color = 5;
glyphname = D.ss02;
lastChange = "2023-10-31 13:25:37 +0000";
layers = (
{
layerId = "6F9C6BB4-2DCF-443B-A55D-9CE049090094";
shapes = (
{
closed = 0;
nodes = (
(57,700,l),
(314,700,l),
(513,700,o),
(601,578,o),
(601,435,cs),
(601,237,o),
(431,0,o),
(159,0,cs),
(132,0,o),
(130,12,o),
(131,39,cs),
(157,700,l)
);
}
);
width = 645;
}
);
},
{
color = 5;
glyphname = E.ss02;
lastChange = "2023-10-31 13:25:37 +0000";
layers = (
{
layerId = "6F9C6BB4-2DCF-443B-A55D-9CE049090094";
shapes = (
{
closed = 0;
nodes = (
(57,700,l),
(438,700,l)
);
},
{
closed = 0;
nodes = (
(426,0,l),
(159,0,l),
(132,0,o),
(130,12,o),
(131,39,cs),
(157,700,l)
);
},
{
closed = 0;
nodes = (
(141,344,l),
(398,344,l)
);
}
);
width = 494;
}
);
},
{
color = 5;
glyphname = F.ss02;
lastChange = "2023-10-31 13:25:37 +0000";
layers = (
{
layerId = "6F9C6BB4-2DCF-443B-A55D-9CE049090094";
shapes = (
{
closed = 0;
nodes = (
(57,700,l),
(438,700,l)
);
},
{
closed = 0;
nodes = (
(141,334,l),
(398,334,l)
);
},
{
closed = 0;
nodes = (
(157,701,l),
(131,0,l)
);
}
);
width = 495;
}
);
},
{
color = 5;
glyphname = G.ss02;
lastChange = "2023-10-31 13:25:37 +0000";
layers = (
{
layerId = "6F9C6BB4-2DCF-443B-A55D-9CE049090094";
shapes = (
{
closed = 0;
nodes = (
(591,151,l),
(578,88,o),
(329,-25,o),
(329,-244,cs),
(329,-305,o),
(351,-347,o),
(390,-347,cs),
(442,-347,o),
(443,-285,o),
(443,-104,cs),
(443,361,l),
(292,361,l)
);
},
{
closed = 0;
nodes = (
(427,679,l),
(381,691,o),
(300,700,o),
(265,700,cs),
(97,700,o),
(51,562,o),
(51,326,cs),
(51,80,o),
(143,0,o),
(246,0,cs),
(345,0,o),
(443,154,o),
(443,270,cs)
);
}
);
width = 591;
}
);
},
{
color = 5;
glyphname = H.ss02;
lastChange = "2023-10-31 13:25:37 +0000";
layers = (
{
layerId = "6F9C6BB4-2DCF-443B-A55D-9CE049090094";
shapes = (
{
closed = 0;
nodes = (
(59,320,l),
(576,320,l)
);
},
{
closed = 0;
nodes = (
(172,700,l),
(150,0,l)
);
},
{
closed = 0;
nodes = (
(749,150,ls),
(690,50,o),
(633,0,o),
(599,0,cs),
(566,0,o),
(565,38,o),
(568,119,cs),
(590,700,l)
);
}
);
width = 749;
}
);
},
{
color = 5;
glyphname = I.ss02;
lastChange = "2023-10-31 13:25:37 +0000";
layers = (
{
layerId = "6F9C6BB4-2DCF-443B-A55D-9CE049090094";
shapes = (
{
closed = 0;
nodes = (
(44,170,l),
(19,65,o),
(100,0,o),
(179,0,cs),
(258,0,o),
(334,65,o),
(339,212,cs),
(357,700,l),
(255,687,o),
(145,687,o),
(91,700,c)
);
}
);
width = 411;
}
);
},
{
color = 5;
glyphname = J.ss02;
lastChange = "2023-10-31 13:25:37 +0000";
layers = (
{
layerId = "6F9C6BB4-2DCF-443B-A55D-9CE049090094";
shapes = (
{
closed = 0;
nodes = (
(345,151,l),
(332,88,o),
(83,-25,o),
(83,-244,cs),
(83,-305,o),
(105,-347,o),
(144,-347,cs),
(196,-347,o),
(199,-285,o),
(197,-104,cs),
(195,51,o),
(190,206,o),
(197,361,cs),
(213,700,l),
(213,700,o),
(177,228,o),
(36,128,c)
);
}
);
width = 345;
}
);
},
{
color = 5;
glyphname = K.ss02;
lastChange = "2023-10-31 13:25:37 +0000";
layers = (
{
layerId = "6F9C6BB4-2DCF-443B-A55D-9CE049090094";
shapes = (
{
closed = 0;
nodes = (
(417,700,l),
(100,358,l),
(313,95,ls),
(347,53,o),
(404,0,o),
(456,0,cs),
(490,0,o),
(547,50,o),
(606,150,cs)
);
},
{
closed = 0;
nodes = (
(80,700,l),
(59,0,l)
);
}
);
width = 606;
}
);
},
{
color = 5;
glyphname = L.ss02;
lastChange = "2023-10-31 13:25:37 +0000";
layers = (
{
layerId = "6F9C6BB4-2DCF-443B-A55D-9CE049090094";
shapes = (
{
closed = 0;
nodes = (
(83,700,l),
(57,2,l),
(75,12,o),
(103,14,o),
(124,14,cs),
(209,14,o),
(185,0,o),
(270,0,cs),
(304,0,o),
(361,50,o),
(420,150,cs)
);
}
);
width = 420;
}
);
},
{
color = 5;
glyphname = M.ss02;
lastChange = "2023-10-31 13:25:37 +0000";
layers = (
{
layerId = "6F9C6BB4-2DCF-443B-A55D-9CE049090094";
shapes = (
{
closed = 0;
nodes = (
(38,0,l),
(209,700,l),
(360,83,l),
(696,700,l),
(697,189,o),
(682,0,o),
(739,0,cs)
);
},
{
closed = 0;
nodes = (
(845,150,ls),
(816,50,o),
(773,0,o),
(739,0,c)
);
}
);
width = 845;
}
);
},
{
color = 5;
glyphname = N.ss02;
lastChange = "2023-10-31 13:25:37 +0000";
layers = (
{
layerId = "6F9C6BB4-2DCF-443B-A55D-9CE049090094";
shapes = (
{
closed = 0;
nodes = (
(486,700,l),
(461,0,l),
(426,84,o),
(112,600,o),
(83,699,c),
(57,2,l)
);
}
);
width = 543;
}
);
},
{
color = 5;
glyphname = O.ss02;
lastChange = "2023-10-31 13:25:37 +0000";
layers = (
{
layerId = "6F9C6BB4-2DCF-443B-A55D-9CE049090094";
shapes = (
{
closed = 0;
nodes = (
(140,170,l),
(74,170,o),
(44,234,o),
(44,317,cs),
(44,474,o),
(148,700,o),
(323,700,cs),
(479,700,o),
(564,565,o),
(564,394,cs),
(564,205,o),
(458,0,o),
(268,0,cs),
(190,0,o),
(128,30,o),
(89,77,c)
);
}
);
width = 690;
}
);
},
{
color = 5;
glyphname = P.ss02;
lastChange = "2023-10-31 13:25:37 +0000";
layers = (
{
layerId = "6F9C6BB4-2DCF-443B-A55D-9CE049090094";
shapes = (
{
closed = 0;
nodes = (
(57,700,l),
(339,700,l),
(399,700,o),
(511,695,o),
(511,543,cs),
(511,354,o),
(301,286,o),
(221,286,c)
);
},
{
closed = 0;
nodes = (
(238,286,l)
);
},
{
closed = 0;
nodes = (
(157,-1,l),
(183,700,l)
);
}
);
width = 553;
}
);
},
{
color = 5;
glyphname = Q.ss02;
lastChange = "2023-10-31 13:25:37 +0000";
layers = (
{
layerId = "6F9C6BB4-2DCF-443B-A55D-9CE049090094";
shapes = (
{
closed = 0;
nodes = (
(68,200,l),
(50,216,o),
(45,251,o),
(45,317,cs),
(45,474,o),
(149,700,o),
(324,700,cs),
(480,700,o),
(565,565,o),
(565,394,cs),
(565,205,o),
(459,0,o),
(269,0,cs),
(191,0,o),
(109,64,o),
(109,100,cs),
(109,121,o),
(150,140,o),
(211,140,cs),
(319,140,o),
(491,79,o),
(607,-146,c)
);
}
);
width = 707;
}
);
},
{
color = 5;
glyphname = R.ss02;
lastChange = "2023-10-31 13:25:37 +0000";
layers = (
{
layerId = "6F9C6BB4-2DCF-443B-A55D-9CE049090094";
shapes = (
{
closed = 0;
nodes = (
(57,700,l),
(334,700,l),
(387,700,o),
(486,696,o),
(486,561,cs),
(486,394,o),
(329,292,o),
(231,338,c)
);
},
{
closed = 0;
nodes = (
(131,0,l),
(157,700,l)
);
},
{
closed = 0;
nodes = (
(198,378,l),
(410,95,ls),
(441,53,o),
(493,0,o),
(545,0,cs)
);
}
);
width = 581;
}
);
},
{
color = 5;
glyphname = S.ss02;
lastChange = "2023-10-31 13:25:37 +0000";
layers = (
{
hints = (
{
horizontal = 1;
origin = (0,12);
settings = {
deltaV = {
"{100, 100, 0, 0, 0, 0}" = {
"62" = 0;
};
};
};
type = TTDelta;
},
{
horizontal = 1;
origin = (0,11);
settings = {
deltaV = {
"{100, 100, 0, 0, 0, 0}" = {
"62" = 0;
};
};
};
type = TTDelta;
},
{
horizontal = 1;
origin = (0,10);
settings = {
deltaV = {
"{100, 100, 0, 0, 0, 0}" = {
"62" = 0;
};
};
};
type = TTDelta;
},
{
horizontal = 1;
origin = (0,9);
settings = {
deltaV = {
"{100, 100, 0, 0, 0, 0}" = {
"62" = 0;
};
};
};
type = TTDelta;
},
{
horizontal = 1;
origin = (0,8);
settings = {
deltaV = {
"{100, 100, 0, 0, 0, 0}" = {
"62" = 0;
};
};
};
type = TTDelta;
},
{
horizontal = 1;
origin = (0,7);
settings = {
deltaV = {
"{100, 100, 0, 0, 0, 0}" = {
"62" = 0;
};
};
};
type = TTDelta;
},
{
horizontal = 1;
origin = (0,6);
settings = {
deltaV = {
"{100, 100, 0, 0, 0, 0}" = {
"62" = 0;
};
};
};
type = TTDelta;
},
{
horizontal = 1;
origin = (0,5);
settings = {
deltaV = {
"{100, 100, 0, 0, 0, 0}" = {
"62" = 0;
};
};
};
type = TTDelta;
},
{
horizontal = 1;
origin = (0,4);
settings = {
deltaV = {
"{100, 100, 0, 0, 0, 0}" = {
"62" = 0;
};
};
};
type = TTDelta;
},
{
horizontal = 1;
origin = (0,3);
settings = {
deltaV = {
"{100, 100, 0, 0, 0, 0}" = {
"62" = 0;
};
};
};
type = TTDelta;
},
{
horizontal = 1;
origin = (0,2);
settings = {
deltaV = {
"{100, 100, 0, 0, 0, 0}" = {
"62" = 0;
};
};
};
type = TTDelta;
},
{
horizontal = 1;
origin = (0,1);
settings = {
deltaV = {
"{100, 100, 0, 0, 0, 0}" = {
"62" = 0;
};
};
};
type = TTDelta;
},
{
horizontal = 1;
origin = (0,0);
settings = {
deltaV = {
"{100, 100, 0, 0, 0, 0}" = {
"62" = 0;
};
};
};
type = TTDelta;
}
);
layerId = "6F9C6BB4-2DCF-443B-A55D-9CE049090094";
shapes = (
{
closed = 0;
nodes = (
(309,623,l),
(306,671,o),
(270,700,o),
(214,700,cs),
(128,700,o),
(42,638,o),
(28,565,cs),
(-15,355,o),
(385,361,o),
(344,150,cs),
(326,66,o),
(227,0,o),
(117,0,cs),
(84,0,o),
(49,13,o),
(35,31,c)
);
},
{
closed = 0;
nodes = (
(88,3,ls),
(301,-33,o),
(449,50,o),
(501,150,cs)
);
}
);
width = 501;
}
);
},
{
color = 5;
glyphname = T.ss02;
lastChange = "2023-10-31 13:25:37 +0000";
layers = (
{
layerId = "6F9C6BB4-2DCF-443B-A55D-9CE049090094";
shapes = (
{
closed = 0;
nodes = (
(319,700,l),
(294,0,l)
);
},
{
closed = 0;
nodes = (
(36,701,l),
(576,700,l)
);
}
);
width = 611;
}
);
},
{
color = 5;
glyphname = U.ss02;
lastChange = "2023-10-31 13:25:37 +0000";
layers = (
{
layerId = "6F9C6BB4-2DCF-443B-A55D-9CE049090094";
shapes = (
{
closed = 0;
nodes = (
(532,0,l),
(499,0,o),
(498,38,o),
(501,119,cs),
(523,700,l)
);
},
{
closed = 0;
nodes = (
(149,700,l),
(132,173,ls),
(129,68,o),
(187,0,o),
(259,0,cs),
(335,0,o),
(440,105,o),
(506,230,c)
);
},
{
closed = 0;
nodes = (
(638,150,ls),
(609,50,o),
(566,0,o),
(532,0,c)
);
}
);
width = 638;
}
);
},
{
color = 5;
glyphname = V.ss02;
lastChange = "2023-10-31 13:25:37 +0000";
layers = (
{
layerId = "6F9C6BB4-2DCF-443B-A55D-9CE049090094";
shapes = (
{
closed = 0;
nodes = (
(39,700,l),
(192,0,l),
(258,78,o),
(478,455,o),
(445,700,cs)
);
}
);
width = 492;
}
);
},
{
color = 5;
glyphname = W.ss02;
lastChange = "2023-10-31 13:25:37 +0000";
layers = (
{
layerId = "6F9C6BB4-2DCF-443B-A55D-9CE049090094";
shapes = (
{
closed = 0;
nodes = (
(39,700,l),
(192,0,l),
(258,78,o),
(478,455,o),
(445,700,c),
(598,0,l),
(664,78,o),
(884,455,o),
(851,700,cs)
);
}
);
width = 898;
}
);
},
{
color = 5;
glyphname = X.ss02;
lastChange = "2023-10-31 13:25:37 +0000";
layers = (
{
layerId = "6F9C6BB4-2DCF-443B-A55D-9CE049090094";
shapes = (
{
closed = 0;
nodes = (
(101,0,l),
(552,700,l)
);
},
{
closed = 0;
nodes = (
(567,0,l),
(527,0,o),
(254,470,o),
(121,700,c)
);
},
{
closed = 0;
nodes = (
(673,150,ls),
(644,50,o),
(601,0,o),
(567,0,c)
);
}
);
width = 673;
}
);
},
{
color = 5;
glyphname = Y.ss02;
lastChange = "2023-10-31 13:25:37 +0000";
layers = (
{
layerId = "6F9C6BB4-2DCF-443B-A55D-9CE049090094";
shapes = (
{
closed = 0;
nodes = (
(79,705,l),
(61,173,ls),
(57,68,o),
(65,0,o),
(137,0,cs),
(213,0,o),
(371,192,o),
(437,317,c)
);
},
{
closed = 0;
nodes = (
(585,151,l),
(572,88,o),
(323,-25,o),
(323,-244,cs),
(323,-305,o),
(345,-347,o),
(384,-347,cs),
(436,-347,o),
(439,-285,o),
(437,-104,cs),
(435,51,o),
(430,206,o),
(437,361,cs),
(453,700,l)
);
}
);
width = 585;
}
);
},
{
color = 5;
glyphname = Z.ss02;
lastChange = "2023-10-31 13:25:37 +0000";
layers = (
{
layerId = "6F9C6BB4-2DCF-443B-A55D-9CE049090094";
shapes = (
{
closed = 0;
nodes = (
(44,-7,l),
(103,26,o),
(397,0,o),
(464,0,cs),
(498,0,o),
(555,50,o),
(614,150,cs)
);
},
{
closed = 0;
nodes = (
(518,733,l),
(19,-40,l)
);
},
{
closed = 0;
nodes = (
(26,700,l),
(497,700,l)
);
}
);
width = 614;
}
);
},
{
glyphname = A.ss03;
lastChange = "2023-10-31 13:25:37 +0000";
layers = (
{
background = {
shapes = (
{
closed = 0;
nodes = (
(443,248,l),
(728,248,l)
);
},
{
closed = 0;
nodes = (
(752,700,l),
(472,261,o),
(307,1,o),
(183,1,cs),
(37,8,o),
(33,141,o),
(187,141,cs),
(271,141,o),
(403,80,o),
(493,-145,c)
);
},
{
closed = 0;
nodes = (
(950,230,l),
(888,83,o),
(794,0,o),
(759,0,cs),
(713,0,o),
(721,147,o),
(740,476,cs),
(744,552,o),
(747,604,o),
(752,700,c),
(676,700,o),
(594,682,o),
(525,667,cs),
(416,643,o),
(341,626,o),
(378,700,c)
);
}
);
};
layerId = "6F9C6BB4-2DCF-443B-A55D-9CE049090094";
shapes = (
{
closed = 0;
nodes = (
(443,248,l),
(728,248,l)
);
},
{
closed = 0;
nodes = (
(752,700,l),
(376,141,o),
(292,1,o),
(164,1,c),
(104,4,o),
(73,40,o),
(73,74,cs),
(73,108,o),
(110,141,o),
(187,141,cs),
(271,141,o),
(403,80,o),
(493,-145,c)
);
},
{
closed = 0;
nodes = (
(950,230,l),
(888,83,o),
(794,0,o),
(759,0,cs),
(713,0,o),
(721,147,o),
(740,476,cs),
(752,700,l),
(676,700,o),
(594,682,o),
(525,667,cs),
(416,643,o),
(281,604,o),
(241,700,c)
);
}
);
width = 945;
}
);
},
{
glyphname = C.ss03;
lastChange = "2023-10-31 13:25:37 +0000";
layers = (
{
background = {
shapes = (
{
closed = 0;
nodes = (
(600,230,l),
(524,105,o),
(404,0,o),
(316,0,cs),
(234,0,o),
(177,84,o),
(170,213,cs),
(159,415,o),
(234,700,o),
(372,700,cs),
(510,700,o),
(576,714,o),
(576,610,cs),
(576,501,o),
(430,411,o),
(310,411,cs),
(230,411,o),
(143,449,o),
(72,562,c)
);
}
);
};
layerId = "6F9C6BB4-2DCF-443B-A55D-9CE049090094";
shapes = (
{
closed = 0;
nodes = (
(600,230,l),
(524,105,o),
(404,0,o),
(316,0,cs),
(234,0,o),
(177,84,o),
(170,213,cs),
(155,490,o),
(309,697,o),
(504,697,cs),
(547,697,o),
(577,671,o),
(577,612,cs),
(578,487,o),
(437,412,o),
(291,412,cs),
(211,412,o),
(130,434,o),
(70,484,c)
);
}
);
width = 595;
}
);
},
{
glyphname = H.ss03;
lastChange = "2023-10-31 13:25:37 +0000";
layers = (
{
background = {
shapes = (
{
closed = 0;
nodes = (
(299,350,l),
(713,350,l)
);
},
{
closed = 0;
nodes = (
(927,230,l),
(865,83,o),
(771,0,o),
(736,0,cs),
(703,0,o),
(702,38,o),
(705,119,cs),
(727,630,ls),
(729,684,o),
(721,793,o),
(777,793,cs),
(801,793,o),
(819,773,o),
(819,750,cs),
(819,576,o),
(299,829,o),
(194,829,cs),
(149,829,o),
(129,738,o),
(157,684,c)
);
},
{
closed = 0;
nodes = (
(310,653,l),
(293,192,ls),
(289,90,o),
(254,0,o),
(173,1,cs),
(107,2,o),
(73,37,o),
(73,72,cs),
(73,107,o),
(110,141,o),
(187,141,cs),
(271,141,o),
(403,80,o),
(493,-145,c)
);
}
);
};
layerId = "6F9C6BB4-2DCF-443B-A55D-9CE049090094";
shapes = (
{
closed = 0;
nodes = (
(299,350,l),
(713,350,l)
);
},
{
closed = 0;
nodes = (
(927,230,l),
(865,83,o),
(771,0,o),
(736,0,cs),
(703,0,o),
(702,38,o),
(705,119,cs),
(727,630,ls),
(729,684,o),
(721,793,o),
(777,793,cs),
(801,793,o),
(819,773,o),
(819,750,cs),
(819,705,o),
(786,689,o),
(733,689,cs),
(587,689,o),
(362,817,o),
(222,817,cs),
(178,817,o),
(141,805,o),
(118,771,c)
);
},
{
closed = 0;
nodes = (
(310,653,l),
(293,192,ls),
(289,90,o),
(254,0,o),
(173,1,cs),
(107,2,o),
(73,37,o),
(73,72,cs),
(73,107,o),
(110,141,o),
(187,141,cs),
(271,141,o),
(403,80,o),
(493,-145,c)
);
}
);
width = 922;
}
);
},
{
glyphname = L.ss03;
lastChange = "2023-10-31 13:25:37 +0000";
layers = (
{
layerId = "6F9C6BB4-2DCF-443B-A55D-9CE049090094";
shapes = (
{
closed = 0;
nodes = (
(458,0,l),
(191,0,ls),
(164,0,o),
(162,12,o),
(163,39,cs),
(184,588,ls),
(188,699,o),
(182,700,o),
(88,700,c)
);
}
);
width = 546;
}
);
},
{
glyphname = M.ss03;
lastChange = "2023-10-31 13:25:37 +0000";
layers = (
{
background = {
shapes = (
{
closed = 0;
nodes = (
(1264,230,l),
(1202,83,o),
(1108,0,o),
(1073,0,cs),
(1016,0,o),
(1040,189,o),
(1066,700,c),
(931,273,o),
(781,104,o),
(715,54,c),
(660,144,o),
(597,335,o),
(581,700,c),
(375,113,ls),
(346,30,o),
(313,1,o),
(244,1,cs),
(166,1,o),
(84,65,o),
(84,101,cs),
(84,159,o),
(401,206,o),
(582,-145,c)
);
}
);
};
layerId = "6F9C6BB4-2DCF-443B-A55D-9CE049090094";
shapes = (
{
closed = 0;
nodes = (
(1264,230,l),
(1202,83,o),
(1108,0,o),
(1073,0,cs),
(1016,0,o),
(1040,189,o),
(1066,700,c),
(931,273,o),
(781,104,o),
(715,54,c),
(660,144,o),
(597,335,o),
(581,700,c),
(380,128,o),
(363,-8,o),
(182,1,cs),
(36,8,o),
(32,141,o),
(186,141,cs),
(270,141,o),
(402,80,o),
(492,-145,c)
);
},
{
closed = 0;
nodes = (
(581,700,l),
(522,700,o),
(458,682,o),
(404,667,cs),
(319,643,o),
(213,604,o),
(182,700,c)
);
}
);
width = 1259;
}
);
},
{
glyphname = T.ss03;
lastChange = "2023-10-31 13:25:37 +0000";
layers = (
{
background = {
shapes = (
{
closed = 0;
nodes = (
(128,634,l),
(108,692,o),
(156,709,o),
(197,709,cs),
(309,709,o),
(443,690,o),
(537,690,cs),
(578,690,o),
(626,707,o),
(606,765,c)
);
},
{
closed = 0;
nodes = (
(402,700,l),
(377,0,l)
);
}
);
};
layerId = "6F9C6BB4-2DCF-443B-A55D-9CE049090094";
shapes = (
{
closed = 0;
nodes = (
(77,634,l),
(57,692,o),
(105,709,o),
(146,709,cs),
(284,709,o),
(449,690,o),
(566,690,cs),
(632,690,o),
(658,732,o),
(618,759,c)
);
},
{
closed = 0;
nodes = (
(367,700,l),
(342,0,l)
);
}
);
width = 702;
}
);
},
{
color = 0;
glyphname = a;
kernLeft = lc_round;
lastChange = "2023-11-21 09:52:07 +0000";
layers = (
{
anchors = (
{
name = bottom;
pos = (264,0);
},
{
name = ogonek;
pos = (474,10);
},
{
name = top;
pos = (178,360);
}
);
background = {
anchors = (
{
name = bottom;
pos = (264,0);
},
{
name = ogonek;
pos = (474,10);
},
{
name = top;
pos = (178,360);
}
);
shapes = (
{
alignment = -1;
pos = (3,0);
ref = _part.bucle;
},
{
attr = {
identifier = ID0x7f7de989f3a0;
lineCapEnd = "1";
lineCapStart = "1";
strokeHeight = 45;
strokeWidth = 40;
};
closed = 0;
nodes = (
(291,357,l),
(291,100,ls),
(291,29,o),
(326,-5,o),
(370,-5,cs),
(431,-5,o),
(509,58,o),
(546,179,c)
);
}
);
};
layerId = "6F9C6BB4-2DCF-443B-A55D-9CE049090094";
shapes = (
{
ref = _a.base;
},
{
pos = (392,0);
ref = _trazo.mitte;
}
);
width = 530;
}
);
unicode = 97;
},
{
color = 0;
glyphname = c;
kernLeft = lc_round;
lastChange = "2023-11-21 09:52:07 +0000";
layers = (
{
anchors = (
{
name = bottom;
pos = (98,0);
},
{
name = top;
pos = (188,360);
}
);
background = {
shapes = (
{
attr = {
identifier = ID0x7fba9c16c3a0;
lineCapEnd = 1;
lineCapStart = 1;
strokeHeight = 45;
strokeWidth = 40;
};
closed = 0;
nodes = (
(279,355,l),
(248,368,o),
(217,374,o),
(188,374,cs),
(94,374,o),
(20,309,o),
(20,180,cs),
(20,-71,o),
(369,-79,o),
(389,179,c)
);
}
);
};
layerId = "6F9C6BB4-2DCF-443B-A55D-9CE049090094";
shapes = (
{
attr = {
identifier = ID0x7fba9c16c3a0;
lineCapEnd = 1;
lineCapStart = 1;
};
closed = 0;
nodes = (
(212,-11,l),
(302,-11,o),
(364,60,o),
(400,179,c)
);
},
{
ref = _c.base;
}
);
width = 380;
}
);
metricLeft = a;
metricRight = a;
unicode = 99;
},
{
color = 0;
glyphname = d;
kernLeft = lc_round;
lastChange = "2023-11-10 12:20:06 +0000";
layers = (
{
background = {
shapes = (
{
alignment = -1;
pos = (13,0);
ref = _part.bucle;
},
{
attr = {
identifier = ID0x7f7df175ae00;
lineCapEnd = "1";
lineCapStart = "1";
strokeHeight = 45;
strokeWidth = 40;
};
closed = 0;
nodes = (
(301,679,l),
(301,100,ls),
(301,33,o),
(341,-5,o),
(387,-5,cs),
(446,-5,o),
(511,53,o),
(557,179,c)
);
}
);
};
layerId = "6F9C6BB4-2DCF-443B-A55D-9CE049090094";
shapes = (
{
ref = _d.base;
},
{
pos = (392,0);
ref = _trazo.mitte;
}
);
width = 530;
}
);
metricLeft = a;
metricRight = a;
unicode = 100;
},
{
color = 0;
glyphname = e;
kernLeft = lc_round;
lastChange = "2023-11-21 09:53:36 +0000";
layers = (
{
anchors = (
{
name = bottom;
pos = (162,0);
},
{
name = ogonek;
pos = (310,10);
},
{
name = top;
pos = (122,360);
}
);
background = {
anchors = (
{
name = bottom;
pos = (162,0);
},
{
name = ogonek;
pos = (310,10);
},
{
name = top;
pos = (122,360);
}
);
shapes = (
{
attr = {
identifier = ID0x7f9d1baad8f0;
lineCapEnd = "1";
lineCapStart = "1";
};
closed = 0;
nodes = (
(21,52,l),
(91,113,o),
(130,206,o),
(130,274,cs),
(130,332,o),
(98,363,o),
(63,363,cs),
(19,363,o),
(-30,315,o),
(-30,221,cs),
(-30,118,o),
(26,-5,o),
(125,-5,cs),
(207,-5,o),
(291,58,o),
(339,179,c)
);
},
{
pos = (160,0);
ref = _trazo.mitte;
}
);
};
layerId = "6F9C6BB4-2DCF-443B-A55D-9CE049090094";
shapes = (
{
ref = _e.base;
},
{
closed = 0;
nodes = (
(126,-5,l),
(208,-5,o),
(292,59,o),
(340,180,c)
);
}
);
width = 320;
}
);
metricRight = a;
unicode = 101;
},
{
color = 0;
glyphname = f;
lastChange = "2023-11-21 09:52:07 +0000";
layers = (
{
anchors = (
{
name = bottom;
pos = (107,0);
},
{
name = top;
pos = (107,710);
}
);
background = {
shapes = (
{
attr = {
identifier = ID0x7ff03cfdb690;
lineCapEnd = "1";
lineCapStart = "1";
strokeHeight = 45;
strokeWidth = 40;
};
closed = 0;
nodes = (
(23,178,l),
(64,289,o),
(114,450,o),
(114,573,cs),
(114,652,o),
(97,709,o),
(53,709,cs),
(1,709,o),
(-16,639,o),
(-16,539,cs),
(-16,322,o),
(67,-39,o),
(67,-146,cs),
(67,-302,o),
(35,-354,o),
(2,-354,cs),
(-29,-354,o),
(-61,-303,o),
(-61,-250,cs),
(-61,-20,o),
(158,-55,o),
(239,179,c)
);
}
);
};
layerId = "6F9C6BB4-2DCF-443B-A55D-9CE049090094";
shapes = (
{
ref = _f.base;
},
{
closed = 0;
nodes = (
(63,-33,ls),
(116,1,o),
(194,58,o),
(235,179,c)
);
}
);
width = 215;
}
);
metricRight = a;
unicode = 102;
},
{
color = 0;
glyphname = g;
lastChange = "2023-11-21 09:52:07 +0000";
layers = (
{
background = {
shapes = (
{
alignment = -1;
ref = _part.bucle;
},
{
attr = {
identifier = ID0x7f8325d1d8d0;
lineCapEnd = "1";
lineCapStart = "1";
};
closed = 0;
nodes = (
(288,357,l),
(288,150,l)
);
},
{
pos = (308,0);
ref = _bucle.decendente;
}
);
};
guides = (
{
angle = 90;
pos = (113,74);
}
);
layerId = "6F9C6BB4-2DCF-443B-A55D-9CE049090094";
shapes = (
{
alignment = -1;
ref = _g.base;
},
{
pos = (308,0);
ref = _bucle.descendente.conecta.mitte;
}
);
width = 475;
}
);
metricLeft = a;
metricRight = a;
unicode = 103;
},
{
color = 0;
glyphname = h;
lastChange = "2023-11-11 16:43:17 +0000";
layers = (
{
anchors = (
{
name = bottom;
pos = (247,0);
},
{
name = center;
pos = (247,710);
},
{
name = top;
pos = (247,710);
}
);
background = {
anchors = (
{
name = bottom;
pos = (247,0);
},
{
name = center;
pos = (247,710);
},
{
name = top;
pos = (247,710);
}
);
shapes = (
{
pos = (1,0);
ref = _bucle.ascendente.h;
},
{
pos = (362,0);
ref = _trazo.mitte;
},
{
attr = {
identifier = ID0x7f8325d1e2e0;
lineCapEnd = "1";
lineCapStart = "1";
};
closed = 0;
nodes = (
(388,-5,l),
(332,-5,o),
(312,33,o),
(312,100,cs),
(312,237,ls),
(312,326,o),
(281,360,o),
(232,360,cs),
(181,360,o),
(94,291,o),
(41,77,c)
);
}
);
};
layerId = "6F9C6BB4-2DCF-443B-A55D-9CE049090094";
shapes = (
{
ref = _h.base;
},
{
pos = (383,0);
ref = _trazo.mitte;
}
);
width = 521;
}
);
metricRight = a;
unicode = 104;
},
{
glyphname = idotless;
lastChange = "2023-11-21 15:17:06 +0000";
layers = (
{
anchors = (
{
name = bottom;
pos = (85,0);
},
{
name = ogonek;
pos = (273,0);
},
{
name = top;
pos = (0,360);
}
);
background = {
shapes = (
{
attr = {
identifier = ID0x7ff0482cad10;
lineCapEnd = 1;
lineCapStart = 1;
};
closed = 0;
nodes = (
(-6,360,l),
(-20,267,o),
(-46,180,o),
(-46,180,cs)
);
},
{
attr = {
identifier = ID0x7f8325d1efa0;
lineCapEnd = "1";
lineCapStart = "1";
};
closed = 0;
nodes = (
(-3,360,l),
(-3,150,ls)
);
}
);
};
layerId = "6F9C6BB4-2DCF-443B-A55D-9CE049090094";
shapes = (
{
alignment = -1;
ref = _conector.glifo.salida;
},
{
attr = {
identifier = ID0x7fe6d54b4b70;
lineCapEnd = "1";
lineCapStart = "1";
};
closed = 0;
nodes = (
(0,360,l),
(0,150,l)
);
}
);
width = 101;
}
);
unicode = 305;
},
{
color = 0;
glyphname = k;
lastChange = "2023-11-21 09:52:07 +0000";
layers = (
{
background = {
shapes = (
{
alignment = -1;
pos = (229,0);
ref = _trazo.mitte;
}
);
};
layerId = "6F9C6BB4-2DCF-443B-A55D-9CE049090094";
shapes = (
{
ref = _k.base;
},
{
attr = {
identifier = ID0x7f8323181190;
lineCapEnd = "1";
lineCapStart = "1";
};
closed = 0;
nodes = (
(389,179,l),
(342,38,o),
(322,-5,o),
(281,-5,c)
);
}
);
width = 369;
}
);
metricRight = a;
unicode = 107;
},
{
color = 0;
glyphname = m;
lastChange = "2023-11-10 12:20:47 +0000";
layers = (
{
background = {
shapes = (
{
closed = 0;
nodes = (
(396,191,l),
(401,305,o),
(444,360,o),
(498,360,cs),
(557,360,o),
(590,316,o),
(590,227,cs),
(590,100,ls),
(590,30,o),
(613,0,o),
(643,0,c)
);
},
{
closed = 0;
nodes = (
(207,0,l),
(207,227,ls),
(207,316,o),
(189,360,o),
(133,360,cs),
(51,360,o),
(42,281,o),
(6,150,c)
);
},
{
closed = 0;
nodes = (
(396,0,l),
(396,227,ls),
(396,316,o),
(378,360,o),
(317,360,cs),
(253,360,o),
(212,308,o),
(207,192,cs)
);
}
);
};
guides = (
{
pos = (276,191);
}
);
layerId = "6F9C6BB4-2DCF-443B-A55D-9CE049090094";
shapes = (
{
ref = _m.base;
},
{
pos = (781,0);
ref = _trazo.mitte;
}
);
width = 919;
}
);
metricLeft = a;
metricRight = a;
unicode = 109;
},
{
color = 0;
glyphname = n;
lastChange = "2023-11-21 08:26:21 +0000";
layers = (
{
anchors = (
{
name = bottom;
pos = (315,0);
},
{
name = top;
pos = (261,360);
}
);
background = {
shapes = (
{
attr = {
lineCapEnd = 1;
lineCapStart = 1;
strokeHeight = 40;
strokeWidth = 35;
};
closed = 0;
nodes = (
(522,171,l),
(527,305,o),
(591,360,o),
(645,360,cs),
(703,360,o),
(726,327,o),
(726,237,cs),
(726,100,ls),
(726,30,o),
(749,0,o),
(779,0,c)
);
},
{
attr = {
lineCapEnd = 1;
lineCapStart = 1;
strokeHeight = 40;
strokeWidth = 35;
};
closed = 0;
nodes = (
(522,0,l),
(522,227,ls),
(522,316,o),
(494,360,o),
(442,360,cs),
(390,360,o),
(359,328,o),
(359,226,cs),
(359,213,o),
(359,162,o),
(359,150,cs)
);
},
{
attr = {
lineCapEnd = 1;
lineCapStart = 1;
strokeHeight = 40;
strokeWidth = 35;
};
closed = 0;
nodes = (
(779,0,l),
(816,0,o),
(861,37,o),
(906,88,c)
);
}
);
};
guides = (
{
pos = (389,268);
}
);
layerId = "6F9C6BB4-2DCF-443B-A55D-9CE049090094";
shapes = (
{
ref = _n.base;
},
{
pos = (547,0);
ref = _trazo.mitte;
}
);
width = 685;
}
);
metricRight = a;
unicode = 110;
},
{
color = 1;
glyphname = o;
lastChange = "2023-11-21 10:07:09 +0000";
layers = (
{
background = {
shapes = (
{
closed = 0;
nodes = (
(490,180,l),
(412,34,o),
(171,141,o),
(171,295,cs)
);
}
);
};
guides = (
{
angle = 90;
pos = (474,72);
}
);
layerId = "6F9C6BB4-2DCF-443B-A55D-9CE049090094";
shapes = (
{
ref = _o.base;
},
{
closed = 0;
nodes = (
(490,180,l),
(474,139,o),
(446,119,o),
(394,119,cs),
(271,119,o),
(171,181,o),
(171,295,cs)
);
}
);
width = 470;
}
);
metricRight = a;
unicode = 111;
},
{
color = 0;
glyphname = s;
lastChange = "2023-11-21 09:52:07 +0000";
layers = (
{
anchors = (
{
name = bottom;
pos = (210,0);
},
{
name = ogonek;
pos = (474,10);
},
{
name = top;
pos = (210,360);
}
);
background = {
shapes = (
{
alignment = -1;
pos = (261,0);
ref = _trazo.mitte;
}
);
};
layerId = "6F9C6BB4-2DCF-443B-A55D-9CE049090094";
shapes = (
{
attr = {
lineCapEnd = "1";
lineCapStart = "1";
};
closed = 0;
nodes = (
(48,29,l),
(147,-14,o),
(375,-59,o),
(440,180,c)
);
},
{
ref = _s.base;
}
);
width = 420;
}
);
metricRight = a;
unicode = 115;
},
{
color = 0;
glyphname = w;
kernLeft = lc_o;
kernRight = lc_o;
lastChange = "2023-11-15 15:36:10 +0000";
layers = (
{
background = {
anchors = (
{
name = bottom;
pos = (127,0);
},
{
name = top;
pos = (127,360);
}
);
shapes = (
{
attr = {
identifier = ID0x7f88630096e0;
lineCapEnd = 1;
lineCapStart = 1;
strokeHeight = 45;
strokeWidth = 40;
};
closed = 0;
nodes = (
(149,355,l),
(149,170,ls),
(149,82,o),
(100,-5,o),
(20,-5,cs)
);
},
{
alignment = -1;
pos = (232,0);
ref = _trazo.salida.b;
},
{
attr = {
lineCapEnd = 1;
lineCapStart = 1;
strokeHeight = 45;
strokeWidth = 40;
};
closed = 0;
nodes = (
(246,-5,l),
(166,-5,o),
(149,61,o),
(149,100,cs),
(149,170,l)
);
},
{
alignment = -1;
pos = (-277,0);
ref = _arco.v;
}
);
};
guides = (
{
angle = 85;
lockAngle = 1;
pos = (-30,227);
}
);
layerId = "6F9C6BB4-2DCF-443B-A55D-9CE049090094";
shapes = (
{
ref = _w.base;
},
{
pos = (523,0);
ref = _trazo.salida.b;
}
);
width = 773;
}
);
metricLeft = v;
unicode = 119;
},
{
color = 0;
glyphname = x;
lastChange = "2023-11-21 09:52:07 +0000";
layers = (
{
background = {
anchors = (
{
name = bottom;
pos = (210,0);
},
{
name = ogonek;
pos = (474,10);
},
{
name = top;
pos = (210,360);
}
);
shapes = (
{
attr = {
identifier = ID0x7fe6d52dd750;
lineCapEnd = "1";
lineCapStart = "1";
};
closed = 0;
nodes = (
(69,369,l),
(190,286,o),
(300,234,o),
(292,121,cs),
(285,19,o),
(198,-49,o),
(48,29,c)
);
},
{
attr = {
identifier = ID0x7fe6d52dd750;
lineCapEnd = "1";
lineCapStart = "1";
};
closed = 0;
nodes = (
(20,180,l),
(47,262,o),
(59,329,o),
(67,370,c)
);
},
{
pos = (271,0);
ref = c;
}
);
};
layerId = "6F9C6BB4-2DCF-443B-A55D-9CE049090094";
shapes = (
{
ref = _x.base;
},
{
attr = {
identifier = ID0x7fb986e1b620;
lineCapEnd = "1";
lineCapStart = "1";
};
closed = 0;
nodes = (
(502,-5,l),
(587,-5,o),
(650,58,o),
(690,180,c)
);
}
);
width = 670;
}
);
metricLeft = a;
metricRight = a;
unicode = 120;
},
{
color = 0;
glyphname = y;
lastChange = "2023-11-20 17:26:42 +0000";
layers = (
{
background = {
shapes = (
{
closed = 0;
nodes = (
(341,360,l),
(338,270,ls),
(332,102,o),
(260,1,o),
(201,1,cs),
(163,1,o),
(131,25,o),
(131,90,c)
);
},
{
pos = (15,0);
ref = trazo.entrada.curvo;
},
{
pos = (214,0);
ref = bucle.descendente;
}
);
};
layerId = "6F9C6BB4-2DCF-443B-A55D-9CE049090094";
shapes = (
{
ref = _y.base;
},
{
pos = (353,0);
ref = _bucle.descendente.conecta.mitte;
}
);
width = 520;
}
);
metricLeft = a;
metricRight = a;
unicode = 121;
},
{
color = 0;
glyphname = z;
lastChange = "2023-11-21 09:52:07 +0000";
layers = (
{
anchors = (
{
name = bottom;
pos = (215,0);
},
{
name = center;
pos = (215,180);
},
{
name = top;
pos = (215,360);
}
);
background = {
shapes = (
{
ref = r;
}
);
};
layerId = "6F9C6BB4-2DCF-443B-A55D-9CE049090094";
shapes = (
{
ref = _z.base;
},
{
closed = 0;
nodes = (
(277,-38,ls),
(345,9,o),
(419,60,o),
(454,180,c)
);
}
);
width = 434;
}
);
metricRight = a;
unicode = 122;
},
{
glyphname = x.alt;
lastChange = "2023-11-21 09:52:07 +0000";
layers = (
{
background = {
shapes = (
{
attr = {
identifier = ID0x7faded1a7c00;
lineCapEnd = 1;
lineCapStart = 1;
strokeHeight = 45;
strokeWidth = 40;
};
closed = 0;
nodes = (
(103,360,l),
(103,223,o),
(276,249,o),
(276,109,cs),
(276,54,o),
(236,8,o),
(180,8,cs),
(180,8,o),
(106,57,o),
(96,29,c),
(124,15,o),
(154,14,o),
(180,8,cs)
);
},
{
attr = {
identifier = ID0x7faded1a7c00;
lineCapEnd = 1;
lineCapStart = 1;
strokeHeight = 45;
strokeWidth = 40;
};
closed = 0;
nodes = (
(-110,-4,l),
(18,-4,o),
(88,305,o),
(105,370,c)
);
},
{
attr = {
identifier = ID0x7fade9b16650;
lineCapEnd = 1;
lineCapStart = 1;
strokeHeight = 45;
strokeWidth = 40;
};
closed = 0;
nodes = (
(532,355,l),
(501,368,o),
(470,374,o),
(441,374,cs),
(347,374,o),
(273,309,o),
(273,180,cs),
(273,-71,o),
(622,-79,o),
(642,179,c)
);
}
);
};
layerId = "6F9C6BB4-2DCF-443B-A55D-9CE049090094";
shapes = (
{
attr = {
identifier = ID0x7fadcf563cc0;
lineCapEnd = 1;
lineCapStart = 1;
strokeHeight = 45;
strokeWidth = 40;
};
closed = 0;
nodes = (
(40,179,l),
(50,325,o),
(115,360,o),
(174,360,cs),
(264,360,o),
(323,307,o),
(323,180,cs),
(323,51,o),
(276,-15,o),
(154,21,c)
);
},
{
pos = (306,0);
ref = c;
}
);
width = 686;
}
);
metricLeft = a;
metricRight = a;
},
{
color = 0;
glyphname = y.alt;
lastChange = "2023-11-21 09:52:07 +0000";
layers = (
{
anchors = (
{
name = bottom;
pos = (92,0);
},
{
name = ogonek;
pos = (473,10);
},
{
name = top;
pos = (92,360);
},
{
name = topright;
pos = (506,360);
}
);
background = {
shapes = (
{
attr = {
identifier = ID0x7f88617b8650;
lineCapEnd = 1;
lineCapStart = 1;
strokeHeight = 45;
strokeWidth = 40;
};
closed = 0;
nodes = (
(440,170,l),
(440,82,o),
(387,-5,o),
(301,-5,cs)
);
}
);
};
layerId = "6F9C6BB4-2DCF-443B-A55D-9CE049090094";
shapes = (
{
alignment = -1;
pos = (20,0);
ref = _arco.v;
},
{
pos = (212,0);
ref = _conector.glifo.salida;
},
{
alignment = -1;
pos = (349,0);
ref = _bucle.decendente;
},
{
attr = {
identifier = ID0x7fe6d36a8790;
lineCapEnd = "1";
lineCapStart = "1";
};
closed = 0;
nodes = (
(473,360,l),
(473,150,l)
);
},
{
attr = {
identifier = ID0x7fe6d36a8790;
lineCapEnd = 1;
lineCapStart = 1;
};
closed = 0;
nodes = (
(472,150,l),
(446,55,o),
(376,-6,o),
(313,-5,cs)
);
}
);
width = 470;
}
);
metricRight = a;
},
{
glyphname = z.alt;
lastChange = "2023-11-10 09:56:02 +0000";
layers = (
{
background = {
shapes = (
{
closed = 0;
nodes = (
(5,230,l),
(27,279,o),
(40,319,o),
(53,360,c),
(108,341,o),
(215,333,o),
(303,360,c),
(6,1,l),
(81,2,o),
(124,0,o),
(213,0,cs),
(248,0,o),
(342,83,o),
(404,230,c)
);
}
);
};
layerId = "6F9C6BB4-2DCF-443B-A55D-9CE049090094";
shapes = (
{
closed = 0;
nodes = (
(5,230,l),
(27,279,o),
(40,319,o),
(53,360,c),
(108,353,o),
(215,354,o),
(303,360,c),
(0,0,l),
(71,0,o),
(171,0,o),
(227,0,c),
(262,9,o),
(352,83,o),
(414,230,c)
);
}
);
width = 409;
}
);
},
{
color = 0;
glyphname = o.alta;
kernLeft = lc_o;
kernRight = lc_o;
lastChange = "2023-11-10 13:39:52 +0000";
layers = (
{
anchors = (
{
name = bottom;
pos = (215,0);
},
{
name = center;
pos = (215,180);
},
{
name = ogonek;
pos = (386,10);
},
{
name = top;
pos = (155,360);
},
{
name = topright;
pos = (409,360);
}
);
background = {
shapes = (
{
attr = {
identifier = ID0x7f885f9429a0;
lineCapEnd = 1;
lineCapStart = 1;
};
closed = 0;
nodes = (
(161,364,l),
(61,364,o),
(20,261,o),
(20,178,cs),
(20,86,o),
(74,-6,o),
(164,-6,cs),
(239,-6,o),
(314,61,o),
(314,180,cs),
(314,287,o),
(248,364,o),
(161,364,c)
);
},
{
closed = 1;
nodes = (
(139,360,l),
(139,309,l)
);
},
{
attr = {
identifier = ID0x7f9d1bb32da0;
lineCapEnd = 1;
lineCapStart = 1;
};
closed = 0;
nodes = (
(121,347,l),
(111,150,o),
(316,161,o),
(472,300,c)
);
}
);
};
layerId = "6F9C6BB4-2DCF-443B-A55D-9CE049090094";
shapes = (
{
attr = {
identifier = ID0x7f885f9429a0;
lineCapEnd = 1;
lineCapStart = 1;
};
closed = 0;
nodes = (
(116,355,l),
(48,329,o),
(20,247,o),
(20,178,cs),
(20,86,o),
(74,-6,o),
(164,-6,cs),
(239,-6,o),
(314,61,o),
(314,180,cs),
(314,287,o),
(248,364,o),
(161,364,cs),
(111,364,o),
(89,341,o),
(89,313,cs),
(89,265,o),
(146,197,o),
(244,197,cs),
(307,197,o),
(391,226,o),
(474,300,c)
);
}
);
width = 430;
}
);
},
{
glyphname = o.baja;
lastChange = "2023-11-10 09:56:02 +0000";
layers = (
{
background = {
shapes = (
{
alignment = -1;
pos = (208,0);
ref = _trazo.entra;
}
);
};
layerId = "6F9C6BB4-2DCF-443B-A55D-9CE049090094";
shapes = (
{
closed = 0;
nodes = (
(142,365,ls),
(46,365,o),
(0,314,o),
(0,182,cs),
(0,59,o),
(32,0,o),
(107,0,cs),
(155,0,o),
(206,50,o),
(231,150,cs),
(256,250,o),
(245,365,o),
(142,365,c)
);
},
{
closed = 0;
nodes = (
(121,363,l),
(121,364,o),
(104,310,o),
(104,251,cs),
(104,62,o),
(282,33,o),
(314,150,c)
);
}
);
width = 314;
}
);
},
{
glyphname = z.baja;
lastChange = "2023-11-10 09:56:02 +0000";
layers = (
{
background = {
shapes = (
{
closed = 0;
nodes = (
(380,37,l),
(339,18,o),
(299,16,o),
(245,-27,cs),
(48,-182,o),
(119,-349,o),
(179,-349,cs),
(218,-349,o),
(241,-288,o),
(241,-215,cs),
(241,-86,o),
(175,72,o),
(54,39,c),
(310,-47,o),
(299,360,o),
(145,360,cs),
(45,360,o),
(26,281,o),
(0,150,c)
);
}
);
};
layerId = "6F9C6BB4-2DCF-443B-A55D-9CE049090094";
shapes = (
{
closed = 0;
nodes = (
(380,37,l),
(221,-37,o),
(116,-96,o),
(116,-244,cs),
(116,-306,o),
(149,-349,o),
(179,-349,cs),
(218,-349,o),
(241,-288,o),
(241,-215,cs),
(241,-86,o),
(175,72,o),
(54,39,c),
(310,-47,o),
(299,360,o),
(145,360,cs),
(45,360,o),
(26,281,o),
(0,150,c)
);
}
);
width = 380;
}
);
},
{
glyphname = b.e;
kernLeft = lc_o;
kernRight = lc_o;
lastChange = "2023-11-10 09:56:02 +0000";
layers = (
{
anchors = (
{
name = bottom;
pos = (223,0);
},
{
name = center;
pos = (223,180);
},
{
name = top;
pos = (223,360);
}
);
background = {
anchors = (
{
name = bottom;
pos = (223,0);
},
{
name = center;
pos = (223,180);
},
{
name = top;
pos = (223,360);
}
);
shapes = (
{
alignment = -1;
pos = (161,0);
ref = _trazo.salida.b;
},
{
attr = {
identifier = ID0x7ff0491863a0;
lineCapEnd = 1;
lineCapStart = 1;
strokeHeight = 45;
strokeWidth = 40;
};
closed = 0;
nodes = (
(178,-5,l),
(44,-5,o),
(-4,239,o),
(-14,442,cs),
(-21,586,o),
(2,709,o),
(57,709,cs),
(101,709,o),
(118,652,o),
(118,573,cs),
(118,450,o),
(74,273,o),
(33,162,c)
);
}
);
};
layerId = "6F9C6BB4-2DCF-443B-A55D-9CE049090094";
shapes = (
{
alignment = -1;
pos = (161,0);
ref = _trazo.salida.be;
},
{
attr = {
identifier = ID0x7ff0491863a0;
lineCapEnd = 1;
lineCapStart = 1;
strokeHeight = 45;
strokeWidth = 40;
};
closed = 0;
nodes = (
(178,-5,l),
(44,-5,o),
(-4,239,o),
(-14,442,cs),
(-21,586,o),
(2,709,o),
(57,709,cs),
(101,709,o),
(118,652,o),
(118,573,cs),
(118,450,o),
(76,283,o),
(25,192,c)
);
}
);
width = 471;
}
);
metricRight = v.e;
},
{
glyphname = v.e;
kernLeft = lc_o;
lastChange = "2023-11-10 10:29:35 +0000";
layers = (
{
anchors = (
{
name = bottom;
pos = (307,0);
},
{
name = top;
pos = (307,360);
}
);
background = {
shapes = (
{
closed = 0;
nodes = (
(629,250,l),
(551,195,o),
(443,266,o),
(399,314,c),
(440,310,o),
(511,275,o),
(511,189,cs),
(511,100,o),
(467,0,o),
(385,0,cs),
(293,0,o),
(321,148,o),
(329,227,cs),
(339,326,o),
(311,360,o),
(265,360,cs),
(183,360,o),
(164,281,o),
(138,150,c)
);
}
);
};
guides = (
{
angle = 180;
lockAngle = 1;
pos = (283,310);
}
);
layerId = "6F9C6BB4-2DCF-443B-A55D-9CE049090094";
shapes = (
{
alignment = -1;
pos = (295,0);
ref = _trazo.salida.be;
},
{
alignment = -1;
pos = (20,0);
ref = _arco.v;
},
{
closed = 0;
nodes = (
(300,-53,l),
(297,-53,o),
(295,-53,o),
(292,-53,c)
);
}
);
width = 605;
}
);
metricLeft = a;
},
{
glyphname = w.e;
lastChange = "2023-11-10 09:56:02 +0000";
layers = (
{
anchors = (
{
name = bottom;
pos = (405,0);
},
{
name = top;
pos = (405,360);
}
);
layerId = "6F9C6BB4-2DCF-443B-A55D-9CE049090094";
shapes = (
{
attr = {
identifier = ID0x7f9d22d2b6c0;
lineCapEnd = 1;
lineCapStart = 1;
strokeHeight = 45;
strokeWidth = 40;
};
closed = 0;
nodes = (
(427,355,l),
(427,170,ls),
(427,82,o),
(378,-5,o),
(298,-5,cs)
);
},
{
alignment = -1;
pos = (510,0);
ref = _trazo.salida.be;
},
{
attr = {
identifier = ID0x7f9d22d2b6c0;
lineCapEnd = 1;
lineCapStart = 1;
strokeHeight = 45;
strokeWidth = 40;
};
closed = 0;
nodes = (
(524,-5,l),
(444,-5,o),
(427,61,o),
(427,100,cs),
(427,170,l)
);
},
{
alignment = -1;
pos = (1,0);
ref = _arco.v;
}
);
width = 820;
}
);
metricRight = v.e;
},
{
color = 4;
glyphname = c.init;
lastChange = "2023-11-21 14:10:19 +0000";
layers = (
{
background = {
shapes = (
{
attr = {
identifier = ID0x7fba9c16c3a0;
lineCapEnd = 1;
lineCapStart = 1;
strokeHeight = 45;
strokeWidth = 40;
};
closed = 0;
nodes = (
(491,355,l),
(460,368,o),
(429,374,o),
(400,374,cs),
(306,374,o),
(232,309,o),
(232,180,cs),
(232,-8,o),
(369,-5,o),
(451,-5,cs),
(510,-5,o),
(591,53,o),
(601,179,c)
);
}
);
};
layerId = "6F9C6BB4-2DCF-443B-A55D-9CE049090094";
shapes = (
{
ref = _trazo.mitte;
},
{
pos = (138,0);
ref = c;
}
);
width = 518;
}
);
metricLeft = a;
metricRight = a;
},
{
color = 4;
glyphname = e.init;
lastChange = "2023-11-21 14:10:19 +0000";
layers = (
{
background = {
shapes = (
{
attr = {
lineCapEnd = 1;
lineCapStart = 1;
strokeHeight = 45;
strokeWidth = 40;
};
closed = 0;
nodes = (
(-149,-5,l),
(-17,-5,o),
(75,172,o),
(75,279,cs),
(75,326,o),
(58,360,o),
(18,360,cs),
(-24,360,o),
(-49,296,o),
(-49,221,cs),
(-49,118,o),
(-2,-5,o),
(113,-5,c)
);
}
);
};
layerId = "6F9C6BB4-2DCF-443B-A55D-9CE049090094";
shapes = (
{
ref = _trazo.sale.low;
},
{
pos = (138,0);
ref = e;
}
);
width = 458;
}
);
metricLeft = a;
metricRight = a;
},
{
color = 4;
glyphname = f.init;
lastChange = "2023-11-20 17:07:44 +0000";
layers = (
{
background = {
shapes = (
{
attr = {
identifier = ID0x7ff03cfdb690;
lineCapEnd = "1";
lineCapStart = "1";
strokeHeight = 45;
strokeWidth = 40;
};
closed = 0;
nodes = (
(525,178,l),
(566,289,o),
(616,450,o),
(616,573,cs),
(616,652,o),
(599,709,o),
(555,709,cs),
(503,709,o),
(486,639,o),
(486,539,cs),
(486,322,o),
(569,-39,o),
(569,-146,cs),
(569,-302,o),
(537,-354,o),
(504,-354,cs),
(472,-354,o),
(440,-304,o),
(440,-239,cs),
(440,-174,o),
(472,-93,o),
(565,-33,cs),
(618,1,o),
(704,58,o),
(741,179,c)
);
}
);
};
layerId = "6F9C6BB4-2DCF-443B-A55D-9CE049090094";
shapes = (
{
ref = _trazo.mitte;
},
{
pos = (138,0);
ref = f;
}
);
width = 353;
}
);
metricLeft = a.init;
metricRight = a;
},
{
color = 4;
glyphname = l.init;
lastChange = "2023-11-21 09:52:07 +0000";
layers = (
{
background = {
shapes = (
{
attr = {
lineCapEnd = 1;
lineCapStart = 1;
strokeHeight = 45;
strokeWidth = 40;
};
closed = 0;
nodes = (
(384,170,l),
(342,71,o),
(281,-5,o),
(200,-5,c)
);
},
{
pos = (361,0);
ref = l;
}
);
};
guides = (
{
angle = 84.5324;
pos = (220,351);
}
);
layerId = "6F9C6BB4-2DCF-443B-A55D-9CE049090094";
shapes = (
{
alignment = -1;
pos = (139,0);
ref = l;
},
{
alignment = -1;
ref = _trazo.mitte;
}
);
width = 428;
}
);
metricLeft = a.init;
metricRight = a;
},
{
color = 4;
glyphname = o.init;
lastChange = "2023-11-21 14:10:19 +0000";
layers = (
{
background = {
shapes = (
{
attr = {
identifier = ID0x7f885f9429a0;
lineCapEnd = 1;
lineCapStart = 1;
strokeHeight = 45;
strokeWidth = 40;
};
closed = 0;
nodes = (
(303,364,l),
(219,347,o),
(164,286,o),
(164,180,cs),
(164,57,o),
(231,0,o),
(297,0,cs),
(492,0,o),
(474,246,o),
(420,312,cs),
(377,365,o),
(273,392,o),
(273,328,cs),
(273,231,o),
(417,186,o),
(547,291,cs)
);
}
);
};
layerId = "6F9C6BB4-2DCF-443B-A55D-9CE049090094";
shapes = (
{
ref = _trazo.mitte;
},
{
pos = (138,0);
ref = o.alta;
}
);
width = 568;
}
);
metricLeft = a;
metricRight = o;
},
{
color = 4;
glyphname = p.init;
lastChange = "2023-11-21 15:19:06 +0000";
layers = (
{
background = {
shapes = (
{
closed = 0;
nodes = (
(189,-349,l),
(189,360,l),
(175,307,o),
(160,250,o),
(131,150,c)
);
},
{
closed = 0;
nodes = (
(189,154,l),
(203,344,o),
(268,360,o),
(303,360,cs),
(358,360,o),
(383,319,o),
(383,227,cs),
(383,100,ls),
(383,30,o),
(406,0,o),
(436,0,c)
);
}
);
};
layerId = "6F9C6BB4-2DCF-443B-A55D-9CE049090094";
shapes = (
{
ref = _trazo.mitte;
},
{
pos = (138,0);
ref = p;
}
);
width = 676;
}
);
metricLeft = a;
metricRight = a;
},
{
color = 4;
glyphname = q.init;
lastChange = "2023-11-21 14:10:19 +0000";
layers = (
{
background = {
shapes = (
{
alignment = -1;
pos = (173,0);
ref = _part.bucle;
},
{
attr = {
identifier = ID0x7fba9a38cdf0;
lineCapEnd = 1;
lineCapStart = 1;
strokeHeight = 45;
strokeWidth = 40;
};
closed = 0;
nodes = (
(461,100,l),
(461,61,o),
(474,-5,o),
(531,-5,c)
);
},
{
attr = {
lineCapEnd = 1;
lineCapStart = 1;
strokeHeight = 45;
strokeWidth = 40;
};
closed = 0;
nodes = (
(461,356,l),
(461,-349,ls)
);
},
{
attr = {
lineCapEnd = "1";
lineCapStart = "1";
strokeHeight = 45;
strokeWidth = 40;
};
closed = 0;
nodes = (
(554,-178,l),
(349,-178,ls)
);
},
{
alignment = -1;
pos = (40,0);
ref = _trazo.entra;
}
);
};
layerId = "6F9C6BB4-2DCF-443B-A55D-9CE049090094";
shapes = (
{
ref = _trazo.mitte;
},
{
pos = (138,0);
ref = q;
}
);
width = 668;
}
);
metricLeft = a;
metricRight = a;
},
{
color = 4;
glyphname = r.init;
lastChange = "2023-11-21 14:10:19 +0000";
layers = (
{
background = {
shapes = (
{
attr = {
lineCapEnd = 1;
lineCapStart = 1;
strokeHeight = 45;
strokeWidth = 40;
};
closed = 0;
nodes = (
(557,-5,l),
(466,-5,o),
(446,114,o),
(446,194,cs),
(446,258,o),
(451,297,o),
(455,322,cs),
(461,364,o),
(461,364,o),
(421,359,cs),
(334,349,o),
(290,359,o),
(263,389,c)
);
},
{
attr = {
lineCapEnd = "1";
lineCapStart = "1";
strokeHeight = 45;
strokeWidth = 40;
};
closed = 0;
nodes = (
(256,179,l),
(264,276,o),
(260,393,o),
(260,393,c)
);
}
);
};
layerId = "6F9C6BB4-2DCF-443B-A55D-9CE049090094";
shapes = (
{
ref = _trazo.mitte;
},
{
pos = (138,0);
ref = r;
}
);
width = 572;
}
);
metricLeft = a;
metricRight = a;
},
{
color = 4;
glyphname = s.init;
lastChange = "2023-11-21 14:10:19 +0000";
layers = (
{
background = {
shapes = (
{
attr = {
lineCapEnd = 1;
lineCapStart = 1;
strokeHeight = 45;
strokeWidth = 40;
};
closed = 0;
nodes = (
(253,360,l),
(253,223,o),
(426,249,o),
(426,109,cs),
(426,54,o),
(386,8,o),
(330,8,cs),
(330,8,o),
(256,57,o),
(246,29,c),
(304,-1,o),
(364,-10,o),
(406,-10,cs),
(498,-10,o),
(607,34,o),
(618,179,c)
);
},
{
attr = {
identifier = ID0x7f8862385790;
lineCapEnd = 1;
lineCapStart = 1;
strokeHeight = 45;
strokeWidth = 40;
};
closed = 0;
nodes = (
(40,-4,l),
(168,-4,o),
(238,305,o),
(255,370,c)
);
}
);
};
layerId = "6F9C6BB4-2DCF-443B-A55D-9CE049090094";
shapes = (
{
ref = _trazo.mitte;
},
{
pos = (138,0);
ref = s;
}
);
width = 558;
}
);
metricLeft = a;
metricRight = a;
},
{
color = 4;
glyphname = u.init;
lastChange = "2023-11-21 14:10:19 +0000";
layers = (
{
background = {
shapes = (
{
closed = 0;
nodes = (
(558,150,l),
(533,50,o),
(482,0,o),
(434,0,cs),
(359,0,o),
(327,59,o),
(327,182,cs),
(327,359,l)
);
},
{
pos = (357,0);
ref = _part.bucle;
}
);
};
layerId = "6F9C6BB4-2DCF-443B-A55D-9CE049090094";
shapes = (
{
ref = _trazo.mitte;
},
{
pos = (138,0);
ref = u;
}
);
width = 713;
}
);
metricLeft = a;
metricRight = a;
},
{
color = 4;
glyphname = v.init;
kernLeft = lc_o;
lastChange = "2023-11-21 14:10:19 +0000";
layers = (
{
background = {
shapes = (
{
closed = 0;
nodes = (
(658,250,l),
(580,195,o),
(472,266,o),
(428,314,c),
(469,310,o),
(540,275,o),
(540,189,cs),
(540,100,o),
(496,0,o),
(414,0,cs),
(322,0,o),
(350,148,o),
(358,227,cs),
(368,326,o),
(340,360,o),
(294,360,cs),
(212,360,o),
(193,281,o),
(167,150,c)
);
}
);
};
guides = (
{
angle = 180;
lockAngle = 1;
pos = (312,310);
}
);
layerId = "6F9C6BB4-2DCF-443B-A55D-9CE049090094";
shapes = (
{
ref = _trazo.mitte;
},
{
pos = (138,0);
ref = v;
}
);
width = 701;
}
);
metricLeft = a;
metricRight = o;
},
{
color = 4;
glyphname = w.init;
kernLeft = lc_o;
lastChange = "2023-11-21 14:10:19 +0000";
layers = (
{
background = {
shapes = (
{
closed = 0;
nodes = (
(765,310,l),
(736,289,o),
(693,269,o),
(653,269,cs),
(592,269,o),
(552,306,o),
(555,334,c),
(626,300,o),
(647,245,o),
(647,182,cs),
(647,95,o),
(599,0,o),
(518,0,cs),
(426,0,o),
(454,148,o),
(462,227,cs),
(471,319,l)
);
},
{
closed = 0;
nodes = (
(457,182,l),
(447,95,o),
(419,0,o),
(338,0,cs),
(246,0,o),
(274,148,o),
(282,227,cs),
(292,326,o),
(264,360,o),
(218,360,cs),
(136,360,o),
(117,281,o),
(91,150,c)
);
}
);
};
guides = (
{
angle = 85;
lockAngle = 1;
pos = (473,227);
}
);
layerId = "6F9C6BB4-2DCF-443B-A55D-9CE049090094";
shapes = (
{
ref = _trazo.mitte;
},
{
pos = (138,0);
ref = w;
}
);
width = 911;
}
);
metricLeft = v;
metricRight = o;
},
{
color = 4;
glyphname = x.init;
lastChange = "2023-11-21 14:10:19 +0000";
layers = (
{
background = {
anchors = (
{
name = bottom;
pos = (706,0);
},
{
name = top;
pos = (676,360);
}
);
shapes = (
{
attr = {
identifier = ID0x7faded1a7c00;
lineCapEnd = 1;
lineCapStart = 1;
strokeHeight = 45;
strokeWidth = 40;
};
closed = 0;
nodes = (
(253,360,l),
(253,223,o),
(426,249,o),
(426,109,cs),
(426,54,o),
(386,8,o),
(330,8,cs),
(330,8,o),
(256,57,o),
(246,29,c),
(274,15,o),
(304,14,o),
(330,8,cs)
);
},
{
attr = {
identifier = ID0x7faded1a7c00;
lineCapEnd = 1;
lineCapStart = 1;
strokeHeight = 45;
strokeWidth = 40;
};
closed = 0;
nodes = (
(40,-4,l),
(168,-4,o),
(238,305,o),
(255,370,c)
);
},
{
attr = {
identifier = ID0x7fade9b16650;
lineCapEnd = 1;
lineCapStart = 1;
strokeHeight = 45;
strokeWidth = 40;
};
closed = 0;
nodes = (
(682,355,l),
(651,368,o),
(620,374,o),
(591,374,cs),
(497,374,o),
(423,309,o),
(423,180,cs),
(423,-71,o),
(772,-79,o),
(792,179,c)
);
}
);
};
layerId = "6F9C6BB4-2DCF-443B-A55D-9CE049090094";
shapes = (
{
ref = _trazo.mitte;
},
{
pos = (138,0);
ref = x;
}
);
width = 808;
}
);
metricLeft = a;
metricRight = a;
},
{
color = 4;
glyphname = y.init;
lastChange = "2023-11-21 14:10:19 +0000";
layers = (
{
background = {
shapes = (
{
closed = 0;
nodes = (
(518,360,l),
(515,270,ls),
(509,102,o),
(437,1,o),
(378,1,cs),
(340,1,o),
(308,25,o),
(308,90,c)
);
},
{
pos = (192,0);
ref = trazo.entrada.curvo;
},
{
pos = (391,0);
ref = bucle.descendente;
}
);
};
layerId = "6F9C6BB4-2DCF-443B-A55D-9CE049090094";
shapes = (
{
ref = _trazo.mitte;
},
{
pos = (138,0);
ref = y;
}
);
width = 658;
}
);
metricLeft = a;
metricRight = a;
},
{
color = 4;
glyphname = z.init;
lastChange = "2023-11-21 14:10:19 +0000";
layers = (
{
background = {
shapes = (
{
pos = (86,0);
ref = _trazo.entra;
},
{
attr = {
lineCapEnd = "1";
lineCapStart = "1";
strokeHeight = 45;
strokeWidth = 40;
};
closed = 0;
nodes = (
(213,389,l),
(233,367,o),
(297,355,o),
(364,355,cs),
(386,355,o),
(532,360,o),
(532,360,c),
(533,357,l),
(452,254,o),
(388,151,o),
(306,48,c),
(452,0,o),
(483,-56,o),
(483,-196,cs),
(483,-295,o),
(438,-349,o),
(397,-349,cs),
(364,-349,o),
(334,-311,o),
(334,-249,cs),
(334,-146,o),
(447,-4,o),
(554,-4,c)
);
},
{
attr = {
lineCapEnd = "1";
lineCapStart = "1";
strokeHeight = 45;
strokeWidth = 40;
};
closed = 0;
nodes = (
(236,179,l),
(244,276,o),
(210,393,o),
(210,393,c)
);
}
);
};
layerId = "6F9C6BB4-2DCF-443B-A55D-9CE049090094";
shapes = (
{
ref = _trazo.mitte;
},
{
pos = (138,0);
ref = z;
}
);
width = 572;
}
);
metricLeft = a;
metricRight = a;
},
{
color = 5;
glyphname = c.low;
kernLeft = lc_round;
lastChange = "2023-11-21 09:52:07 +0000";
layers = (
{
anchors = (
{
name = bottom;
pos = (98,0);
},
{
name = top;
pos = (188,360);
}
);
background = {
shapes = (
{
closed = 0;
nodes = (
(151,100,ls),
(151,24,o),
(196,-9,o),
(255,-9,cs),
(315,-9,o),
(364,15,o),
(405,49,cs)
);
}
);
};
guides = (
{
angle = 90;
pos = (396,144);
}
);
layerId = "6F9C6BB4-2DCF-443B-A55D-9CE049090094";
shapes = (
{
ref = _c.base;
},
{
closed = 0;
nodes = (
(212,-11,ls),
(295,-9,o),
(359,16,o),
(400,50,cs)
);
}
);
width = 380;
}
);
metricLeft = a;
metricRight = a;
},
{
color = 5;
glyphname = e.low;
kernLeft = lc_round;
lastChange = "2023-11-21 09:52:07 +0000";
layers = (
{
anchors = (
{
name = bottom;
pos = (182,0);
},
{
name = ogonek;
pos = (330,10);
},
{
name = top;
pos = (142,360);
}
);
background = {
shapes = (
{
attr = {
identifier = ID0x7f9d1baad8f0;
lineCapEnd = "1";
lineCapStart = "1";
strokeHeight = 45;
strokeWidth = 40;
};
closed = 0;
nodes = (
(37,63,l),
(107,124,o),
(150,206,o),
(150,274,cs),
(150,332,o),
(118,363,o),
(83,363,cs),
(39,363,o),
(-10,315,o),
(-10,221,cs),
(-10,118,o),
(46,-5,o),
(145,-5,c)
);
},
{
attr = {
identifier = ID0x7f9d23b656c0;
lineCapEnd = 1;
lineCapStart = 1;
strokeHeight = 45;
strokeWidth = 40;
};
closed = 0;
nodes = (
(209,-9,l),
(269,-9,o),
(318,15,o),
(359,49,cs)
);
}
);
};
guides = (
{
angle = 90;
pos = (359,119);
}
);
layerId = "6F9C6BB4-2DCF-443B-A55D-9CE049090094";
shapes = (
{
attr = {
identifier = ID0x7fd998a2d8a0;
lineCapEnd = "1";
lineCapStart = "1";
};
closed = 0;
nodes = (
(21,52,l),
(91,113,o),
(130,206,o),
(130,274,cs),
(130,332,o),
(98,363,o),
(63,363,cs),
(19,363,o),
(-30,315,o),
(-30,221,cs),
(-30,54,o),
(64,-6,o),
(156,-6,cs),
(228,-6,o),
(292,16,o),
(340,50,cs)
);
}
);
width = 320;
}
);
metricRight = a.low;
},
{
color = 5;
glyphname = f.low;
lastChange = "2023-11-21 09:52:07 +0000";
layers = (
{
layerId = "6F9C6BB4-2DCF-443B-A55D-9CE049090094";
shapes = (
{
ref = _f.base;
},
{
attr = {
identifier = ID0x7f9d1baad8f0;
lineCapEnd = "1";
lineCapStart = "1";
};
closed = 0;
nodes = (
(63,-33,l),
(130,6,o),
(175,8,o),
(235,50,cs)
);
}
);
width = 215;
}
);
metricRight = a.low;
},
{
color = 5;
glyphname = h.low;
lastChange = "2023-11-21 14:10:19 +0000";
layers = (
{
background = {
shapes = (
{
pos = (-506,0);
ref = _trazo.entra;
},
{
pos = (-807,0);
ref = _arco3;
},
{
attr = {
lineCapEnd = "1";
lineCapStart = "1";
strokeHeight = 40;
strokeWidth = 35;
};
closed = 0;
nodes = (
(-941,186,l),
(-908,340,o),
(-667,427,o),
(-667,606,cs),
(-667,667,o),
(-699,709,o),
(-738,709,cs),
(-790,709,o),
(-791,647,o),
(-791,466,cs),
(-791,0,l)
);
}
);
};
guides = (
{
angle = 84.5324;
pos = (-971,351);
}
);
layerId = "6F9C6BB4-2DCF-443B-A55D-9CE049090094";
shapes = (
{
ref = _h.base;
},
{
pos = (383,0);
ref = _trazo.sale.low;
}
);
width = 521;
}
);
metricLeft = l;
metricRight = a.low;
},
{
color = 5;
glyphname = k.low;
lastChange = "2023-11-21 09:52:07 +0000";
layers = (
{
layerId = "6F9C6BB4-2DCF-443B-A55D-9CE049090094";
shapes = (
{
ref = _k.base;
},
{
attr = {
identifier = ID0x7f8323181190;
lineCapEnd = "1";
lineCapStart = "1";
};
closed = 0;
nodes = (
(389,50,l),
(356,19,o),
(322,-5,o),
(281,-5,c)
);
}
);
width = 369;
}
);
metricRight = a.low;
},
{
color = 5;
glyphname = s.low;
lastChange = "2023-11-21 09:52:07 +0000";
layers = (
{
layerId = "6F9C6BB4-2DCF-443B-A55D-9CE049090094";
shapes = (
{
attr = {
lineCapEnd = "1";
lineCapStart = "1";
};
closed = 0;
nodes = (
(48,29,l),
(147,-14,o),
(335,-28,o),
(440,50,c)
);
},
{
ref = _s.base;
}
);
width = 420;
}
);
metricRight = a.low;
},
{
color = 5;
glyphname = x.low;
lastChange = "2023-11-20 17:07:53 +0000";
layers = (
{
layerId = "6F9C6BB4-2DCF-443B-A55D-9CE049090094";
shapes = (
{
ref = _x.base;
},
{
attr = {
identifier = ID0x7fb98602a670;
lineCapEnd = "1";
lineCapStart = "1";
};
closed = 0;
nodes = (
(502,-5,l),
(587,-5,o),
(632,17,o),
(690,50,c)
);
}
);
width = 670;
}
);
},
{
color = 5;
glyphname = z.low;
lastChange = "2023-11-21 09:52:07 +0000";
layers = (
{
layerId = "6F9C6BB4-2DCF-443B-A55D-9CE049090094";
shapes = (
{
ref = _z.base;
},
{
closed = 0;
nodes = (
(297,-38,ls),
(364,6,o),
(401,8,o),
(474,50,c)
);
}
);
width = 454;
}
);
metricRight = a.low;
},
{
color = 0;
glyphname = e.mitte;
kernLeft = lc_round;
lastChange = "2023-11-21 10:07:24 +0000";
layers = (
{
anchors = (
{
name = bottom;
pos = (192,0);
},
{
name = ogonek;
pos = (340,10);
},
{
name = top;
pos = (152,360);
}
);
background = {
anchors = (
{
name = bottom;
pos = (192,0);
},
{
name = ogonek;
pos = (340,10);
},
{
name = top;
pos = (152,360);
}
);
shapes = (
{
attr = {
identifier = ID0x7f9d1baad8f0;
lineCapEnd = "1";
lineCapStart = "1";
};
closed = 0;
nodes = (
(51,52,l),
(121,113,o),
(160,206,o),
(160,274,cs),
(160,332,o),
(128,363,o),
(93,363,cs),
(49,363,o),
(0,315,o),
(0,221,cs),
(0,118,o),
(56,-5,o),
(155,-5,cs),
(237,-5,o),
(321,58,o),
(369,179,c)
);
},
{
pos = (190,0);
ref = _trazo.mitte;
}
);
};
layerId = "6F9C6BB4-2DCF-443B-A55D-9CE049090094";
shapes = (
{
attr = {
identifier = ID0x7fc1c4ebb460;
lineCapEnd = "1";
lineCapStart = "1";
};
closed = 0;
nodes = (
(12,136,l),
(122,184,o),
(158,242,o),
(158,287,cs),
(158,331,o),
(136,363,o),
(93,363,cs),
(49,363,o),
(0,315,o),
(0,221,cs),
(0,118,o),
(57,-5,o),
(156,-5,cs)
);
},
{
closed = 0;
nodes = (
(156,-5,l),
(238,-5,o),
(322,59,o),
(370,180,c)
);
}
);
width = 350;
}
);
metricRight = a;
},
{
color = 5;
glyphname = o.mitte;
lastChange = "2023-11-21 08:52:50 +0000";
layers = (
{
background = {
shapes = (
{
attr = {
identifier = ID0x7fa31e2c92c0;
lineCapEnd = "1";
lineCapStart = "1";
};
closed = 0;
nodes = (
(438,180,l),
(360,34,o),
(171,141,o),
(171,295,cs),
(171,423,o),
(314,346,o),
(314,180,cs),
(314,61,o),
(239,-6,o),
(164,-6,cs),
(74,-6,o),
(20,86,o),
(20,178,cs),
(20,286,o),
(78,364,o),
(164,364,cs),
(176,364,o),
(188,362,o),
(198,359,c)
);
}
);
};
layerId = "6F9C6BB4-2DCF-443B-A55D-9CE049090094";
shapes = (
{
ref = _o.base;
},
{
closed = 0;
nodes = (
(482,136,l),
(325,81,o),
(171,141,o),
(171,295,cs)
);
}
);
width = 470;
}
);
},
{
glyphname = k.palito;
lastChange = "2023-11-21 09:52:07 +0000";
layers = (
{
anchors = (
{
name = bottom;
pos = (218,0);
},
{
name = top;
pos = (218,710);
}
);
background = {
shapes = (
{
attr = {
identifier = ID0x7f885fd0af90;
lineCapEnd = "1";
lineCapStart = "1";
strokeHeight = 45;
strokeWidth = 40;
};
closed = 0;
nodes = (
(63,157,l),
(145,108,o),
(229,-5,o),
(295,-5,cs),
(354,-5,o),
(425,53,o),
(435,179,c)
);
},
{
attr = {
lineCapEnd = 1;
lineCapStart = 1;
strokeWidth = 40;
};
closed = 0;
nodes = (
(257,355,l),
(224,324,o),
(126,234,o),
(68,186,c)
);
},
{
attr = {
lineCapEnd = "1";
lineCapStart = "1";
strokeHeight = 45;
strokeWidth = 40;
};
closed = 0;
nodes = (
(40,0,l),
(40,680,l),
(60,658,o),
(63,510,o),
(40,274,c)
);
}
);
};
layerId = "6F9C6BB4-2DCF-443B-A55D-9CE049090094";
shapes = (
{
attr = {
lineCapEnd = 1;
lineCapStart = 1;
strokeWidth = 40;
};
closed = 0;
nodes = (
(257,355,l),
(224,324,o),
(126,234,o),
(68,186,c)
);
},
{
attr = {
lineCapEnd = "1";
lineCapStart = "1";
strokeHeight = 45;
strokeWidth = 40;
};
closed = 0;
nodes = (
(40,0,l),
(40,680,l),
(60,658,o),
(63,510,o),
(40,274,c)
);
},
{
attr = {
lineCapEnd = 1;
lineCapStart = 1;
strokeHeight = 45;
strokeWidth = 40;
};
closed = 0;
nodes = (
(246,-5,l),
(181,-5,o),
(114,103,o),
(66,170,c)
);
},
{
pos = (246,0);
ref = _trazo.entra;
}
);
width = 396;
}
);
metricLeft = a;
metricRight = a;
},
{
color = 0;
glyphname = e.top;
kernLeft = lc_round;
lastChange = "2023-11-21 09:52:07 +0000";
layers = (
{
anchors = (
{
name = bottom;
pos = (192,0);
},
{
name = ogonek;
pos = (340,10);
},
{
name = top;
pos = (152,360);
}
);
background = {
anchors = (
{
name = bottom;
pos = (192,0);
},
{
name = ogonek;
pos = (340,10);
},
{
name = top;
pos = (152,360);
}
);
shapes = (
{
attr = {
identifier = ID0x7f9d1baad8f0;
lineCapEnd = "1";
lineCapStart = "1";
};
closed = 0;
nodes = (
(51,52,l),
(121,113,o),
(160,206,o),
(160,274,cs),
(160,332,o),
(128,363,o),
(93,363,cs),
(49,363,o),
(0,315,o),
(0,221,cs),
(0,118,o),
(56,-5,o),
(155,-5,cs),
(237,-5,o),
(321,58,o),
(369,179,c)
);
},
{
pos = (190,0);
ref = _trazo.mitte;
}
);
};
layerId = "6F9C6BB4-2DCF-443B-A55D-9CE049090094";
shapes = (
{
attr = {
identifier = ID0x7fc1c4ebb460;
lineCapEnd = "1";
lineCapStart = "1";
};
closed = 0;
nodes = (
(21,198,l),
(161,185,o),
(227,242,o),
(227,292,cs),
(227,337,o),
(188,362,o),
(145,362,cs),
(87,362,o),
(20,319,o),
(20,221,cs),
(20,71,o),
(95,-5,o),
(178,-5,cs),
(251,-5,o),
(331,54,o),
(370,180,c)
);
}
);
width = 350;
}
);
metricRight = a;
},
{
color = 0;
glyphname = f.top;
lastChange = "2023-11-21 09:52:07 +0000";
layers = (
{
anchors = (
{
name = bottom;
pos = (107,0);
},
{
name = top;
pos = (107,710);
}
);
background = {
shapes = (
{
attr = {
identifier = ID0x7ff03cfdb690;
lineCapEnd = "1";
lineCapStart = "1";
strokeHeight = 45;
strokeWidth = 40;
};
closed = 0;
nodes = (
(23,178,l),
(64,289,o),
(114,450,o),
(114,573,cs),
(114,652,o),
(97,709,o),
(53,709,cs),
(1,709,o),
(-16,639,o),
(-16,539,cs),
(-16,322,o),
(67,-39,o),
(67,-146,cs),
(67,-302,o),
(35,-354,o),
(2,-354,cs),
(-29,-354,o),
(-61,-303,o),
(-61,-250,cs),
(-61,-20,o),
(158,-55,o),
(239,179,c)
);
}
);
};
layerId = "6F9C6BB4-2DCF-443B-A55D-9CE049090094";
shapes = (
{
ref = _f.top.base;
},
{
closed = 0;
nodes = (
(63,-33,ls),
(116,1,o),
(194,58,o),
(235,179,c)
);
}
);
width = 215;
}
);
metricRight = a;
},
{
color = 0;
glyphname = h.top;
lastChange = "2023-11-15 19:38:27 +0000";
layers = (
{
anchors = (
{
name = bottom;
pos = (247,0);
},
{
name = center;
pos = (247,710);
},
{
name = top;
pos = (247,710);
}
);
background = {
anchors = (
{
name = bottom;
pos = (247,0);
},
{
name = center;
pos = (247,710);
},
{
name = top;
pos = (247,710);
}
);
shapes = (
{
pos = (1,0);
ref = _bucle.ascendente.h;
},
{
pos = (362,0);
ref = _trazo.mitte;
},
{
attr = {
identifier = ID0x7f8325d1e2e0;
lineCapEnd = "1";
lineCapStart = "1";
};
closed = 0;
nodes = (
(388,-5,l),
(332,-5,o),
(312,33,o),
(312,100,cs),
(312,237,ls),
(312,326,o),
(281,360,o),
(232,360,cs),
(181,360,o),
(94,291,o),
(41,77,c)
);
}
);
};
layerId = "6F9C6BB4-2DCF-443B-A55D-9CE049090094";
shapes = (
{
ref = _h.top.base;
},
{
pos = (383,0);
ref = _trazo.mitte;
}
);
width = 521;
}
);
metricRight = a;
},
{
color = 0;
glyphname = k.top;
lastChange = "2023-11-21 09:52:07 +0000";
layers = (
{
background = {
shapes = (
{
alignment = -1;
pos = (229,0);
ref = _trazo.mitte;
}
);
};
layerId = "6F9C6BB4-2DCF-443B-A55D-9CE049090094";
shapes = (
{
ref = _k.top.base;
},
{
attr = {
identifier = ID0x7f8323181190;
lineCapEnd = "1";
lineCapStart = "1";
};
closed = 0;
nodes = (
(389,179,l),
(342,38,o),
(322,-5,o),
(281,-5,c)
);
}
);
width = 369;
}
);
metricRight = a;
},
{
color = 0;
glyphname = w.top;
kernLeft = lc_o;
kernRight = lc_o;
lastChange = "2023-11-21 08:55:44 +0000";
layers = (
{
background = {
anchors = (
{
name = bottom;
pos = (127,0);
},
{
name = top;
pos = (127,360);
}
);
shapes = (
{
attr = {
identifier = ID0x7f88630096e0;
lineCapEnd = 1;
lineCapStart = 1;
strokeHeight = 45;
strokeWidth = 40;
};
closed = 0;
nodes = (
(149,355,l),
(149,170,ls),
(149,82,o),
(100,-5,o),
(20,-5,cs)
);
},
{
alignment = -1;
pos = (232,0);
ref = _trazo.salida.b;
},
{
attr = {
lineCapEnd = 1;
lineCapStart = 1;
strokeHeight = 45;
strokeWidth = 40;
};
closed = 0;
nodes = (
(246,-5,l),
(166,-5,o),
(149,61,o),
(149,100,cs),
(149,170,l)
);
},
{
alignment = -1;
pos = (-277,0);
ref = _arco.v;
}
);
};
guides = (
{
angle = 85;
lockAngle = 1;
pos = (-30,227);
}
);
layerId = "6F9C6BB4-2DCF-443B-A55D-9CE049090094";
shapes = (
{
ref = _w.base;
},
{
pos = (523,0);
ref = _trazo.salida.b.top;
}
);
width = 773;
}
);
metricLeft = v;
},
{
glyphname = e.v;
kernLeft = lc_round;
lastChange = "2023-11-21 09:52:07 +0000";
layers = (
{
anchors = (
{
name = bottom;
pos = (197,0);
},
{
name = ogonek;
pos = (345,10);
},
{
name = top;
pos = (157,360);
}
);
background = {
anchors = (
{
name = bottom;
pos = (197,0);
},
{
name = ogonek;
pos = (345,10);
},
{
name = top;
pos = (157,360);
}
);
shapes = (
{
attr = {
identifier = ID0x7f88624aed60;
lineCapEnd = "1";
lineCapStart = "1";
strokeHeight = 45;
strokeWidth = 40;
};
closed = 0;
nodes = (
(-265,336,l),
(-181,230,o),
(-66,184,o),
(7,184,cs),
(128,184,o),
(167,231,o),
(167,277,cs),
(167,333,o),
(134,363,o),
(98,363,cs),
(54,363,o),
(5,318,o),
(5,221,cs),
(5,118,o),
(61,-5,o),
(160,-5,cs),
(242,-5,o),
(326,58,o),
(374,179,c)
);
},
{
attr = {
lineCapEnd = "1";
lineCapStart = "1";
strokeHeight = 45;
strokeWidth = 40;
};
closed = 0;
nodes = (
(-214,281,ls),
(-114,182,o),
(-160,-5,o),
(-293,-5,cs)
);
}
);
};
layerId = "6F9C6BB4-2DCF-443B-A55D-9CE049090094";
shapes = (
{
attr = {
identifier = ID0x7f88624aed60;
lineCapEnd = "1";
lineCapStart = "1";
strokeHeight = 45;
strokeWidth = 40;
};
closed = 0;
nodes = (
(13,184,l),
(134,184,o),
(167,231,o),
(167,277,cs),
(167,333,o),
(134,363,o),
(98,363,cs),
(54,363,o),
(5,318,o),
(5,221,cs),
(5,118,o),
(61,-5,o),
(160,-5,cs),
(242,-5,o),
(326,58,o),
(374,179,c)
);
}
);
width = 374;
}
);
metricRight = a;
},
{
glyphname = x.001;
lastChange = "2023-11-10 09:56:02 +0000";
layers = (
{
background = {
shapes = (
{
closed = 0;
nodes = (
(41,0,ls),
(53,360,l),
(40,319,o),
(27,279,o),
(5,230,c)
);
}
);
};
layerId = "6F9C6BB4-2DCF-443B-A55D-9CE049090094";
shapes = (
{
closed = 0;
nodes = (
(287,0,l),
(179,120,o),
(101,240,o),
(53,360,c),
(40,319,o),
(27,279,o),
(5,230,c)
);
},
{
closed = 0;
nodes = (
(-1,0,l),
(120,90,o),
(205,214,o),
(266,360,c),
(291,316,o),
(351,203,o),
(429,230,c)
);
}
);
width = 424;
}
);
},
{
glyphname = x.002;
lastChange = "2023-11-10 09:56:02 +0000";
layers = (
{
background = {
shapes = (
{
closed = 0;
nodes = (
(851,150,l),
(831,79,o),
(751,0,o),
(654,0,cs),
(591,0,o),
(538,45,o),
(538,182,cs),
(538,314,o),
(584,365,o),
(679,365,cs),
(731,365,o),
(774,342,o),
(774,290,cs),
(774,160,o),
(323,209,o),
(323,79,cs),
(323,22,o),
(373,2,o),
(394,2,cs),
(593,2,o),
(570,360,o),
(420,360,cs),
(313,360,o),
(302,290,o),
(254,150,c)
);
}
);
};
layerId = "6F9C6BB4-2DCF-443B-A55D-9CE049090094";
shapes = (
{
closed = 0;
nodes = (
(597,150,l),
(577,79,o),
(497,0,o),
(400,0,cs),
(337,0,o),
(284,45,o),
(284,182,cs),
(284,298,o),
(330,360,o),
(412,360,cs),
(464,360,o),
(500,333,o),
(520,290,cs)
);
},
{
closed = 0;
nodes = (
(44,58,l),
(79,18,o),
(102,0,o),
(148,0,cs),
(211,0,o),
(284,49,o),
(284,181,cs),
(284,271,o),
(241,360,o),
(166,360,cs),
(45,360,o),
(33,243,o),
(0,150,c)
);
}
);
width = 597;
}
);
},
{
glyphname = z.001;
lastChange = "2023-11-10 09:56:02 +0000";
layers = (
{
background = {
shapes = (
{
closed = 0;
nodes = (
(380,149,l),
(367,86,o),
(118,-27,o),
(118,-246,cs),
(118,-307,o),
(140,-349,o),
(179,-349,cs),
(218,-349,o),
(241,-288,o),
(241,-215,cs),
(241,-86,o),
(175,72,o),
(54,39,c),
(310,-47,o),
(299,360,o),
(145,360,cs),
(45,360,o),
(26,281,o),
(0,150,c)
);
}
);
};
layerId = "6F9C6BB4-2DCF-443B-A55D-9CE049090094";
shapes = (
{
closed = 0;
nodes = (
(360,149,l),
(336,60,o),
(279,16,o),
(225,-27,cs),
(28,-182,o),
(119,-349,o),
(179,-349,cs),
(282,-349,o),
(385,100,o),
(54,39,c),
(243,360,l),
(173,356,o),
(90,341,o),
(25,409,c),
(25,409,o),
(18,236,o),
(0,150,c)
);
}
);
width = 360;
}
);
},
{
glyphname = z.002;
lastChange = "2023-11-10 09:56:02 +0000";
layers = (
{
background = {
shapes = (
{
ref = g;
}
);
};
layerId = "6F9C6BB4-2DCF-443B-A55D-9CE049090094";
shapes = (
{
closed = 0;
nodes = (
(380,149,l),
(356,60,o),
(299,16,o),
(245,-27,cs),
(48,-182,o),
(119,-349,o),
(179,-349,cs),
(218,-349,o),
(241,-288,o),
(241,-215,cs),
(241,-86,o),
(175,72,o),
(54,39,c),
(310,-47,o),
(309,360,o),
(155,360,cs),
(75,360,o),
(46,281,o),
(0,150,c)
);
}
);
width = 380;
}
);
},
{
glyphname = g.salida.alta;
lastChange = "2023-11-21 09:52:07 +0000";
layers = (
{
background = {
shapes = (
{
attr = {
identifier = ID0x7ff0517ce5f0;
lineCapEnd = 1;
lineCapStart = 1;
strokeHeight = 45;
strokeWidth = 40;
};
closed = 0;
nodes = (
(290,356,l),
(290,-110,ls),
(290,-291,o),
(289,-353,o),
(237,-353,cs),
(198,-353,o),
(166,-311,o),
(166,-250,cs),
(166,-110,o),
(258,-80,o),
(353,-30,cs),
(405,-3,o),
(486,143,o),
(496,309,c)
);
}
);
};
guides = (
{
angle = 90;
pos = (116,74);
}
);
layerId = "6F9C6BB4-2DCF-443B-A55D-9CE049090094";
shapes = (
{
alignment = -1;
pos = (3,0);
ref = _part.bucle;
},
{
attr = {
identifier = ID0x7ff0517ce5f0;
lineCapEnd = 1;
lineCapStart = 1;
strokeHeight = 45;
strokeWidth = 40;
};
closed = 0;
nodes = (
(291,356,l),
(291,-110,ls),
(291,-291,o),
(290,-353,o),
(238,-353,cs),
(199,-353,o),
(167,-311,o),
(167,-250,cs),
(167,-14,o),
(497,-10,o),
(497,309,c)
);
}
);
width = 497;
}
);
metricLeft = a;
metricRight = a;
},
{
glyphname = k.sin.ascendente;
lastChange = "2023-11-21 09:52:07 +0000";
layers = (
{
layerId = "6F9C6BB4-2DCF-443B-A55D-9CE049090094";
shapes = (
{
alignment = -1;
pos = (42,0);
ref = _trazo.entra;
},
{
attr = {
identifier = ID0x7f8861dce4a0;
lineCapEnd = 1;
lineCapStart = 1;
strokeHeight = 45;
strokeWidth = 40;
};
closed = 0;
nodes = (
(209,427,l),
(209,357,o),
(188,150,o),
(188,150,c)
);
},
{
attr = {
identifier = ID0x7f88619ae4e0;
lineCapEnd = 1;
lineCapStart = 1;
strokeHeight = 45;
strokeWidth = 40;
};
closed = 0;
nodes = (
(209,457,l),
(209,-5,ls)
);
},
{
attr = {
identifier = ID0x7f885fd0af90;
lineCapEnd = 1;
lineCapStart = 1;
strokeHeight = 45;
strokeWidth = 40;
};
closed = 0;
nodes = (
(414,355,ls),
(381,324,o),
(275,239,o),
(217,191,c),
(294,105,o),
(369,-5,o),
(492,-5,c)
);
}
);
width = 495;
}
);
metricLeft = a;
metricRight = a;
},
{
glyphname = r.higth.conected;
lastChange = "2023-11-10 09:56:02 +0000";
layers = (
{
layerId = "6F9C6BB4-2DCF-443B-A55D-9CE049090094";
shapes = (
{
closed = 0;
nodes = (
(44,90,l),
(57,184,o),
(74,277,o),
(126,360,c),
(154,316,o),
(221,203,o),
(309,230,c)
);
},
{
closed = 0;
nodes = (
(53,360,l),
(41,0,l)
);
},
{
ref = trazo.entrada.vertice;
}
);
width = 304;
}
);
},
{
glyphname = o.sin.entrada;
lastChange = "2023-11-10 09:56:02 +0000";
layers = (
{
background = {
shapes = (
{
attr = {
identifier = ID0x7f885f9429a0;
lineCapEnd = 1;
lineCapStart = 1;
strokeHeight = 45;
strokeWidth = 40;
};
closed = 0;
nodes = (
(159,364,l),
(75,347,o),
(20,286,o),
(20,180,cs),
(20,57,o),
(87,0,o),
(153,0,cs),
(348,0,o),
(330,246,o),
(276,312,cs),
(233,365,o),
(129,392,o),
(129,328,cs)
);
},
{
pos = (110,0);
ref = _trazo.salida.o;
},
{
alignment = -1;
pos = (-130,0);
ref = _trazo.entra;
}
);
};
layerId = "6F9C6BB4-2DCF-443B-A55D-9CE049090094";
shapes = (
{
attr = {
identifier = ID0x7faddaf383a0;
lineCapEnd = 1;
lineCapStart = 1;
strokeHeight = 45;
strokeWidth = 40;
};
closed = 0;
nodes = (
(159,364,l),
(75,347,o),
(20,286,o),
(20,180,cs),
(20,57,o),
(87,0,o),
(153,0,cs),
(348,0,o),
(330,246,o),
(276,312,cs),
(233,365,o),
(129,392,o),
(129,328,cs)
);
},
{
pos = (110,0);
ref = _trazo.salida.o;
}
);
width = 390;
}
);
},
{
glyphname = e.alt.init;
lastChange = "2023-11-10 09:56:02 +0000";
layers = (
{
background = {
shapes = (
{
attr = {
lineCapEnd = "1";
lineCapStart = "1";
strokeHeight = 45;
strokeWidth = 40;
};
closed = 0;
nodes = (
(260,150,ls),
(226,45,o),
(176,-2,o),
(130,-2,cs),
(52,-2,o),
(0,76,o),
(0,206,cs),
(0,260,o),
(19,360,o),
(69,360,cs),
(109,360,o),
(126,326,o),
(126,279,cs),
(126,214,o),
(93,124,o),
(36,64,cs),
(26,54,o),
(12,43,o),
(0,37,c)
);
}
);
};
layerId = "6F9C6BB4-2DCF-443B-A55D-9CE049090094";
shapes = (
{
attr = {
lineCapEnd = "1";
lineCapStart = "1";
strokeHeight = 45;
strokeWidth = 40;
};
closed = 0;
nodes = (
(25,169,l),
(116,180,o),
(239,218,o),
(239,304,cs),
(239,334,o),
(215,367,o),
(165,367,cs),
(76,367,o),
(20,297,o),
(20,193,cs),
(20,56,o),
(93,-5,o),
(177,-5,cs),
(259,-5,o),
(343,58,o),
(391,179,c)
);
}
);
width = 260;
}
);
},
{
glyphname = k.alt.init;
lastChange = "2023-11-21 14:10:19 +0000";
layers = (
{
background = {
shapes = (
{
attr = {
lineCapEnd = "1";
lineCapStart = "1";
strokeHeight = 45;
strokeWidth = 40;
};
closed = 0;
nodes = (
(194,307,l),
(233,374,o),
(315,499,o),
(314,606,cs),
(313,667,o),
(282,709,o),
(243,709,cs),
(191,709,o),
(190,647,o),
(190,466,cs),
(190,0,l)
);
},
{
attr = {
identifier = ID0x7f885fd0af90;
lineCapEnd = "1";
lineCapStart = "1";
strokeHeight = 45;
strokeWidth = 40;
};
closed = 0;
nodes = (
(215,157,l),
(297,108,o),
(381,-5,o),
(447,-5,cs),
(506,-5,o),
(577,53,o),
(587,179,c)
);
},
{
attr = {
lineCapEnd = 1;
lineCapStart = 1;
strokeWidth = 40;
};
closed = 0;
nodes = (
(409,355,l),
(376,324,o),
(278,234,o),
(220,186,c)
);
},
{
alignment = -1;
pos = (40,0);
ref = _trazo.entra;
}
);
};
layerId = "6F9C6BB4-2DCF-443B-A55D-9CE049090094";
shapes = (
{
ref = _trazo.mitte;
},
{
pos = (138,0);
ref = k.alt;
}
);
width = 518;
}
);
metricLeft = a;
metricRight = a;
},
{
glyphname = y.alt.init;
lastChange = "2023-11-21 09:52:07 +0000";
layers = (
{
background = {
shapes = (
{
attr = {
identifier = ID0x7f88617b8650;
lineCapEnd = 1;
lineCapStart = 1;
strokeHeight = 45;
strokeWidth = 40;
};
closed = 0;
nodes = (
(608,170,l),
(608,82,o),
(555,-5,o),
(469,-5,cs)
);
}
);
};
layerId = "6F9C6BB4-2DCF-443B-A55D-9CE049090094";
shapes = (
{
alignment = -1;
pos = (168,0);
ref = y.alt;
},
{
alignment = -1;
pos = (42,0);
ref = _trazo.entra;
}
);
width = 638;
}
);
metricLeft = a;
metricRight = a;
},
{
color = 0;
glyphname = e.top.low;
kernLeft = lc_round;
lastChange = "2023-11-21 09:52:07 +0000";
layers = (
{
anchors = (
{
name = bottom;
pos = (192,0);
},
{
name = ogonek;
pos = (340,10);
},
{
name = top;
pos = (152,360);
}
);
background = {
shapes = (
{
attr = {
identifier = ID0x7fc1c4ebb460;
lineCapEnd = "1";
lineCapStart = "1";
};
closed = 0;
nodes = (
(21,198,l),
(161,185,o),
(227,242,o),
(227,292,cs),
(227,337,o),
(188,362,o),
(145,362,cs),
(87,362,o),
(20,319,o),
(20,221,cs),
(20,71,o),
(95,-5,o),
(178,-5,c)
);
},
{
closed = 0;
nodes = (
(186,-6,ls),
(258,-6,o),
(322,16,o),
(370,50,cs)
);
}
);
};
layerId = "6F9C6BB4-2DCF-443B-A55D-9CE049090094";
shapes = (
{
attr = {
identifier = ID0x7fc1c4ebb460;
lineCapEnd = "1";
lineCapStart = "1";
};
closed = 0;
nodes = (
(21,198,l),
(161,185,o),
(227,242,o),
(227,292,cs),
(227,337,o),
(188,362,o),
(145,362,cs),
(87,362,o),
(20,319,o),
(20,221,cs),
(20,71,o),
(95,-6,o),
(186,-6,cs),
(258,-6,o),
(322,16,o),
(370,50,cs)
);
}
);
width = 350;
}
);
metricRight = a;
},
{
glyphname = p.i.sin.entrada;
kernLeft = lc_stem;
lastChange = "2023-11-21 09:52:07 +0000";
layers = (
{
anchors = (
{
name = bottom;
pos = (227,0);
},
{
name = top;
pos = (227,360);
}
);
background = {
anchors = (
{
name = bottom;
pos = (227,0);
},
{
name = top;
pos = (227,360);
}
);
};
layerId = "6F9C6BB4-2DCF-443B-A55D-9CE049090094";
shapes = (
{
attr = {
identifier = ID0x7fbdf2305160;
lineCapEnd = 1;
lineCapStart = 1;
strokeHeight = 45;
strokeWidth = 40;
};
closed = 0;
nodes = (
(20,357,l),
(20,-320,l)
);
},
{
pos = (3,0);
ref = _arco3;
}
);
width = 318;
}
);
metricRight = a;
},
{
glyphname = t.i.sin.entrada;
kernLeft = lc_stem;
lastChange = "2023-11-21 09:52:07 +0000";
layers = (
{
anchors = (
{
name = bottom;
pos = (98,0);
},
{
name = center;
pos = (98,180);
},
{
name = top;
pos = (98,360);
},
{
name = topright;
pos = (215,710);
}
);
background = {
shapes = (
{
pos = (-171,0);
ref = i;
}
);
};
guides = (
{
pos = (-223,577);
}
);
layerId = "6F9C6BB4-2DCF-443B-A55D-9CE049090094";
shapes = (
{
attr = {
lineCapEnd = 1;
lineCapStart = 1;
strokeHeight = 45;
strokeWidth = 40;
};
closed = 0;
nodes = (
(-79,421,l),
(140,421,l)
);
},
{
attr = {
identifier = ID0x7ff050a29350;
lineCapEnd = 1;
lineCapStart = 1;
strokeHeight = 45;
strokeWidth = 40;
};
closed = 0;
nodes = (
(19,577,l),
(19,100,ls),
(19,33,o),
(59,-5,o),
(105,-5,cs),
(164,-5,o),
(209,53,o),
(255,179,c)
);
}
);
width = 255;
}
);
metricRight = a;
},
{
color = 0;
glyphname = e.despues.de.o;
kernLeft = lc_round;
lastChange = "2023-11-21 09:52:07 +0000";
layers = (
{
anchors = (
{
name = bottom;
pos = (162,0);
},
{
name = ogonek;
pos = (310,10);
},
{
name = top;
pos = (122,360);
}
);
background = {
anchors = (
{
name = bottom;
pos = (162,0);
},
{
name = ogonek;
pos = (310,10);
},
{
name = top;
pos = (122,360);
}
);
shapes = (
{
attr = {
identifier = ID0x7f9d1baad8f0;
lineCapEnd = "1";
lineCapStart = "1";
};
closed = 0;
nodes = (
(21,52,l),
(91,113,o),
(130,206,o),
(130,274,cs),
(130,332,o),
(98,363,o),
(63,363,cs),
(19,363,o),
(-30,315,o),
(-30,221,cs),
(-30,118,o),
(26,-5,o),
(125,-5,cs),
(207,-5,o),
(291,58,o),
(339,179,c)
);
},
{
pos = (160,0);
ref = _trazo.mitte;
}
);
};
layerId = "6F9C6BB4-2DCF-443B-A55D-9CE049090094";
shapes = (
{
attr = {
identifier = ID0x7fb986377f00;
lineCapEnd = "1";
lineCapStart = "1";
};
closed = 0;
nodes = (
(29,150,l),
(133,172,o),
(197,222,o),
(197,290,cs),
(197,336,o),
(161,364,o),
(121,364,cs),
(73,364,o),
(20,322,o),
(20,221,cs),
(20,118,o),
(77,-5,o),
(176,-5,cs)
);
},
{
closed = 0;
nodes = (
(176,-5,ls),
(258,-5,o),
(342,59,o),
(390,180,c)
);
}
);
width = 370;
}
);
metricRight = a;
},
{
glyphname = zero;
lastChange = "2023-11-02 07:54:24 +0000";
layers = (
{
background = {
shapes = (
{
attr = {
lineCapEnd = "1";
lineCapStart = "1";
strokeHeight = 45;
strokeWidth = 40;
};
closed = 1;
nodes = (
(36,495,o),
(139,700,o),
(329,700,cs),
(485,700,o),
(572,565,o),
(575,394,cs),
(579,205,o),
(476,0,o),
(286,0,cs),
(130,0,o),
(43,135,o),
(40,306,cs)
);
}
);
};
layerId = "6F9C6BB4-2DCF-443B-A55D-9CE049090094";
shapes = (
{
attr = {
strokeHeight = 45;
strokeWidth = 40;
};
closed = 1;
nodes = (
(481,-5,o),
(555,153,o),
(555,348,cs),
(555,542,o),
(481,700,o),
(328,700,cs),
(175,700,o),
(101,542,o),
(101,348,cs),
(101,153,o),
(175,-5,o),
(328,-5,cs)
);
}
);
width = 656;
}
);
unicode = 48;
},
{
glyphname = one;
lastChange = "2023-11-02 07:54:23 +0000";
layers = (
{
layerId = "6F9C6BB4-2DCF-443B-A55D-9CE049090094";
shapes = (
{
attr = {
identifier = ID0x7fea05ea0240;
lineCapEnd = 1;
lineCapStart = 1;
strokeHeight = 45;
strokeWidth = 40;
};
closed = 0;
nodes = (
(271,700,l),
(258,0,l)
);
},
{
attr = {
lineCapEnd = 1;
lineCapStart = 1;
strokeHeight = 45;
strokeWidth = 40;
};
closed = 0;
nodes = (
(74,420,l),
(144,503,o),
(209,598,o),
(269,700,c)
);
}
);
width = 400;
}
);
unicode = 49;
},
{
glyphname = two;
lastChange = "2023-11-02 07:54:23 +0000";
layers = (
{
hints = (
{
horizontal = 1;
origin = (0,10);
settings = {
deltaV = {
"{100, 100, 0, 0, 0, 0}" = {
"62" = 0;
};
};
};
type = TTDelta;
},
{
horizontal = 1;
origin = (0,10);
settings = {
deltaV = {
"{100, 100, 0, 0, 0, 0}" = {
"62" = 0;
};
};
};
type = TTDelta;
},
{
horizontal = 1;
origin = (0,10);
settings = {
deltaV = {
"{100, 100, 0, 0, 0, 0}" = {
"62" = 0;
};
};
};
type = TTDelta;
},
{
horizontal = 1;
origin = (0,10);
settings = {
deltaV = {
"{100, 100, 0, 0, 0, 0}" = {
"62" = 0;
};
};
};
type = TTDelta;
},
{
horizontal = 1;
origin = (0,6);
settings = {
deltaV = {
"{100, 100, 0, 0, 0, 0}" = {
"62" = 0;
};
};
};
type = TTDelta;
},
{
horizontal = 1;
origin = (0,6);
settings = {
deltaV = {
"{100, 100, 0, 0, 0, 0}" = {
"62" = 0;
};
};
};
type = TTDelta;
},
{
horizontal = 1;
origin = (0,6);
settings = {
deltaV = {
"{100, 100, 0, 0, 0, 0}" = {
"62" = 0;
};
};
};
type = TTDelta;
},
{
horizontal = 1;
origin = (0,0);
settings = {
deltaV = {
"{100, 100, 0, 0, 0, 0}" = {
"62" = 0;
};
};
};
type = TTDelta;
},
{
horizontal = 1;
origin = (0,0);
settings = {
deltaV = {
"{100, 100, 0, 0, 0, 0}" = {
"62" = 0;
};
};
};
type = TTDelta;
},
{
horizontal = 1;
origin = (0,0);
settings = {
deltaV = {
"{100, 100, 0, 0, 0, 0}" = {
"62" = 0;
};
};
};
type = TTDelta;
},
{
horizontal = 1;
origin = (0,0);
settings = {
deltaV = {
"{100, 100, 0, 0, 0, 0}" = {
"62" = 0;
};
};
};
type = TTDelta;
},
{
horizontal = 1;
origin = (0,0);
settings = {
deltaV = {
"{100, 100, 0, 0, 0, 0}" = {
"62" = 0;
};
};
};
type = TTDelta;
},
{
horizontal = 1;
origin = (0,0);
settings = {
deltaV = {
"{100, 100, 0, 0, 0, 0}" = {
"62" = 0;
};
};
};
type = TTDelta;
}
);
layerId = "6F9C6BB4-2DCF-443B-A55D-9CE049090094";
shapes = (
{
attr = {
identifier = ID0x7fea05e04080;
lineCapEnd = 1;
lineCapStart = 1;
strokeHeight = 45;
strokeWidth = 40;
};
closed = 0;
nodes = (
(115,664,l),
(152,688,o),
(196,699,o),
(239,699,cs),
(331,699,o),
(418,648,o),
(418,556,cs),
(418,428,o),
(331,328,o),
(76,19,c),
(77,14,l),
(456,14,l)
);
}
);
width = 544;
}
);
unicode = 50;
},
{
glyphname = three;
lastChange = "2023-11-02 07:54:23 +0000";
layers = (
{
hints = (
{
horizontal = 1;
origin = (1,9);
settings = {
deltaV = {
"{100, 100, 0, 0, 0, 0}" = {
"62" = 0;
};
};
};
type = TTDelta;
},
{
horizontal = 1;
origin = (1,9);
settings = {
deltaV = {
"{100, 100, 0, 0, 0, 0}" = {
"62" = 0;
};
};
};
type = TTDelta;
},
{
horizontal = 1;
origin = (1,9);
settings = {
deltaV = {
"{100, 100, 0, 0, 0, 0}" = {
"62" = 0;
};
};
};
type = TTDelta;
},
{
horizontal = 1;
origin = (2,6);
settings = {
deltaV = {
"{100, 100, 0, 0, 0, 0}" = {
"62" = 0;
};
};
};
type = TTDelta;
},
{
horizontal = 1;
origin = (0,6);
settings = {
deltaV = {
"{100, 100, 0, 0, 0, 0}" = {
"62" = 0;
};
};
};
type = TTDelta;
},
{
horizontal = 1;
origin = (0,6);
settings = {
deltaV = {
"{100, 100, 0, 0, 0, 0}" = {
"62" = 0;
};
};
};
type = TTDelta;
},
{
horizontal = 1;
origin = (0,6);
settings = {
deltaV = {
"{100, 100, 0, 0, 0, 0}" = {
"62" = 0;
};
};
};
type = TTDelta;
},
{
horizontal = 1;
origin = (0,0);
settings = {
deltaV = {
"{100, 100, 0, 0, 0, 0}" = {
"62" = 0;
};
};
};
type = TTDelta;
},
{
horizontal = 1;
origin = (0,0);
settings = {
deltaV = {
"{100, 100, 0, 0, 0, 0}" = {
"62" = 0;
};
};
};
type = TTDelta;
},
{
horizontal = 1;
origin = (0,0);
settings = {
deltaV = {
"{100, 100, 0, 0, 0, 0}" = {
"62" = 0;
};
};
};
type = TTDelta;
},
{
horizontal = 1;
origin = (0,0);
settings = {
deltaV = {
"{100, 100, 0, 0, 0, 0}" = {
"62" = 0;
};
};
};
type = TTDelta;
},
{
horizontal = 1;
origin = (0,0);
settings = {
deltaV = {
"{100, 100, 0, 0, 0, 0}" = {
"62" = 0;
};
};
};
type = TTDelta;
},
{
horizontal = 1;
origin = (0,0);
settings = {
deltaV = {
"{100, 100, 0, 0, 0, 0}" = {
"62" = 0;
};
};
};
type = TTDelta;
}
);
layerId = "6F9C6BB4-2DCF-443B-A55D-9CE049090094";
shapes = (
{
attr = {
lineCapEnd = 2;
lineCapStart = 2;
strokeHeight = 45;
strokeWidth = 40;
};
closed = 0;
nodes = (
(97,664,l),
(133,688,o),
(177,699,o),
(220,699,cs),
(312,699,o),
(400,648,o),
(401,556,cs),
(404,401,o),
(270,378,o),
(119,358,c)
);
},
{
attr = {
lineCapEnd = 2;
lineCapStart = 2;
strokeHeight = 45;
strokeWidth = 40;
};
closed = 0;
nodes = (
(118,360,l),
(311,360,o),
(425,319,o),
(427,188,cs),
(429,49,o),
(316,0,o),
(213,0,cs),
(150,0,o),
(91,15,o),
(58,38,c)
);
}
);
width = 520;
}
);
unicode = 51;
},
{
glyphname = four;
lastChange = "2023-11-02 07:54:23 +0000";
layers = (
{
layerId = "6F9C6BB4-2DCF-443B-A55D-9CE049090094";
shapes = (
{
attr = {
identifier = ID0x7fe9ed50ee20;
lineCapEnd = 1;
lineCapStart = 1;
strokeHeight = 45;
strokeWidth = 40;
};
closed = 0;
nodes = (
(531,700,l)
);
},
{
attr = {
identifier = ID0x7fe9ed50ee20;
lineCapEnd = 1;
lineCapStart = 1;
strokeHeight = 45;
strokeWidth = 40;
};
closed = 0;
nodes = (
(392,450,l),
(392,0,l)
);
},
{
attr = {
identifier = ID0x7fe9ed50ee20;
lineCapEnd = 1;
lineCapStart = 1;
strokeHeight = 45;
strokeWidth = 40;
};
closed = 0;
nodes = (
(80,239,l),
(505,239,l)
);
},
{
attr = {
lineCapEnd = 1;
lineCapStart = 1;
strokeHeight = 45;
strokeWidth = 40;
};
closed = 0;
nodes = (
(258,695,l),
(77,239,l)
);
}
);
width = 621;
}
);
unicode = 52;
},
{
glyphname = five;
lastChange = "2023-11-02 07:54:23 +0000";
layers = (
{
layerId = "6F9C6BB4-2DCF-443B-A55D-9CE049090094";
shapes = (
{
attr = {
lineCapEnd = "2";
lineCapStart = "2";
strokeHeight = 45;
strokeWidth = 40;
};
closed = 0;
nodes = (
(78,41,l),
(114,16,o),
(178,0,o),
(247,0,cs),
(407,0,o),
(455,106,o),
(455,211,cs),
(455,314,o),
(410,415,o),
(264,415,cs),
(206,415,o),
(148,403,o),
(107,392,c),
(107,701,l),
(452,701,l)
);
}
);
width = 543;
}
);
unicode = 53;
},
{
glyphname = six;
lastChange = "2023-11-02 07:54:24 +0000";
layers = (
{
layerId = "6F9C6BB4-2DCF-443B-A55D-9CE049090094";
shapes = (
{
attr = {
identifier = ID0x7fe9ed5b6e30;
lineCapEnd = 1;
lineCapStart = 1;
strokeHeight = 45;
strokeWidth = 40;
};
closed = 0;
nodes = (
(416,682,l),
(392,697,o),
(346,705,o),
(316,705,cs),
(181,705,o),
(111,547,o),
(104,353,cs),
(97,158,o),
(155,0,o),
(291,0,cs),
(421,0,o),
(482,104,o),
(483,209,cs),
(485,315,o),
(427,421,o),
(318,421,cs),
(249,421,o),
(170,377,o),
(108,278,c)
);
}
);
width = 571;
}
);
unicode = 54;
},
{
glyphname = seven;
lastChange = "2023-11-02 07:54:23 +0000";
layers = (
{
layerId = "6F9C6BB4-2DCF-443B-A55D-9CE049090094";
shapes = (
{
attr = {
identifier = ID0x7fe9ed852dc0;
lineCapEnd = 1;
lineCapStart = 1;
strokeHeight = 45;
strokeWidth = 40;
};
closed = 0;
nodes = (
(428,695,l),
(140,4,l)
);
},
{
attr = {
identifier = ID0x7fe9ed852dc0;
lineCapEnd = 1;
lineCapStart = 1;
strokeHeight = 45;
strokeWidth = 40;
};
closed = 0;
nodes = (
(78,700,l),
(428,700,l)
);
},
{
attr = {
identifier = ID0x7fe9ed852dc0;
lineCapEnd = "1";
lineCapStart = "1";
strokeHeight = 45;
strokeWidth = 40;
};
closed = 0;
nodes = (
(129,340,l),
(396,340,l)
);
}
);
width = 507;
}
);
unicode = 55;
},
{
glyphname = eight;
lastChange = "2023-11-02 07:54:24 +0000";
layers = (
{
hints = (
{
horizontal = 1;
origin = (0,18);
settings = {
deltaV = {
"{100, 100, 0, 0, 0, 0}" = {
"62" = 0;
};
};
};
type = TTDelta;
},
{
horizontal = 1;
origin = (0,18);
settings = {
deltaV = {
"{100, 100, 0, 0, 0, 0}" = {
"62" = 0;
};
};
};
type = TTDelta;
},
{
horizontal = 1;
origin = (0,18);
settings = {
deltaV = {
"{100, 100, 0, 0, 0, 0}" = {
"62" = 0;
};
};
};
type = TTDelta;
},
{
horizontal = 1;
origin = (0,15);
settings = {
deltaV = {
"{100, 100, 0, 0, 0, 0}" = {
"62" = 0;
};
};
};
type = TTDelta;
},
{
horizontal = 1;
origin = (0,9);
settings = {
deltaV = {
"{100, 100, 0, 0, 0, 0}" = {
"62" = 0;
};
};
};
type = TTDelta;
},
{
horizontal = 1;
origin = (0,9);
settings = {
deltaV = {
"{100, 100, 0, 0, 0, 0}" = {
"62" = 0;
};
};
};
type = TTDelta;
},
{
horizontal = 1;
origin = (0,9);
settings = {
deltaV = {
"{100, 100, 0, 0, 0, 0}" = {
"62" = 0;
};
};
};
type = TTDelta;
},
{
horizontal = 1;
origin = (0,6);
settings = {
deltaV = {
"{100, 100, 0, 0, 0, 0}" = {
"62" = 0;
};
};
};
type = TTDelta;
},
{
horizontal = 1;
origin = (0,6);
settings = {
deltaV = {
"{100, 100, 0, 0, 0, 0}" = {
"62" = 0;
};
};
};
type = TTDelta;
},
{
horizontal = 1;
origin = (0,6);
settings = {
deltaV = {
"{100, 100, 0, 0, 0, 0}" = {
"62" = 0;
};
};
};
type = TTDelta;
},
{
horizontal = 1;
origin = (0,6);
settings = {
deltaV = {
"{100, 100, 0, 0, 0, 0}" = {
"62" = 0;
};
};
};
type = TTDelta;
},
{
horizontal = 1;
origin = (0,6);
settings = {
deltaV = {
"{100, 100, 0, 0, 0, 0}" = {
"62" = 0;
};
};
};
type = TTDelta;
},
{
horizontal = 1;
origin = (0,6);
settings = {
deltaV = {
"{100, 100, 0, 0, 0, 0}" = {
"62" = 0;
};
};
};
type = TTDelta;
}
);
layerId = "6F9C6BB4-2DCF-443B-A55D-9CE049090094";
shapes = (
{
attr = {
identifier = ID0x7fe9ef5fe080;
lineCapEnd = 1;
lineCapStart = 1;
strokeHeight = 45;
strokeWidth = 40;
};
closed = 0;
nodes = (
(348,352,ls),
(426,408,o),
(465,485,o),
(465,552,cs),
(465,632,o),
(409,699,o),
(301,699,cs),
(209,699,o),
(124,648,o),
(129,556,cs),
(134,464,o),
(220,411,o),
(300,367,cs),
(384,321,o),
(468,274,o),
(474,188,cs),
(485,49,o),
(370,0,o),
(287,0,cs),
(157,0,o),
(90,81,o),
(90,174,cs),
(90,252,o),
(138,339,o),
(236,392,cs)
);
}
);
width = 573;
}
);
unicode = 56;
},
{
glyphname = nine;
lastChange = "2023-11-02 07:54:24 +0000";
layers = (
{
layerId = "6F9C6BB4-2DCF-443B-A55D-9CE049090094";
shapes = (
{
attr = {
identifier = ID0x7fe9ed288520;
lineCapEnd = 1;
lineCapStart = 1;
strokeHeight = 45;
strokeWidth = 40;
};
closed = 0;
nodes = (
(155,28,l),
(179,13,o),
(225,5,o),
(255,5,cs),
(390,5,o),
(467,116,o),
(467,357,cs),
(467,552,o),
(416,710,o),
(280,710,cs),
(150,710,o),
(89,606,o),
(88,501,cs),
(86,395,o),
(144,289,o),
(253,289,cs),
(322,289,o),
(388,314,o),
(463,375,c)
);
}
);
width = 572;
}
);
unicode = 57;
},
{
glyphname = comma;
lastChange = "2020-10-10 12:50:01 +0000";
layers = (
{
layerId = "6F9C6BB4-2DCF-443B-A55D-9CE049090094";
shapes = (
{
closed = 0;
nodes = (
(96,-131,l),
(155,-70,o),
(192,-11,o),
(187,46,cs),
(185,69,o),
(167,90,o),
(143,90,cs),
(118,90,o),
(98,70,o),
(98,46,cs),
(98,21,o),
(118,1,o),
(143,1,c)
);
}
);
width = 284;
}
);
unicode = 44;
},
{
glyphname = colon;
lastChange = "2020-10-10 12:51:44 +0000";
layers = (
{
layerId = "6F9C6BB4-2DCF-443B-A55D-9CE049090094";
shapes = (
{
closed = 0;
nodes = (
(178,89,l),
(107,0,ls)
);
},
{
closed = 0;
nodes = (
(107,89,l),
(178,0,ls)
);
},
{
closed = 0;
nodes = (
(178,359,l),
(107,270,ls)
);
},
{
closed = 0;
nodes = (
(107,359,l),
(178,270,ls)
);
}
);
width = 285;
}
);
unicode = 58;
},
{
glyphname = semicolon;
lastChange = "2020-10-10 12:51:36 +0000";
layers = (
{
layerId = "6F9C6BB4-2DCF-443B-A55D-9CE049090094";
shapes = (
{
closed = 0;
nodes = (
(171,359,l),
(100,270,ls)
);
},
{
closed = 0;
nodes = (
(100,359,l),
(171,270,ls)
);
},
{
ref = comma;
}
);
width = 284;
}
);
unicode = 59;
},
{
glyphname = hyphen;
lastChange = "2020-10-10 15:04:49 +0000";
layers = (
{
layerId = "6F9C6BB4-2DCF-443B-A55D-9CE049090094";
shapes = (
{
closed = 0;
nodes = (
(117,270,l),
(474,270,l)
);
}
);
width = 600;
}
);
unicode = 45;
},
{
glyphname = underscore;
lastChange = "2020-10-10 15:04:41 +0000";
layers = (
{
layerId = "6F9C6BB4-2DCF-443B-A55D-9CE049090094";
shapes = (
{
closed = 0;
nodes = (
(117,153,l),
(474,153,l)
);
}
);
width = 600;
}
);
unicode = 95;
},
{
glyphname = quotesingle;
lastChange = "2023-10-30 13:03:21 +0000";
layers = (
{
background = {
shapes = (
{
closed = 0;
nodes = (
(81,399,l),
(110,480,o),
(122,541,o),
(122,576,cs),
(122,600,o),
(109,630,o),
(66,630,c)
);
}
);
};
layerId = "6F9C6BB4-2DCF-443B-A55D-9CE049090094";
shapes = (
{
attr = {
identifier = ID0x7ff0483eaca0;
lineCapEnd = 1;
lineCapStart = 1;
strokeHeight = 45;
strokeWidth = 40;
};
closed = 0;
nodes = (
(100,625,l),
(134,613,o),
(140,507,o),
(81,399,c)
);
}
);
width = 205;
}
);
unicode = 39;
},
{
glyphname = dotaccentcomb;
lastChange = "2023-10-17 09:59:37 +0000";
layers = (
{
anchors = (
{
name = _top;
pos = (39,360);
},
{
name = top;
pos = (39,545);
}
);
layerId = "6F9C6BB4-2DCF-443B-A55D-9CE049090094";
shapes = (
{
closed = 1;
nodes = (
(57,461,o),
(68,474,o),
(68,503,cs),
(68,529,o),
(57,545,o),
(38,545,cs),
(20,545,o),
(9,531,o),
(9,503,cs),
(9,476,o),
(19,461,o),
(38,461,cs)
);
}
);
width = 121;
}
);
unicode = 775;
},
{
glyphname = grave;
lastChange = "2023-10-20 12:53:56 +0000";
layers = (
{
layerId = "6F9C6BB4-2DCF-443B-A55D-9CE049090094";
shapes = (
{
attr = {
lineCapEnd = "1";
lineCapStart = "1";
strokeWidth = 40;
};
closed = 0;
nodes = (
(20,604,l),
(138,484,l)
);
}
);
width = 158;
}
);
unicode = 96;
},
{
glyphname = acute;
lastChange = "2023-10-17 12:06:16 +0000";
layers = (
{
background = {
shapes = (
{
pos = (-259,0);
ref = a;
}
);
};
layerId = "6F9C6BB4-2DCF-443B-A55D-9CE049090094";
shapes = (
{
attr = {
lineCapEnd = 1;
lineCapStart = 1;
strokeWidth = 40;
};
closed = 0;
nodes = (
(20,484,l),
(138,604,l)
);
}
);
width = 238;
}
);
unicode = 180;
},
{
glyphname = tilde;
lastChange = "2023-11-21 08:26:31 +0000";
layers = (
{
layerId = "6F9C6BB4-2DCF-443B-A55D-9CE049090094";
shapes = (
{
attr = {
lineCapEnd = "1";
lineCapStart = "1";
};
closed = 0;
nodes = (
(30,507,l),
(50,539,o),
(60,558,o),
(99,558,cs),
(148,558,o),
(196,498,o),
(248,498,cs),
(284,498,o),
(295,521,o),
(315,550,c)
);
}
);
width = 345;
}
);
unicode = 732;
},
{
glyphname = cedilla;
lastChange = "2023-10-30 13:01:50 +0000";
layers = (
{
background = {
shapes = (
{
ref = c;
}
);
};
layerId = "6F9C6BB4-2DCF-443B-A55D-9CE049090094";
shapes = (
{
attr = {
lineCapEnd = 1;
lineCapStart = 1;
strokeHeight = 45;
strokeWidth = 40;
};
closed = 0;
nodes = (
(315,89,l),
(287,14,o),
(248,-62,o),
(173,-140,c)
);
}
);
width = 437;
}
);
unicode = 184;
},
{
glyphname = _part.bucle;
lastChange = "2023-11-21 09:52:45 +0000";
layers = (
{
background = {
shapes = (
{
attr = {
lineCapEnd = 1;
lineCapStart = 1;
strokeHeight = 45;
strokeWidth = 40;
};
closed = 0;
nodes = (
(276,355,l),
(240,362,o),
(208,365,o),
(180,365,cs),
(69,365,o),
(18,308,o),
(18,150,cs),
(18,79,o),
(61,0,o),
(145,0,cs),
(203,0,o),
(278,50,o),
(278,150,c)
);
}
);
};
layerId = "6F9C6BB4-2DCF-443B-A55D-9CE049090094";
shapes = (
{
attr = {
lineCapEnd = 1;
lineCapStart = 1;
};
closed = 0;
nodes = (
(286,355,l),
(257,361,o),
(220,364,o),
(194,364,cs),
(88,364,o),
(17,311,o),
(17,180,cs),
(17,42,o),
(81,-5,o),
(150,-5,cs),
(214,-5,o),
(278,50,o),
(288,150,c)
);
}
);
width = 296;
}
);
},
{
export = 0;
glyphname = _part.n.ground;
lastChange = "2023-09-25 07:23:07 +0000";
layers = (
{
background = {
shapes = (
{
closed = 0;
nodes = (
(11,191,l),
(7,305,o),
(55,360,o),
(109,360,cs),
(168,360,o),
(201,316,o),
(201,227,cs),
(201,100,ls),
(201,30,o),
(224,0,o),
(254,0,c)
);
}
);
};
guides = (
{
angle = 80.8858;
pos = (15,214);
}
);
layerId = "6F9C6BB4-2DCF-443B-A55D-9CE049090094";
shapes = (
{
closed = 0;
nodes = (
(201,191,l),
(206,305,o),
(249,360,o),
(303,360,cs),
(362,360,o),
(395,316,o),
(395,227,cs),
(395,100,ls),
(395,30,o),
(418,0,o),
(448,0,c)
);
},
{
closed = 0;
nodes = (
(201,0,l),
(201,227,ls),
(201,316,o),
(183,360,o),
(127,360,cs),
(45,360,o),
(26,281,o),
(0,150,c)
);
}
);
width = 448;
}
);
},
{
export = 0;
glyphname = _part.n.init;
lastChange = "2023-09-22 12:22:33 +0000";
layers = (
{
anchors = (
{
name = origin;
pos = (147,360);
}
);
guides = (
{
angle = 65.4752;
pos = (32,113);
}
);
layerId = "6F9C6BB4-2DCF-443B-A55D-9CE049090094";
shapes = (
{
closed = 0;
nodes = (
(25,100,l),
(68,193,o),
(82,360,o),
(147,360,cs)
);
}
);
width = 147;
}
);
},
{
export = 0;
glyphname = _part.n.tr.entra.largo;
lastChange = "2023-09-22 13:49:24 +0000";
layers = (
{
layerId = "6F9C6BB4-2DCF-443B-A55D-9CE049090094";
shapes = (
{
closed = 0;
nodes = (
(0,0,l),
(48,174,o),
(77,360,o),
(142,360,cs)
);
}
);
width = 142;
}
);
},
{
export = 0;
glyphname = _part.n.tr.entra.sale.medio.alto;
lastChange = "2023-09-25 10:24:01 +0000";
layers = (
{
background = {
shapes = (
{
closed = 0;
nodes = (
(0,0,l),
(33,0,o),
(76,33,o),
(106,100,cs)
);
}
);
};
guides = (
{
angle = 260.5377;
pos = (101,120);
}
);
layerId = "6F9C6BB4-2DCF-443B-A55D-9CE049090094";
shapes = (
{
closed = 0;
nodes = (
(106,237,ls),
(87,101,o),
(34,0,o),
(0,0,c)
);
}
);
width = 106;
}
);
},
{
glyphname = arco;
lastChange = "2020-10-09 10:17:16 +0000";
layers = (
{
background = {
shapes = (
{
closed = 0;
nodes = (
(0,0,l),
(6,154,l),
(40,253,o),
(96,360,o),
(181,360,cs),
(221,360,o),
(233,244,o),
(221,75,cs)
);
}
);
};
layerId = "6F9C6BB4-2DCF-443B-A55D-9CE049090094";
shapes = (
{
closed = 0;
nodes = (
(214,0,l),
(222,219,ls),
(226,337,o),
(219,360,o),
(179,360,cs),
(124,360,o),
(6,179,o),
(3,91,cs),
(0,0,l)
);
}
);
width = 223;
}
);
},
{
glyphname = "baston-descendente";
lastChange = "2023-09-19 10:58:50 +0000";
layers = (
{
background = {
shapes = (
{
closed = 0;
nodes = (
(-8,270,l),
(-29,-325,ls)
);
},
{
closed = 0;
nodes = (
(192,230,l),
(130,83,o),
(36,0,o),
(1,0,cs),
(-6,0,o),
(-14,4,o),
(-18,8,c)
);
}
);
};
layerId = "6F9C6BB4-2DCF-443B-A55D-9CE049090094";
shapes = (
{
closed = 0;
nodes = (
(0,360,l),
(0,-325,l),
(0,-325,o),
(112,-299,o),
(112,-165,cs),
(112,-46,o),
(1,0,o),
(1,0,c),
(67,0,o),
(147,66,o),
(174,150,c)
);
}
);
width = 174;
}
);
},
{
glyphname = espacio;
lastChange = "2020-10-08 09:51:03 +0000";
layers = (
{
layerId = "6F9C6BB4-2DCF-443B-A55D-9CE049090094";
shapes = (
{
closed = 1;
nodes = (
(361,660,ls),
(363,687,o),
(360,699,o),
(333,699,cs),
(61,700,l),
(0,39,ls),
(-2,12,o),
(1,0,o),
(28,0,cs),
(300,-1,l)
);
}
);
width = 351;
}
);
},
{
color = 0;
glyphname = "l-o";
lastChange = "2023-09-25 10:34:20 +0000";
layers = (
{
background = {
shapes = (
{
closed = 0;
nodes = (
(99,0,l),
(31,0,o),
(0,176,o),
(0,353,cs),
(0,411,o),
(0,709,o),
(90,709,cs),
(130,709,o),
(144,667,o),
(144,606,cs),
(144,490,o),
(76,272,o),
(15,153,cs)
);
}
);
};
guides = (
{
angle = 84.5324;
pos = (-13,351);
}
);
layerId = "6F9C6BB4-2DCF-443B-A55D-9CE049090094";
shapes = (
{
closed = 0;
nodes = (
(99,0,l),
(31,0,o),
(0,176,o),
(0,353,cs),
(0,411,o),
(0,709,o),
(90,709,cs),
(130,709,o),
(144,667,o),
(144,606,cs),
(144,490,o),
(95,341,o),
(4,250,cs)
);
},
{
pos = (99,0);
ref = _trazo.entra;
}
);
width = 205;
}
);
},
{
glyphname = periodcenterded;
lastChange = "2023-10-31 14:20:21 +0000";
layers = (
{
guides = (
{
pos = (68,390);
}
);
layerId = "6F9C6BB4-2DCF-443B-A55D-9CE049090094";
shapes = (
{
closed = 1;
nodes = (
(57,306,o),
(68,319,o),
(68,348,cs),
(68,374,o),
(57,390,o),
(38,390,cs),
(20,390,o),
(9,376,o),
(9,348,cs),
(9,321,o),
(19,306,o),
(38,306,cs)
);
}
);
width = 121;
}
);
},
{
glyphname = prueba;
lastChange = "2023-09-29 09:18:09 +0000";
layers = (
{
layerId = "6F9C6BB4-2DCF-443B-A55D-9CE049090094";
shapes = (
{
attr = {
lineCapEnd = 1;
lineCapStart = 1;
strokeWidth = 35;
};
closed = 0;
nodes = (
(294,563,l),
(294,382,o),
(294,60,o),
(294,21,cs),
(294,-92,o),
(159,-22,o),
(171,82,cs),
(183,186,o),
(504,-85,o),
(622,-30,cs),
(740,25,o),
(809,962,o),
(202,475,cs),
(21,330,o),
(-17,221,o),
(119,165,c)
);
}
);
width = 738;
}
);
},
{
glyphname = _a.base;
lastChange = "2023-11-10 10:29:34 +0000";
layers = (
{
background = {
shapes = (
{
attr = {
identifier = ID0x7f7de989f3a0;
lineCapEnd = "1";
lineCapStart = "1";
strokeHeight = 45;
strokeWidth = 40;
};
closed = 0;
nodes = (
(291,357,l),
(291,110,ls),
(291,39,o),
(335,-5,o),
(390,-5,cs)
);
}
);
};
layerId = "6F9C6BB4-2DCF-443B-A55D-9CE049090094";
shapes = (
{
alignment = -1;
pos = (3,0);
ref = _part.bucle;
},
{
attr = {
identifier = ID0x7f7de989f3a0;
lineCapEnd = "1";
lineCapStart = "1";
};
closed = 0;
nodes = (
(291,357,l),
(291,150,l)
);
},
{
pos = (291,0);
ref = _conector.glifo.salida;
}
);
width = 392;
}
);
},
{
glyphname = _l.base;
lastChange = "2023-11-10 13:22:47 +0000";
layers = (
{
layerId = "6F9C6BB4-2DCF-443B-A55D-9CE049090094";
shapes = (
{
attr = {
identifier = ID0x7f9d1baad8f0;
lineCapEnd = "1";
lineCapStart = "1";
};
closed = 0;
nodes = (
(21,180,l),
(62,267,o),
(133,471,o),
(141,596,cs),
(146,678,o),
(113,700,o),
(82,700,cs),
(4,700,o),
(3,472,o),
(3,404,cs),
(3,172,o),
(50,-5,o),
(151,-5,c)
);
}
);
width = 151;
}
);
},
{
glyphname = baston.ascendente;
lastChange = "2020-10-09 09:19:25 +0000";
layers = (
{
background = {
shapes = (
{
closed = 0;
nodes = (
(67,630,l),
(10,170,ls),
(-1,83,o),
(-7,0,o),
(12,0,cs),
(94,0,o),
(261,277,o),
(301,330,c)
);
}
);
};
layerId = "6F9C6BB4-2DCF-443B-A55D-9CE049090094";
shapes = (
{
closed = 1;
nodes = (
(34,170,l),
(115,170,l),
(115,360,l),
(34,360,l)
);
}
);
width = 166;
}
);
},
{
glyphname = baston.caps;
lastChange = "2020-10-09 15:29:46 +0000";
layers = (
{
layerId = "6F9C6BB4-2DCF-443B-A55D-9CE049090094";
shapes = (
{
closed = 0;
nodes = (
(50,700,l),
(144,700,o),
(150,699,o),
(146,588,cs),
(125,0,l)
);
}
);
width = 197;
}
);
},
{
glyphname = bucle.ascendente;
lastChange = "2023-09-19 10:16:08 +0000";
layers = (
{
background = {
shapes = (
{
closed = 0;
nodes = (
(-2,90,l),
(17,651,ls),
(19,700,o),
(32,735,o),
(63,735,cs),
(100,735,o),
(115,702,o),
(115,650,cs),
(115,541,o),
(49,361,o),
(3,238,c)
);
}
);
};
guides = (
{
angle = 70.887;
pos = (17,201);
}
);
layerId = "6F9C6BB4-2DCF-443B-A55D-9CE049090094";
shapes = (
{
closed = 0;
nodes = (
(11,103,l),
(119,290,o),
(201,735,o),
(71,735,cs),
(30,735,o),
(2,673,o),
(2,467,cs),
(2,86,o),
(32,0,o),
(93,0,cs)
);
}
);
width = 115;
}
);
},
{
glyphname = bucle.descendente;
lastChange = "2020-10-10 12:06:04 +0000";
layers = (
{
background = {
shapes = (
{
closed = 0;
nodes = (
(124,270,l),
(106,-240,ls),
(104,-299,o),
(90,-324,o),
(60,-324,cs),
(27,-324,o),
(0,-294,o),
(0,-244,cs),
(0,-166,o),
(64,-99,o),
(164,20,cs),
(223,90,o),
(287,167,o),
(315,230,c)
);
}
);
};
layerId = "6F9C6BB4-2DCF-443B-A55D-9CE049090094";
shapes = (
{
closed = 0;
nodes = (
(127,360,l),
(106,-240,ls),
(104,-299,o),
(90,-324,o),
(60,-324,cs),
(27,-324,o),
(0,-294,o),
(0,-244,cs),
(0,-166,o),
(64,-99,o),
(164,20,cs),
(223,90,o),
(287,167,o),
(315,230,c)
);
}
);
width = 310;
}
);
},
{
glyphname = arco.con.salida;
lastChange = "2020-10-10 12:07:45 +0000";
layers = (
{
background = {
shapes = (
{
closed = 0;
nodes = (
(0,0,l),
(6,154,l),
(40,253,o),
(96,360,o),
(181,360,cs),
(221,360,o),
(233,244,o),
(221,75,cs)
);
}
);
};
layerId = "6F9C6BB4-2DCF-443B-A55D-9CE049090094";
shapes = (
{
closed = 0;
nodes = (
(420,230,l),
(364,83,o),
(280,0,o),
(249,0,cs),
(216,0,o),
(215,38,o),
(218,119,cs),
(222,219,ls),
(227,337,o),
(219,360,o),
(179,360,cs),
(124,360,o),
(6,179,o),
(3,91,cs),
(0,0,l)
);
}
);
width = 415;
}
);
},
{
glyphname = trazo.entrada.curvo;
lastChange = "2020-10-09 12:32:40 +0000";
layers = (
{
background = {
shapes = (
{
closed = 0;
nodes = (
(160,0,l),
(179,153,ls),
(197,300,o),
(196,360,o),
(175,360,cs),
(147,360,o),
(81,265,o),
(11,170,cs)
);
}
);
};
layerId = "6F9C6BB4-2DCF-443B-A55D-9CE049090094";
shapes = (
{
closed = 0;
nodes = (
(5,230,l),
(33,291,o),
(66,359,o),
(101,359,cs),
(124,359,o),
(125,321,o),
(122,240,cs),
(116,90,l)
);
}
);
width = 299;
}
);
},
{
glyphname = trazo.entrada.vertice;
lastChange = "2020-10-10 12:05:29 +0000";
layers = (
{
background = {
shapes = (
{
closed = 0;
nodes = (
(41,0,l),
(53,360,l)
);
}
);
};
layerId = "6F9C6BB4-2DCF-443B-A55D-9CE049090094";
shapes = (
{
closed = 0;
nodes = (
(53,360,l)
);
},
{
closed = 0;
nodes = (
(53,359,l),
(41,318,o),
(27,279,o),
(5,230,c)
);
}
);
width = 53;
}
);
},
{
glyphname = trazo.salida.bajo;
lastChange = "2023-09-19 10:13:15 +0000";
layers = (
{
background = {
shapes = (
{
closed = 0;
nodes = (
(304,230,l),
(242,83,o),
(148,0,o),
(113,0,cs),
(80,0,o),
(79,38,o),
(82,119,cs),
(87,270,l)
);
}
);
};
guides = (
{
angle = 70.887;
pos = (316,201);
}
);
layerId = "6F9C6BB4-2DCF-443B-A55D-9CE049090094";
shapes = (
{
closed = 0;
nodes = (
(306,100,l),
(266,39,o),
(221,0,o),
(173,0,cs),
(129,0,o),
(91,31,o),
(91,119,cs),
(91,360,l)
);
}
);
width = 299;
}
);
},
{
glyphname = trazo.salida.v;
lastChange = "2023-09-19 09:56:34 +0000";
layers = (
{
background = {
shapes = (
{
closed = 0;
nodes = (
(-1,90,l),
(-5,10,o),
(5,0,o),
(41,0,cs),
(111,0,o),
(216,143,o),
(216,260,cs),
(216,292,o),
(206,311,o),
(190,330,cs),
(155,370,o),
(109,360,o),
(109,329,cs),
(109,249,o),
(260,217,o),
(362,230,c)
);
},
{
closed = 0;
nodes = (
(221,354,l),
(191,358,o),
(111,361,o),
(81,361,cs),
(39,361,o),
(0,252,o),
(0,182,cs),
(0,56,o),
(38,1,o),
(81,1,cs),
(140,1,o),
(209,102,o),
(217,270,cs),
(221,350,l)
);
}
);
};
layerId = "6F9C6BB4-2DCF-443B-A55D-9CE049090094";
shapes = (
{
closed = 0;
nodes = (
(94,0,l),
(166,0,o),
(231,105,o),
(231,201,cs),
(231,253,o),
(199,321,o),
(140,356,c),
(168,251,o),
(228,218,o),
(362,230,c)
);
}
);
width = 357;
}
);
},
{
export = 0;
glyphname = _a;
lastChange = "2023-10-17 07:31:20 +0000";
layers = (
{
layerId = "6F9C6BB4-2DCF-443B-A55D-9CE049090094";
shapes = (
{
closed = 1;
nodes = (
(251,370,o),
(177,370,qs),
(105,370,o),
(49,310,qs),
(-10,247,o),
(-10,161,qs),
(-10,91,o),
(77,-3,o),
(140,-3,qs),
(230,-3,o),
(291,84,q),
(290,56,o),
(307,30,qs),
(329,-3,o),
(365,-3,qs),
(420,-3,o),
(448,45,qs),
(542,210,l),
(510,229,l),
(416,63,ls),
(400,33,o),
(365,33,qs),
(348,33,o),
(327,65,o),
(327,84,qs),
(327,366,l),
(291,366,l),
(291,315,l)
);
},
{
closed = 1;
nodes = (
(291,184,qs),
(291,123,o),
(191,33,o),
(136,33,qs),
(89,33,o),
(27,107,o),
(27,165,qs),
(27,235,o),
(77,287,qs),
(123,335,o),
(176,335,qs),
(291,335,o)
);
}
);
width = 600;
}
);
},
{
export = 0;
glyphname = _arco1;
lastChange = "2023-11-10 09:12:36 +0000";
layers = (
{
layerId = "6F9C6BB4-2DCF-443B-A55D-9CE049090094";
shapes = (
{
attr = {
lineCapEnd = 1;
lineCapStart = 1;
};
closed = 0;
nodes = (
(192,0,l),
(192,237,ls),
(192,326,o),
(171,360,o),
(122,360,cs),
(62,360,o),
(39,294,o),
(0,180,cs)
);
}
);
width = 192;
}
);
},
{
export = 0;
glyphname = _arco2;
lastChange = "2023-11-10 09:12:44 +0000";
layers = (
{
background = {
shapes = (
{
attr = {
identifier = ID0x7fba9a5d4e30;
lineCapEnd = 1;
lineCapStart = 1;
strokeHeight = 45;
strokeWidth = 40;
};
closed = 0;
nodes = (
(-3,171,l),
(3,305,o),
(83,360,o),
(142,360,cs),
(201,360,o),
(241,327,o),
(241,237,cs),
(241,0,l)
);
}
);
};
layerId = "6F9C6BB4-2DCF-443B-A55D-9CE049090094";
shapes = (
{
attr = {
lineCapEnd = "1";
lineCapStart = "1";
};
closed = 0;
nodes = (
(0,171,l),
(6,305,o),
(76,360,o),
(135,360,cs),
(199,360,o),
(234,327,o),
(234,237,cs),
(234,0,ls)
);
}
);
width = 234;
}
);
},
{
export = 0;
glyphname = _arco3;
lastChange = "2023-11-10 11:55:37 +0000";
layers = (
{
background = {
shapes = (
{
attr = {
lineCapEnd = 1;
lineCapStart = 1;
};
closed = 0;
nodes = (
(0,171,l),
(6,305,o),
(76,360,o),
(135,360,cs),
(199,360,o),
(234,327,o),
(234,237,cs),
(234,150,l)
);
},
{
pos = (234,0);
ref = _conector.glifo.salida;
},
{
pos = (313,0);
ref = _trazo.mitte;
}
);
};
layerId = "6F9C6BB4-2DCF-443B-A55D-9CE049090094";
shapes = (
{
attr = {
lineCapEnd = 1;
lineCapStart = 1;
};
closed = 0;
nodes = (
(0,171,l),
(6,305,o),
(76,360,o),
(135,360,cs),
(199,360,o),
(234,327,o),
(234,237,cs),
(234,150,l)
);
},
{
pos = (234,0);
ref = _conector.glifo.salida;
}
);
width = 335;
}
);
},
{
export = 0;
glyphname = _n;
lastChange = "2023-10-17 07:29:23 +0000";
layers = (
{
layerId = "6F9C6BB4-2DCF-443B-A55D-9CE049090094";
shapes = (
{
closed = 1;
nodes = (
(385,52,o),
(401,27,qs),
(421,-3,o),
(454,-3,qs),
(504,-3,o),
(529,41,qs),
(615,191,l),
(586,208,l),
(500,58,ls),
(484,30,o),
(454,30,qs),
(437,30,o),
(427,49,qs),
(419,63,o),
(419,77,qs),
(419,208,ls),
(419,266,o),
(384,302,qs),
(352,335,o),
(309,335,qs),
(241,335,o),
(184,246,q),
(189,283,o),
(154,336,o),
(124,336,qs),
(82,336,o),
(52,298,q),
(0,208,l),
(29,191,l),
(78,277,l),
(91,294,o),
(105,303,o),
(124,303,qs),
(137,303,o),
(155,274,o),
(153,250,q),
(153,0,l),
(186,0,l),
(186,155,l),
(191,196,o),
(212,229,qs),
(257,301,o),
(309,301,qs),
(339,301,o),
(385,251,o),
(385,208,qs),
(385,77,ls)
);
}
);
width = 600;
}
);
},
{
export = 0;
glyphname = _arco.v;
lastChange = "2023-11-10 09:38:05 +0000";
layers = (
{
layerId = "6F9C6BB4-2DCF-443B-A55D-9CE049090094";
shapes = (
{
attr = {
identifier = ID0x7fe6d54ed9c0;
lineCapEnd = 1;
lineCapStart = 1;
};
closed = 0;
nodes = (
(192,150,l),
(192,237,ls),
(192,326,o),
(171,360,o),
(122,360,cs),
(62,360,o),
(39,294,o),
(0,180,cs)
);
}
);
width = 192;
}
);
},
{
export = 0;
glyphname = _arco3.low;
lastChange = "2023-11-03 15:23:51 +0000";
layers = (
{
background = {
shapes = (
{
attr = {
lineCapEnd = 1;
lineCapStart = 1;
strokeHeight = 45;
strokeWidth = 40;
};
closed = 0;
nodes = (
(17,171,l),
(23,305,o),
(93,360,o),
(152,360,cs),
(216,360,o),
(251,327,o),
(251,237,cs),
(251,100,ls),
(251,33,o),
(291,-5,o),
(337,-5,cs),
(396,-5,o),
(441,53,o),
(487,179,c)
);
}
);
};
layerId = "6F9C6BB4-2DCF-443B-A55D-9CE049090094";
shapes = (
{
attr = {
lineCapEnd = 1;
lineCapStart = 1;
strokeHeight = 45;
strokeWidth = 40;
};
closed = 0;
nodes = (
(17,171,l),
(23,305,o),
(93,360,o),
(152,360,cs),
(216,360,o),
(251,327,o),
(251,237,cs),
(251,100,ls),
(251,18,o),
(291,-5,o),
(340,-5,cs),
(388,-5,o),
(444,15,o),
(485,49,cs)
);
}
);
width = 468;
}
);
},
{
export = 0;
glyphname = _bucle.decendente;
lastChange = "2023-11-21 10:13:06 +0000";
layers = (
{
background = {
shapes = (
{
pos = (150,0);
ref = _trazo.mitte;
}
);
};
layerId = "6F9C6BB4-2DCF-443B-A55D-9CE049090094";
shapes = (
{
attr = {
identifier = ID0x7fe6d54b4b70;
lineCapEnd = "1";
lineCapStart = "1";
};
closed = 0;
nodes = (
(124,360,l),
(124,-110,ls),
(124,-291,o),
(123,-353,o),
(71,-353,cs),
(32,-353,o),
(0,-311,o),
(0,-250,cs),
(0,-130,o),
(66,-89,o),
(141,-41,cs)
);
}
);
width = 141;
}
);
},
{
export = 0;
glyphname = _c.base;
lastChange = "2023-11-10 12:50:26 +0000";
layers = (
{
layerId = "6F9C6BB4-2DCF-443B-A55D-9CE049090094";
shapes = (
{
attr = {
identifier = ID0x7fba9c16c3a0;
lineCapEnd = 1;
lineCapStart = 1;
};
closed = 0;
nodes = (
(279,355,l),
(248,368,o),
(217,374,o),
(188,374,cs),
(94,374,o),
(20,309,o),
(20,180,cs),
(20,53,o),
(108,-15,o),
(212,-11,cs)
);
}
);
width = 210;
}
);
},
{
export = 0;
glyphname = _d.base;
lastChange = "2023-11-10 10:50:12 +0000";
layers = (
{
layerId = "6F9C6BB4-2DCF-443B-A55D-9CE049090094";
shapes = (
{
ref = _a.base;
},
{
attr = {
identifier = ID0x7fb9850b6300;
lineCapEnd = "1";
lineCapStart = "1";
};
closed = 0;
nodes = (
(291,679,l),
(291,357,l)
);
}
);
width = 392;
}
);
},
{
export = 0;
glyphname = _e.base;
lastChange = "2023-11-21 09:53:55 +0000";
layers = (
{
background = {
shapes = (
{
attr = {
identifier = ID0x7f9d1baad8f0;
lineCapEnd = "1";
lineCapStart = "1";
};
closed = 0;
nodes = (
(25,110,l),
(98,168,o),
(143,242,o),
(143,295,cs),
(143,335,o),
(119,362,o),
(91,362,cs),
(55,362,o),
(14,316,o),
(14,195,cs),
(14,98,o),
(52,-5,o),
(131,-5,cs)
);
}
);
};
guides = (
{
angle = 90;
pos = (20,215);
}
);
layerId = "6F9C6BB4-2DCF-443B-A55D-9CE049090094";
shapes = (
{
attr = {
identifier = ID0x7f9d1baad8f0;
lineCapEnd = "1";
lineCapStart = "1";
};
closed = 0;
nodes = (
(21,52,l),
(91,113,o),
(130,206,o),
(130,274,cs),
(130,332,o),
(98,363,o),
(63,363,cs),
(19,363,o),
(-30,315,o),
(-30,221,cs),
(-30,118,o),
(27,-5,o),
(126,-5,cs)
);
}
);
width = 131;
}
);
},
{
export = 0;
glyphname = _entrada.i;
lastChange = "2023-11-21 15:09:08 +0000";
layers = (
{
layerId = "6F9C6BB4-2DCF-443B-A55D-9CE049090094";
shapes = (
{
attr = {
identifier = ID0x7fe6d54b4b70;
lineCapEnd = 1;
lineCapStart = 1;
};
closed = 0;
nodes = (
(63,360,l),
(44,257,o),
(20,180,o),
(20,180,cs)
);
}
);
width = 65;
}
);
},
{
export = 0;
glyphname = _f.base;
lastChange = "2023-11-10 11:01:46 +0000";
layers = (
{
layerId = "6F9C6BB4-2DCF-443B-A55D-9CE049090094";
shapes = (
{
attr = {
identifier = ID0x7f832352d5f0;
lineCapEnd = "1";
lineCapStart = "1";
};
closed = 0;
nodes = (
(21,182,l),
(62,293,o),
(114,450,o),
(114,573,cs),
(114,652,o),
(97,709,o),
(53,709,cs),
(1,709,o),
(-16,639,o),
(-16,539,cs),
(-16,322,o),
(67,-39,o),
(67,-146,cs),
(67,-302,o),
(35,-354,o),
(2,-354,cs),
(-30,-354,o),
(-62,-304,o),
(-62,-239,cs),
(-62,-174,o),
(-30,-93,o),
(63,-33,cs)
);
}
);
width = 114;
}
);
},
{
export = 0;
glyphname = _g.base;
lastChange = "2023-11-10 11:40:34 +0000";
layers = (
{
layerId = "6F9C6BB4-2DCF-443B-A55D-9CE049090094";
shapes = (
{
alignment = -1;
pos = (3,0);
ref = _part.bucle;
},
{
attr = {
identifier = ID0x7fb9a232c4f0;
lineCapEnd = 1;
lineCapStart = 1;
};
closed = 0;
nodes = (
(291,355,l),
(291,150,l)
);
},
{
pos = (167,0);
ref = _bucle.decendente;
}
);
width = 308;
}
);
},
{
export = 0;
glyphname = _h.base;
lastChange = "2023-11-11 16:43:17 +0000";
layers = (
{
layerId = "6F9C6BB4-2DCF-443B-A55D-9CE049090094";
shapes = (
{
pos = (20,0);
ref = _bucle.ascendente.h;
},
{
attr = {
identifier = ID0x7f8325d1e2e0;
lineCapEnd = "1";
lineCapStart = "1";
};
closed = 0;
nodes = (
(383,-5,l),
(327,-5,o),
(307,33,o),
(307,100,cs),
(307,237,ls),
(307,326,o),
(267,360,o),
(218,360,cs),
(167,360,o),
(80,291,o),
(27,77,c)
);
}
);
width = 383;
}
);
},
{
export = 0;
glyphname = _k.base;
lastChange = "2023-11-11 16:44:32 +0000";
layers = (
{
layerId = "6F9C6BB4-2DCF-443B-A55D-9CE049090094";
shapes = (
{
pos = (20,0);
ref = _bucle.ascendente.h;
},
{
attr = {
lineCapEnd = "1";
lineCapStart = "1";
};
closed = 0;
nodes = (
(219,360,l),
(186,323,o),
(97,219,o),
(39,171,c)
);
},
{
attr = {
identifier = ID0x7f8323181190;
lineCapEnd = "1";
lineCapStart = "1";
};
closed = 0;
nodes = (
(281,-5,l),
(236,-5,o),
(113,118,o),
(39,169,c)
);
}
);
width = 281;
}
);
},
{
export = 0;
glyphname = _o.base;
lastChange = "2023-11-15 15:22:27 +0000";
layers = (
{
background = {
shapes = (
{
attr = {
identifier = ID0x7f885f9429a0;
lineCapEnd = "1";
lineCapStart = "1";
};
closed = 0;
nodes = (
(490,180,l),
(412,34,o),
(171,141,o),
(171,295,cs),
(171,423,o),
(314,346,o),
(314,180,cs),
(314,61,o),
(239,-6,o),
(164,-6,cs),
(74,-6,o),
(20,86,o),
(20,178,cs),
(20,286,o),
(78,364,o),
(164,364,cs),
(176,364,o),
(188,362,o),
(198,359,c)
);
}
);
};
layerId = "6F9C6BB4-2DCF-443B-A55D-9CE049090094";
shapes = (
{
attr = {
identifier = ID0x7f885f9429a0;
lineCapEnd = "1";
lineCapStart = "1";
};
closed = 0;
nodes = (
(171,295,l),
(171,423,o),
(314,346,o),
(314,180,cs),
(314,61,o),
(239,-6,o),
(164,-6,cs),
(74,-6,o),
(20,86,o),
(20,178,cs),
(20,286,o),
(78,364,o),
(164,364,cs),
(176,364,o),
(188,362,o),
(198,359,c)
);
}
);
width = 314;
}
);
},
{
export = 0;
glyphname = _p.base;
lastChange = "2023-11-21 15:08:03 +0000";
layers = (
{
layerId = "6F9C6BB4-2DCF-443B-A55D-9CE049090094";
shapes = (
{
alignment = -1;
ref = _arco3;
},
{
attr = {
identifier = ID0x7fe6d54b4b70;
lineCapEnd = "1";
lineCapStart = "1";
};
closed = 0;
nodes = (
(0,360,l),
(0,-349,l)
);
}
);
width = 335;
}
);
},
{
export = 0;
glyphname = _q.base;
lastChange = "2023-11-10 12:26:13 +0000";
layers = (
{
layerId = "6F9C6BB4-2DCF-443B-A55D-9CE049090094";
shapes = (
{
attr = {
lineCapEnd = 1;
lineCapStart = 1;
};
closed = 0;
nodes = (
(291,150,l),
(291,-349,l)
);
},
{
pos = (291,0);
ref = _conector.glifo.salida;
},
{
ref = _a.base;
}
);
width = 392;
}
);
},
{
export = 0;
glyphname = _r.base;
lastChange = "2023-11-21 10:14:35 +0000";
layers = (
{
layerId = "6F9C6BB4-2DCF-443B-A55D-9CE049090094";
shapes = (
{
attr = {
lineCapEnd = 1;
lineCapStart = 1;
};
closed = 0;
nodes = (
(47,389,l),
(74,359,o),
(98,349,o),
(185,359,cs),
(214,363,o),
(222,364,o),
(222,348,cs),
(222,324,o),
(208,269,o),
(208,187,cs),
(208,93,o),
(226,-5,o),
(296,-5,cs)
);
},
{
attr = {
lineCapEnd = "1";
lineCapStart = "1";
};
closed = 0;
nodes = (
(20,180,l),
(49,276,o),
(44,393,o),
(44,393,c)
);
}
);
width = 296;
}
);
},
{
export = 0;
glyphname = _s.base;
lastChange = "2023-11-10 12:42:39 +0000";
layers = (
{
layerId = "6F9C6BB4-2DCF-443B-A55D-9CE049090094";
shapes = (
{
attr = {
lineCapEnd = "1";
lineCapStart = "1";
};
closed = 0;
nodes = (
(69,369,l),
(190,286,o),
(300,234,o),
(292,121,cs),
(285,19,o),
(182,-21,o),
(74,20,c)
);
},
{
attr = {
identifier = ID0x7f8862385790;
lineCapEnd = "1";
lineCapStart = "1";
};
closed = 0;
nodes = (
(20,180,l),
(47,262,o),
(59,329,o),
(67,370,c)
);
}
);
width = 292;
}
);
},
{
export = 0;
glyphname = _t.base;
lastChange = "2023-11-22 11:26:14 +0000";
layers = (
{
layerId = "6F9C6BB4-2DCF-443B-A55D-9CE049090094";
shapes = (
{
attr = {
identifier = ID0x7fe6d6dc0d10;
lineCapEnd = 1;
lineCapStart = 1;
};
closed = 0;
nodes = (
(-101,421,l),
(168,421,l)
);
},
{
pos = (3,0);
ref = _conector.glifo.salida;
},
{
closed = 0;
nodes = (
(3,577,l),
(3,150,ls)
);
}
);
width = 104;
}
);
},
{
export = 0;
glyphname = _trazo.entra;
lastChange = "2023-11-03 15:00:22 +0000";
layers = (
{
background = {
shapes = (
{
closed = 0;
nodes = (
(1,-5,ls),
(60,-5,o),
(105,53,o),
(151,179,c)
);
}
);
};
layerId = "6F9C6BB4-2DCF-443B-A55D-9CE049090094";
shapes = (
{
attr = {
lineCapEnd = 1;
lineCapStart = 1;
strokeHeight = 45;
strokeWidth = 40;
};
closed = 0;
nodes = (
(0,-5,ls),
(59,-5,o),
(107,53,o),
(150,179,c)
);
}
);
width = 150;
}
);
},
{
export = 0;
glyphname = _trazo.mitte;
lastChange = "2023-11-21 09:54:16 +0000";
layers = (
{
background = {
shapes = (
{
attr = {
identifier = ID0x7fc21b80f700;
lineCapEnd = "1";
lineCapStart = "1";
};
closed = 0;
nodes = (
(0,-5,l),
(65,-5,o),
(123,38,o),
(158,110,c)
);
}
);
};
layerId = "6F9C6BB4-2DCF-443B-A55D-9CE049090094";
shapes = (
{
attr = {
identifier = ID0x7fc21b80f700;
lineCapEnd = "1";
lineCapStart = "1";
};
closed = 0;
nodes = (
(0,-5,l),
(65,-5,o),
(118,58,o),
(158,180,c)
);
}
);
width = 138;
}
);
},
{
export = 0;
glyphname = _u.base;
lastChange = "2023-11-21 15:42:13 +0000";
layers = (
{
layerId = "6F9C6BB4-2DCF-443B-A55D-9CE049090094";
shapes = (
{
attr = {
identifier = ID0x7fe6d6dc1620;
lineCapEnd = "1";
lineCapStart = "1";
};
closed = 0;
nodes = (
(271,360,l),
(271,150,l)
);
},
{
attr = {
identifier = ID0x7fba9a1830a0;
lineCapEnd = 1;
lineCapStart = 1;
};
closed = 0;
nodes = (
(270,150,l),
(244,55,o),
(174,-5,o),
(111,-5,cs),
(52,-5,o),
(0,27,o),
(0,150,cs),
(0,360,l)
);
},
{
pos = (271,0);
ref = _conector.glifo.salida;
}
);
width = 372;
}
);
},
{
export = 0;
glyphname = _w.base;
lastChange = "2023-11-15 15:35:45 +0000";
layers = (
{
layerId = "6F9C6BB4-2DCF-443B-A55D-9CE049090094";
shapes = (
{
attr = {
identifier = ID0x7f88630096e0;
lineCapEnd = 1;
lineCapStart = 1;
};
closed = 0;
nodes = (
(422,355,l),
(422,170,ls),
(422,82,o),
(388,-5,o),
(303,-5,cs),
(243,-5,o),
(212,42,o),
(212,150,cs)
);
},
{
alignment = -1;
pos = (20,0);
ref = _arco.v;
},
{
pos = (422,0);
ref = _conector.glifo.salida;
}
);
width = 523;
}
);
},
{
export = 0;
glyphname = _x.base;
lastChange = "2023-11-10 12:51:28 +0000";
layers = (
{
layerId = "6F9C6BB4-2DCF-443B-A55D-9CE049090094";
shapes = (
{
attr = {
identifier = ID0x7fb98667ba50;
lineCapEnd = "1";
lineCapStart = "1";
};
closed = 0;
nodes = (
(69,369,l),
(190,286,o),
(299,234,o),
(292,121,cs),
(285,9,o),
(182,-31,o),
(74,10,c)
);
},
{
attr = {
identifier = ID0x7fb98667ba50;
lineCapEnd = "1";
lineCapStart = "1";
};
closed = 0;
nodes = (
(20,180,l),
(47,262,o),
(59,329,o),
(67,370,c)
);
},
{
attr = {
identifier = ID0x7fb9869edcc0;
lineCapEnd = 1;
lineCapStart = 1;
};
closed = 0;
nodes = (
(549,355,l),
(518,368,o),
(487,374,o),
(458,374,cs),
(364,374,o),
(290,309,o),
(290,180,cs),
(290,53,o),
(391,-5,o),
(502,-5,cs)
);
}
);
width = 502;
}
);
},
{
export = 0;
glyphname = _y.base;
lastChange = "2023-11-21 10:13:40 +0000";
layers = (
{
layerId = "6F9C6BB4-2DCF-443B-A55D-9CE049090094";
shapes = (
{
alignment = -1;
pos = (212,0);
ref = _bucle.decendente;
},
{
attr = {
identifier = ID0x7fe6d62f74f0;
lineCapEnd = "1";
lineCapStart = "1";
};
closed = 0;
nodes = (
(336,360,l),
(336,150,l)
);
},
{
alignment = -1;
pos = (20,0);
ref = _entrada.i;
},
{
attr = {
identifier = ID0x7fba9a1830a0;
lineCapEnd = "1";
lineCapStart = "1";
};
closed = 0;
nodes = (
(336,150,l),
(310,55,o),
(240,-5,o),
(177,-5,cs),
(118,-5,o),
(66,27,o),
(66,150,cs),
(66,360,l)
);
}
);
width = 353;
}
);
},
{
export = 0;
glyphname = _z.base;
lastChange = "2023-11-20 17:05:53 +0000";
layers = (
{
layerId = "6F9C6BB4-2DCF-443B-A55D-9CE049090094";
shapes = (
{
attr = {
lineCapEnd = "1";
lineCapStart = "1";
};
closed = 0;
nodes = (
(47,388,l),
(70,366,o),
(89,355,o),
(156,355,cs),
(239,355,o),
(302,363,o),
(302,363,cs),
(310,364,o),
(313,360,o),
(306,348,cs),
(284,310,o),
(198,171,o),
(133,48,c),
(267,32,o),
(300,-60,o),
(300,-151,cs),
(300,-247,o),
(255,-341,o),
(200,-341,cs),
(166,-341,o),
(129,-306,o),
(136,-232,cs),
(146,-127,o),
(196,-87,o),
(275,-40,cs)
);
},
{
attr = {
lineCapEnd = "1";
lineCapStart = "1";
};
closed = 0;
nodes = (
(20,179,l),
(50,281,o),
(44,393,o),
(44,393,c)
);
}
);
width = 300;
}
);
},
{
export = 0;
glyphname = _bucle.ascendente.h;
lastChange = "2023-11-11 15:10:36 +0000";
layers = (
{
background = {
shapes = (
{
attr = {
identifier = ID0x7f7de989f3a0;
lineCapEnd = "1";
lineCapStart = "1";
strokeHeight = 45;
strokeWidth = 40;
};
closed = 0;
nodes = (
(2,173,l),
(46,298,o),
(147,505,o),
(147,625,cs),
(147,674,o),
(115,701,o),
(83,701,cs),
(49,701,o),
(15,670,o),
(20,602,cs),
(26,517,o),
(32,409,o),
(32,316,cs),
(32,0,l)
);
},
{
attr = {
identifier = ID0x7fc21b80f700;
lineCapEnd = "1";
lineCapStart = "1";
strokeHeight = 45;
strokeWidth = 40;
};
closed = 0;
nodes = (
(-152,-5,l),
(-91,-5,o),
(-33,38,o),
(4,179,c)
);
}
);
};
layerId = "6F9C6BB4-2DCF-443B-A55D-9CE049090094";
shapes = (
{
attr = {
identifier = ID0x7fc21b80f700;
lineCapEnd = "1";
lineCapStart = "1";
};
closed = 0;
nodes = (
(6,184,l),
(94,362,o),
(138,472,o),
(128,625,cs),
(125,674,o),
(95,701,o),
(63,701,cs),
(29,701,o),
(0,670,o),
(0,602,cs),
(2,271,l),
(2,0,l)
);
}
);
width = 129;
}
);
},
{
export = 0;
glyphname = _conector.glifo.salida;
lastChange = "2023-11-10 08:33:20 +0000";
layers = (
{
layerId = "6F9C6BB4-2DCF-443B-A55D-9CE049090094";
shapes = (
{
attr = {
identifier = ID0x7f8322cab0f0;
lineCapEnd = "1";
lineCapStart = "1";
};
closed = 0;
nodes = (
(101,-5,l),
(31,-5,o),
(0,42,o),
(0,150,cs)
);
}
);
width = 101;
}
);
},
{
export = 0;
glyphname = _f.top.base;
lastChange = "2023-11-15 19:44:36 +0000";
layers = (
{
layerId = "6F9C6BB4-2DCF-443B-A55D-9CE049090094";
shapes = (
{
attr = {
identifier = ID0x7f832352d5f0;
lineCapEnd = "1";
lineCapStart = "1";
};
closed = 0;
nodes = (
(50,300,l),
(94,353,o),
(114,450,o),
(114,573,cs),
(114,652,o),
(97,709,o),
(53,709,cs),
(1,709,o),
(-16,639,o),
(-16,539,cs),
(-16,322,o),
(67,-39,o),
(67,-146,cs),
(67,-302,o),
(35,-354,o),
(2,-354,cs),
(-30,-354,o),
(-62,-304,o),
(-62,-239,cs),
(-62,-174,o),
(-30,-93,o),
(63,-33,cs)
);
}
);
width = 114;
}
);
},
{
export = 0;
glyphname = _h.top.base;
lastChange = "2023-11-15 19:38:27 +0000";
layers = (
{
layerId = "6F9C6BB4-2DCF-443B-A55D-9CE049090094";
shapes = (
{
ref = _bucle.ascendente.h.top;
},
{
attr = {
identifier = ID0x7f8325d1e2e0;
lineCapEnd = "1";
lineCapStart = "1";
};
closed = 0;
nodes = (
(383,-5,l),
(327,-5,o),
(307,33,o),
(307,100,cs),
(307,237,ls),
(307,326,o),
(267,360,o),
(218,360,cs),
(167,360,o),
(80,291,o),
(27,77,c)
);
}
);
width = 383;
}
);
},
{
export = 0;
glyphname = _k.alt.base;
lastChange = "2023-11-20 17:12:49 +0000";
layers = (
{
layerId = "6F9C6BB4-2DCF-443B-A55D-9CE049090094";
shapes = (
{
attr = {
lineCapEnd = 1;
lineCapStart = 1;
};
closed = 0;
nodes = (
(242,-5,l),
(177,-5,o),
(122,77,o),
(77,144,c),
(194,163,o),
(245,232,o),
(245,296,cs),
(245,331,o),
(223,360,o),
(202,360,cs),
(147,360,o),
(29,179,o),
(26,91,cs)
);
},
{
pos = (20,-1);
ref = _bucle.ascendente.h;
}
);
width = 242;
}
);
},
{
export = 0;
glyphname = _k.top.base;
lastChange = "2023-11-15 19:40:14 +0000";
layers = (
{
layerId = "6F9C6BB4-2DCF-443B-A55D-9CE049090094";
shapes = (
{
ref = _bucle.ascendente.h.top;
},
{
attr = {
lineCapEnd = "1";
lineCapStart = "1";
};
closed = 0;
nodes = (
(219,360,l),
(186,323,o),
(97,219,o),
(39,171,c)
);
},
{
attr = {
identifier = ID0x7f8323181190;
lineCapEnd = "1";
lineCapStart = "1";
};
closed = 0;
nodes = (
(281,-5,l),
(236,-5,o),
(113,118,o),
(39,169,c)
);
}
);
width = 281;
}
);
},
{
export = 0;
glyphname = _l.top.base;
lastChange = "2023-11-15 19:34:26 +0000";
layers = (
{
layerId = "6F9C6BB4-2DCF-443B-A55D-9CE049090094";
shapes = (
{
attr = {
identifier = ID0x7fc1c2beb640;
lineCapEnd = "1";
lineCapStart = "1";
};
closed = 0;
nodes = (
(21,275,l),
(99,325,o),
(133,471,o),
(141,596,cs),
(146,678,o),
(113,700,o),
(82,700,cs),
(4,700,o),
(3,472,o),
(3,404,cs),
(3,172,o),
(50,-5,o),
(151,-5,c)
);
}
);
width = 151;
}
);
},
{
export = 0;
glyphname = _stem.long.sale;
lastChange = "2023-10-30 15:48:29 +0000";
layers = (
{
background = {
shapes = (
{
attr = {
identifier = ID0x7ff0510fb570;
lineCapEnd = 1;
lineCapStart = 1;
strokeHeight = 45;
strokeWidth = 40;
};
closed = 0;
nodes = (
(20,679,l),
(20,100,ls),
(20,33,o),
(60,-5,o),
(106,-5,cs),
(165,-5,o),
(246,53,o),
(256,179,c)
);
}
);
};
layerId = "6F9C6BB4-2DCF-443B-A55D-9CE049090094";
shapes = (
{
attr = {
identifier = ID0x7fc21b80f700;
lineCapEnd = "1";
lineCapStart = "1";
strokeHeight = 45;
strokeWidth = 40;
};
closed = 0;
nodes = (
(20,679,l),
(20,100,ls),
(20,33,o),
(60,-5,o),
(106,-5,cs),
(165,-5,o),
(230,53,o),
(276,179,c)
);
}
);
width = 256;
}
);
},
{
export = 0;
glyphname = _stem.short.sale;
lastChange = "2023-11-10 09:34:34 +0000";
layers = (
{
anchors = (
{
name = bottom;
pos = (-26,0);
},
{
name = ogonek;
pos = (184,10);
},
{
name = top;
pos = (-112,360);
}
);
background = {
shapes = (
{
attr = {
identifier = ID0x7fc21b80f700;
lineCapEnd = "1";
lineCapStart = "1";
strokeHeight = 45;
strokeWidth = 40;
};
closed = 0;
nodes = (
(0,357,l),
(0,100,ls),
(0,29,o),
(35,-5,o),
(79,-5,cs),
(140,-5,o),
(218,58,o),
(255,179,c)
);
}
);
};
layerId = "6F9C6BB4-2DCF-443B-A55D-9CE049090094";
shapes = (
{
attr = {
identifier = ID0x7f83231b73a0;
lineCapEnd = "1";
lineCapStart = "1";
};
closed = 0;
nodes = (
(1,357,l),
(1,110,ls),
(1,39,o),
(45,-5,o),
(100,-5,cs)
);
},
{
pos = (83,0);
ref = _trazo.mitte;
}
);
width = 241;
}
);
},
{
export = 0;
glyphname = _trazo.entra.e;
lastChange = "2023-11-03 15:01:22 +0000";
layers = (
{
background = {
shapes = (
{
closed = 0;
nodes = (
(1,-5,ls),
(60,-5,o),
(105,53,o),
(151,179,c)
);
}
);
};
layerId = "6F9C6BB4-2DCF-443B-A55D-9CE049090094";
shapes = (
{
attr = {
lineCapEnd = 1;
lineCapStart = 1;
strokeHeight = 45;
strokeWidth = 40;
};
closed = 0;
nodes = (
(0,-5,l),
(49,-5,o),
(106,15,o),
(150,57,c)
);
}
);
width = 150;
}
);
},
{
export = 0;
glyphname = _trazo.sale.low;
lastChange = "2023-11-10 12:25:10 +0000";
layers = (
{
background = {
shapes = (
{
attr = {
identifier = ID0x7fc21b80f700;
lineCapEnd = "1";
lineCapStart = "1";
strokeHeight = 45;
strokeWidth = 40;
};
closed = 0;
nodes = (
(-143,-5,l),
(-82,-5,o),
(-4,58,o),
(33,179,c)
);
}
);
};
guides = (
{
angle = 90;
pos = (33,90);
}
);
layerId = "6F9C6BB4-2DCF-443B-A55D-9CE049090094";
shapes = (
{
attr = {
identifier = ID0x7f7dd9b1a0e0;
lineCapEnd = 1;
lineCapStart = 1;
};
closed = 0;
nodes = (
(0,-5,l),
(61,-5,o),
(118,16,o),
(158,50,cs)
);
}
);
width = 138;
}
);
},
{
export = 0;
glyphname = _trazo.salida.b;
lastChange = "2023-11-21 14:45:33 +0000";
layers = (
{
background = {
shapes = (
{
attr = {
identifier = ID0x7f88624aed60;
lineCapEnd = 1;
lineCapStart = 1;
};
closed = 0;
nodes = (
(28,336,l),
(86,293,o),
(215,203,o),
(300,300,cs)
);
},
{
attr = {
lineCapEnd = 1;
lineCapStart = 1;
};
closed = 0;
nodes = (
(88,296,l),
(188,197,o),
(133,-5,o),
(0,-5,cs)
);
}
);
};
layerId = "6F9C6BB4-2DCF-443B-A55D-9CE049090094";
shapes = (
{
attr = {
identifier = ID0x7f88624aed60;
lineCapEnd = 1;
lineCapStart = 1;
};
closed = 0;
nodes = (
(28,336,l),
(86,293,o),
(245,203,o),
(300,300,cs)
);
},
{
attr = {
lineCapEnd = 1;
lineCapStart = 1;
};
closed = 0;
nodes = (
(88,296,l),
(188,197,o),
(133,-5,o),
(0,-5,cs)
);
}
);
width = 250;
}
);
},
{
export = 0;
glyphname = _trazo.salida.be;
lastChange = "2023-11-03 13:03:54 +0000";
layers = (
{
background = {
shapes = (
{
attr = {
identifier = ID0x7f88624aed60;
lineCapEnd = "1";
lineCapStart = "1";
strokeHeight = 45;
strokeWidth = 40;
};
closed = 0;
nodes = (
(50,336,l),
(134,230,o),
(249,184,o),
(322,184,cs),
(443,184,o),
(482,231,o),
(482,277,cs),
(482,333,o),
(449,363,o),
(413,363,cs),
(369,363,o),
(320,318,o),
(320,221,cs),
(320,118,o),
(376,-5,o),
(475,-5,cs),
(557,-5,o),
(641,58,o),
(689,179,c)
);
},
{
attr = {
lineCapEnd = "1";
lineCapStart = "1";
strokeHeight = 45;
strokeWidth = 40;
};
closed = 0;
nodes = (
(101,281,ls),
(201,182,o),
(155,-5,o),
(22,-5,cs)
);
}
);
};
layerId = "6F9C6BB4-2DCF-443B-A55D-9CE049090094";
shapes = (
{
attr = {
identifier = ID0x7f88624aed60;
lineCapEnd = "1";
lineCapStart = "1";
strokeHeight = 45;
strokeWidth = 40;
};
closed = 0;
nodes = (
(50,336,l),
(125,241,o),
(220,184,o),
(302,184,c)
);
},
{
attr = {
lineCapEnd = "1";
lineCapStart = "1";
strokeHeight = 45;
strokeWidth = 40;
};
closed = 0;
nodes = (
(101,281,l),
(181,192,o),
(155,-5,o),
(22,-5,cs)
);
}
);
width = 304;
}
);
},
{
export = 0;
glyphname = _trazo.salida.o;
lastChange = "2023-10-31 13:20:13 +0000";
layers = (
{
layerId = "6F9C6BB4-2DCF-443B-A55D-9CE049090094";
shapes = (
{
attr = {
identifier = ID0x7f885f92df30;
lineCapEnd = 1;
lineCapStart = 1;
strokeHeight = 45;
strokeWidth = 40;
};
closed = 0;
nodes = (
(20,328,l),
(20,231,o),
(210,186,o),
(360,291,c)
);
}
);
width = 316;
}
);
},
{
export = 0;
glyphname = _bucle.ascendente.h.top;
lastChange = "2023-11-15 19:37:52 +0000";
layers = (
{
background = {
shapes = (
{
attr = {
identifier = ID0x7f7de989f3a0;
lineCapEnd = "1";
lineCapStart = "1";
strokeHeight = 45;
strokeWidth = 40;
};
closed = 0;
nodes = (
(22,173,l),
(66,298,o),
(167,505,o),
(167,625,cs),
(167,674,o),
(135,701,o),
(103,701,cs),
(69,701,o),
(35,670,o),
(40,602,cs),
(46,517,o),
(52,409,o),
(52,316,cs),
(52,0,l)
);
},
{
attr = {
identifier = ID0x7fc21b80f700;
lineCapEnd = "1";
lineCapStart = "1";
strokeHeight = 45;
strokeWidth = 40;
};
closed = 0;
nodes = (
(-132,-5,l),
(-71,-5,o),
(-13,38,o),
(24,179,c)
);
}
);
};
layerId = "6F9C6BB4-2DCF-443B-A55D-9CE049090094";
shapes = (
{
closed = 0;
nodes = (
(41,290,l),
(111,362,o),
(150,474,o),
(150,586,cs),
(150,630,o),
(143,701,o),
(83,701,cs),
(49,701,o),
(20,670,o),
(20,602,cs),
(22,271,l),
(22,0,l)
);
}
);
width = 150;
}
);
},
{
export = 0;
glyphname = _bucle.descendente.conecta.low;
lastChange = "2023-11-10 12:57:33 +0000";
layers = (
{
layerId = "6F9C6BB4-2DCF-443B-A55D-9CE049090094";
shapes = (
{
attr = {
identifier = ID0x7fb9a2187140;
lineCapEnd = "1";
lineCapStart = "1";
};
closed = 0;
nodes = (
(0,-41,l),
(67,-2,o),
(127,8,o),
(187,50,cs)
);
}
);
width = 167;
}
);
},
{
export = 0;
glyphname = _bucle.descendente.conecta.mitte;
lastChange = "2023-11-10 12:56:56 +0000";
layers = (
{
layerId = "6F9C6BB4-2DCF-443B-A55D-9CE049090094";
shapes = (
{
closed = 0;
nodes = (
(0,-41,l),
(70,3,o),
(148,53,o),
(187,180,c)
);
}
);
width = 167;
}
);
},
{
export = 0;
glyphname = _entrada.i.to.b;
lastChange = "2023-11-21 15:15:37 +0000";
layers = (
{
background = {
shapes = (
{
attr = {
identifier = ID0x7fe6d54b4b70;
lineCapEnd = 1;
lineCapStart = 1;
};
closed = 0;
nodes = (
(30,360,l),
(30,318,o),
(20,300,o),
(20,300,cs),
(-65,203,o),
(-194,293,o),
(-252,336,c)
);
}
);
};
layerId = "6F9C6BB4-2DCF-443B-A55D-9CE049090094";
shapes = (
{
attr = {
identifier = ID0x7fe6d54b4b70;
lineCapEnd = 1;
lineCapStart = 1;
};
closed = 0;
nodes = (
(63,360,l),
(62,340,o),
(60,322,o),
(50,300,c)
);
}
);
width = 68;
}
);
},
{
export = 0;
glyphname = _stem.long.low.sale;
lastChange = "2023-11-03 15:18:48 +0000";
layers = (
{
background = {
shapes = (
{
attr = {
identifier = ID0x7fc21b80f700;
lineCapEnd = "1";
lineCapStart = "1";
strokeHeight = 45;
strokeWidth = 40;
};
closed = 0;
nodes = (
(19,357,l),
(19,100,ls),
(19,29,o),
(54,-5,o),
(98,-5,cs),
(159,-5,o),
(237,58,o),
(274,179,c)
);
}
);
};
guides = (
{
angle = 90;
pos = (274,138);
}
);
layerId = "6F9C6BB4-2DCF-443B-A55D-9CE049090094";
shapes = (
{
attr = {
lineCapEnd = 1;
lineCapStart = 1;
strokeHeight = 45;
strokeWidth = 40;
};
closed = 0;
nodes = (
(20,680,l),
(20,100,ls),
(20,24,o),
(65,-9,o),
(124,-9,cs),
(184,-9,o),
(233,15,o),
(274,49,cs)
);
}
);
width = 256;
}
);
},
{
export = 0;
glyphname = _stem.short.low.sale;
lastChange = "2023-11-03 15:27:15 +0000";
layers = (
{
background = {
shapes = (
{
attr = {
identifier = ID0x7fc21b80f700;
lineCapEnd = "1";
lineCapStart = "1";
strokeHeight = 45;
strokeWidth = 40;
};
closed = 0;
nodes = (
(19,357,l),
(19,100,ls),
(19,29,o),
(54,-5,o),
(98,-5,cs),
(159,-5,o),
(237,58,o),
(274,179,c)
);
}
);
};
guides = (
{
angle = 90;
pos = (274,138);
}
);
layerId = "6F9C6BB4-2DCF-443B-A55D-9CE049090094";
shapes = (
{
attr = {
lineCapEnd = 1;
lineCapStart = 1;
strokeHeight = 45;
strokeWidth = 40;
};
closed = 0;
nodes = (
(20,357,l),
(20,100,ls),
(20,24,o),
(64,-9,o),
(123,-9,cs),
(183,-9,o),
(232,15,o),
(273,49,cs)
);
}
);
width = 255;
}
);
},
{
export = 0;
glyphname = _trazo.salida.b.top;
lastChange = "2023-11-21 08:57:48 +0000";
layers = (
{
background = {
shapes = (
{
attr = {
identifier = ID0x7f88624aed60;
lineCapEnd = 1;
lineCapStart = 1;
};
closed = 0;
nodes = (
(28,336,l),
(86,293,o),
(215,203,o),
(300,300,cs)
);
},
{
attr = {
lineCapEnd = 1;
lineCapStart = 1;
};
closed = 0;
nodes = (
(88,296,l),
(188,197,o),
(133,-5,o),
(0,-5,cs)
);
}
